<?xml version="1.0" encoding="UTF-8" standalone="no"?>
<!-- Uploaded to: SVG Repo, www.svgrepo.com, Generator: SVG Repo Mixer Tools -->

<svg
   aria-label="Android"
   role="img"
   viewBox="0 0 512 512"
   version="1.1"
   id="svg1"
   sodipodi:docname="android-svgrepo-com.svg"
   inkscape:version="1.3.2 (091e20e, 2023-11-25, custom)"
   inkscape:export-filename="..\PNG\android.png"
   inkscape:export-xdpi="96"
   inkscape:export-ydpi="96"
   xmlns:inkscape="http://www.inkscape.org/namespaces/inkscape"
   xmlns:sodipodi="http://sodipodi.sourceforge.net/DTD/sodipodi-0.dtd"
   xmlns="http://www.w3.org/2000/svg"
   xmlns:svg="http://www.w3.org/2000/svg">
  <defs
     id="defs1" />
  <sodipodi:namedview
     id="namedview1"
     pagecolor="#ffffff"
     bordercolor="#000000"
     borderopacity="0.25"
     inkscape:showpageshadow="2"
     inkscape:pageopacity="0.0"
     inkscape:pagecheckerboard="0"
     inkscape:deskcolor="#d1d1d1"
     inkscape:zoom="0.5365449"
     inkscape:cx="165.87615"
     inkscape:cy="642.07115"
     inkscape:window-width="1920"
     inkscape:window-height="991"
     inkscape:window-x="-9"
     inkscape:window-y="1341"
     inkscape:window-maximized="1"
     inkscape:current-layer="svg1" />
  <rect
     width="512"
     height="512"
     rx="15%"
     fill="#ffffff"
     id="rect1"
     style="fill:#ffffff;fill-opacity:0" />
  <path
     d="m 373.31344,335.94022 a 21.283682,21.283682 0 1 1 21.27977,-21.28769 21.311756,21.311756 0 0 1 -21.27977,21.28769 m -235.23125,0 a 21.283682,21.283682 0 1 1 21.27963,-21.28769 21.307744,21.307744 0 0 1 -21.27963,21.28769 m 242.86322,-128.19538 42.53135,-73.66472 a 8.8503217,8.8503217 0 1 0 -15.32408,-8.85919 l -43.06878,74.59516 c -32.93404,-15.03132 -69.92285,-23.40122 -109.3901,-23.40122 -39.46724,0 -76.45206,8.38193 -109.38624,23.40122 l -43.06462,-74.59516 a 8.8490492,8.8490492 0 1 0 -15.328099,8.84715 l 42.535369,73.67676 C 57.415132,247.46877 7.4603993,321.40619 0.15325801,408.76274 H 511.24235 C 503.92719,321.40619 453.97647,247.46877 380.94541,207.74484"
     fill="#3ddc84"
     id="path1"
     inkscape:export-filename="path1.png"
     inkscape:export-xdpi="96"
     inkscape:export-ydpi="96"
     style="stroke-width:1.43162" />
</svg>
