<?xml version="1.0" encoding="UTF-8" standalone="no"?>
<!-- Generator: Adobe Illustrator 23.0.1, SVG Export Plug-In . SVG Version: 6.00 Build 0)  -->

<svg
   version="1.1"
   id="Capa_1"
   x="0px"
   y="0px"
   viewBox="0 0 512 511.936"
   enable-background="new 0 0 800 800"
   xml:space="preserve"
   sodipodi:docname="AppStore.svg"
   width="512"
   height="511.936"
   inkscape:version="1.3.2 (091e20e, 2023-11-25, custom)"
   xmlns:inkscape="http://www.inkscape.org/namespaces/inkscape"
   xmlns:sodipodi="http://sodipodi.sourceforge.net/DTD/sodipodi-0.dtd"
   xmlns="http://www.w3.org/2000/svg"
   xmlns:svg="http://www.w3.org/2000/svg"><defs
   id="defs3" /><sodipodi:namedview
   id="namedview3"
   pagecolor="#ffffff"
   bordercolor="#000000"
   borderopacity="0.25"
   inkscape:showpageshadow="2"
   inkscape:pageopacity="0.0"
   inkscape:pagecheckerboard="0"
   inkscape:deskcolor="#d1d1d1"
   inkscape:zoom="0.97125"
   inkscape:cx="399.4852"
   inkscape:cy="400"
   inkscape:window-width="1920"
   inkscape:window-height="991"
   inkscape:window-x="-9"
   inkscape:window-y="1341"
   inkscape:window-maximized="1"
   inkscape:current-layer="Capa_1" />
<linearGradient
   id="SVGID_1_"
   gradientUnits="userSpaceOnUse"
   x1="400.04999"
   y1="798.77173"
   x2="400.04999"
   y2="-1.2283"
   gradientTransform="matrix(0.63992001,0,0,-0.63992001,0,511.14999)">
	<stop
   offset="0"
   style="stop-color:#18BFFB"
   id="stop1" />
	<stop
   offset="1"
   style="stop-color:#2072F3"
   id="stop2" />
</linearGradient>
<path
   fill="url(#SVGID_1_)"
   d="M 408.52493,0 H 103.41107 C 46.266217,0 0,46.266217 0,103.41107 v 305.17786 c 0,57.08086 46.266217,103.34708 103.41107,103.34708 H 408.58893 C 465.66979,511.93601 512,465.66979 512,408.52493 V 103.41107 C 511.93601,46.266217 465.66979,0 408.52493,0 Z"
   id="path2"
   style="fill:url(#SVGID_1_);stroke-width:0.63992" />
<path
   fill="#ffffff"
   d="m 253.79228,117.6173 10.3667,-17.917762 c 6.3992,-11.198601 20.66942,-14.974129 31.86802,-8.574929 11.1986,6.399201 14.97412,20.669421 8.57492,31.868021 l -99.89151,172.90638 h 72.24697 c 23.42107,0 36.53943,27.51656 26.3647,46.58618 H 91.508561 c -12.926384,0 -23.293088,-10.3667 -23.293088,-23.29309 0,-12.92638 10.366704,-23.29309 23.293088,-23.29309 h 59.384579 l 76.0225,-131.75953 -23.74104,-41.21085 c -6.3992,-11.1986 -2.62367,-25.340828 8.57493,-31.868013 11.1986,-6.3992 25.34083,-2.623672 31.86802,8.574929 z m -89.84477,248.86489 -22.3972,38.84314 c -6.3992,11.1986 -20.66942,14.97413 -31.86802,8.57493 -11.1986,-6.3992 -14.974129,-20.66941 -8.57493,-31.86801 l 16.63792,-28.7964 c 18.81365,-5.82328 34.10774,-1.34384 46.20223,13.24634 z M 356.8194,296.027 h 60.60042 c 12.92639,0 23.29309,10.3667 23.29309,23.29308 0,12.92639 -10.3667,23.29309 -23.29309,23.29309 h -33.65979 l 22.71716,39.41908 c 6.3992,11.1986 2.62367,25.34083 -8.57493,31.86801 -11.1986,6.3992 -25.34083,2.62367 -31.86801,-8.57493 -38.26722,-66.3597 -66.99963,-116.01749 -86.06925,-149.10136 -19.51756,-33.65979 -5.5673,-67.44757 8.19098,-78.90214 15.29409,26.23673 38.13923,65.84777 68.66342,118.70517 z"
   id="path3"
   style="stroke-width:0.63992"
   inkscape:export-filename="..\PNG\appstore.png"
   inkscape:export-xdpi="96"
   inkscape:export-ydpi="96" />
</svg>
