<?xml version="1.0" encoding="UTF-8" standalone="no"?>
<!-- Created with Inkscape (http://www.inkscape.org/) -->

<svg
   width="210mm"
   height="297mm"
   viewBox="0 0 210 297"
   version="1.1"
   id="svg1"
   xml:space="preserve"
   inkscape:version="1.3.2 (091e20e, 2023-11-25, custom)"
   sodipodi:docname="Bachelor_hat.svg"
   xmlns:inkscape="http://www.inkscape.org/namespaces/inkscape"
   xmlns:sodipodi="http://sodipodi.sourceforge.net/DTD/sodipodi-0.dtd"
   xmlns="http://www.w3.org/2000/svg"
   xmlns:svg="http://www.w3.org/2000/svg"><sodipodi:namedview
     id="namedview1"
     pagecolor="#ffffff"
     bordercolor="#000000"
     borderopacity="0.25"
     inkscape:showpageshadow="2"
     inkscape:pageopacity="0.0"
     inkscape:pagecheckerboard="0"
     inkscape:deskcolor="#d1d1d1"
     inkscape:document-units="mm"
     inkscape:zoom="0.34609638"
     inkscape:cx="-286.04748"
     inkscape:cy="882.70209"
     inkscape:window-width="1920"
     inkscape:window-height="991"
     inkscape:window-x="-9"
     inkscape:window-y="1341"
     inkscape:window-maximized="1"
     inkscape:current-layer="svg1" /><defs
     id="defs1" /><g
     id="g1"
     transform="translate(0.9849157,5.9643309)"><path
       id="path6"
       style="display:inline;fill:#000000;fill-opacity:1;stroke:none;stroke-width:2.38999;stroke-linejoin:round;stroke-dasharray:none;stroke-dashoffset:692.411"
       inkscape:label="Capuchon"
       d="m 101.69557,65.006491 -75.869756,33.974171 14.785468,6.569108 60.840208,-27.887448 0.52448,3.727275 -57.307312,25.963363 56.975822,25.31301 76.20465,-33.603345 z" /><path
       style="fill:#000000;fill-opacity:1;stroke:none;stroke-width:0.59596;stroke-linejoin:round;stroke-dasharray:none;stroke-dashoffset:692.411;stroke-opacity:1"
       d="m 58.100801,149.81002 -0.02329,-30.85917 44.182719,17.52617 42.92314,-17.2007 0.23539,30.2996 c -17.82026,21.08911 -66.229199,23.13401 -87.317969,0.2341 z"
       id="path7"
       sodipodi:nodetypes="ccccccc"
       inkscape:label="Tour de tête" /><path
       id="path8"
       style="fill:#000000;fill-opacity:1;stroke:none;stroke-width:0.690365;stroke-linejoin:round;stroke-dasharray:none;stroke-dashoffset:692.411;stroke-opacity:1"
       d="m 40.500027,110.06308 -0.02838,20.62638 a 4.4161682,5.2268622 0 0 0 -3.20821,5.02526 4.4161682,5.2268622 0 0 0 2.871042,4.86401 c -3.233064,5.48696 -3.327119,27.25206 -3.577166,32.47066 l 0.07493,-0.43939 c 4.31103,-3.99364 8.43733,-1.90136 10.242207,-0.0874 0.191019,-11.07812 -0.82285,-27.45038 -3.54992,-31.99095 a 4.4161682,5.2268622 0 0 0 2.771141,-4.81698 4.4161682,5.2268622 0 0 0 -3.183235,-5.01852 l -0.04541,-19.31498 z"
       inkscape:label="Pompon" /></g><circle
     style="fill:#000000;stroke:#000000;stroke-width:1.5875;stroke-linejoin:round;stroke-dashoffset:692.411;stroke-opacity:1;fill-opacity:0.00207039"
     id="path1"
     cx="102.82239"
     cy="124.99227"
     r="90.590736"
     inkscape:export-filename="..\lib\assets\bachelor_hat.png"
     inkscape:export-xdpi="143.55551"
     inkscape:export-ydpi="143.55551" /></svg>
