<?xml version="1.0" encoding="UTF-8" standalone="no"?>
<!-- Created with Inkscape (http://www.inkscape.org/) -->

<svg
   width="210mm"
   height="297mm"
   viewBox="0 0 210 297"
   version="1.1"
   id="svg1"
   xml:space="preserve"
   inkscape:version="1.3.2 (091e20e, 2023-11-25, custom)"
   sodipodi:docname="Clair_flat.svg"
   inkscape:export-filename="..\lib\assets\Clair_flat.png"
   inkscape:export-xdpi="300"
   inkscape:export-ydpi="300"
   xmlns:inkscape="http://www.inkscape.org/namespaces/inkscape"
   xmlns:sodipodi="http://sodipodi.sourceforge.net/DTD/sodipodi-0.dtd"
   xmlns="http://www.w3.org/2000/svg"
   xmlns:svg="http://www.w3.org/2000/svg"><sodipodi:namedview
     id="namedview1"
     pagecolor="#505050"
     bordercolor="#ffffff"
     borderopacity="1"
     inkscape:showpageshadow="0"
     inkscape:pageopacity="0"
     inkscape:pagecheckerboard="1"
     inkscape:deskcolor="#505050"
     inkscape:document-units="mm"
     inkscape:zoom="0.9789084"
     inkscape:cx="-246.1926"
     inkscape:cy="649.19251"
     inkscape:window-width="1644"
     inkscape:window-height="1251"
     inkscape:window-x="0"
     inkscape:window-y="0"
     inkscape:window-maximized="0"
     inkscape:current-layer="layer1" /><defs
     id="defs1" /><g
     inkscape:label="Calque 1"
     inkscape:groupmode="layer"
     id="layer1"><circle
       style="fill:#808080;fill-opacity:0.5;stroke:#5b5b5b;stroke-width:0.771122;stroke-linecap:round;stroke-linejoin:round;stroke-opacity:0.431193;paint-order:markers fill stroke"
       id="path1"
       cx="105"
       cy="148.5"
       r="104.46138"
       inkscape:label="Extérieur" /><circle
       style="fill:#898989;fill-opacity:0.5;stroke:#a4a4a4;stroke-width:1.02013;stroke-linecap:round;stroke-linejoin:round;stroke-dasharray:none;stroke-dashoffset:0;stroke-opacity:0.431193;paint-order:markers fill stroke"
       id="path1-3"
       cx="105"
       cy="148.5"
       inkscape:label="Milieu"
       r="97.932556" /><circle
       style="fill:#ffffff;fill-opacity:1;stroke:#ffffff;stroke-width:2.04025;stroke-linecap:round;stroke-linejoin:round;stroke-dasharray:none;stroke-opacity:0.431193;paint-order:markers fill stroke"
       id="path1-1"
       cx="105"
       cy="148.5"
       inkscape:label="Intérieur"
       r="91.811768" /><path
       sodipodi:type="star"
       style="fill:#cacaca;fill-opacity:1;stroke:#cacaca;stroke-width:5.711;stroke-linecap:round;stroke-linejoin:round;stroke-dasharray:none;stroke-opacity:1;paint-order:markers fill stroke"
       id="path2"
       inkscape:flatsided="false"
       sodipodi:sides="8"
       sodipodi:cx="98.068344"
       sodipodi:cy="148.61372"
       sodipodi:r1="46.775776"
       sodipodi:r2="3.1861436"
       sodipodi:arg1="-0.0059249509"
       sodipodi:arg2="0.38677413"
       inkscape:rounded="0.021"
       inkscape:randomized="0"
       d="m 144.8433,148.33658 c 0.005,0.92082 -43.47683,0.62616 -43.82417,1.47897 -0.34734,0.85281 30.96733,31.02212 30.32007,31.67709 -0.64726,0.65497 -31.18552,-30.3 -32.034152,-29.94258 -0.848635,0.35742 -0.03875,43.83316 -0.959561,43.83862 -0.920816,0.005 -0.626155,-43.47683 -1.478965,-43.82417 -0.85281,-0.34734 -31.022124,30.96733 -31.677096,30.32007 -0.654973,-0.64726 30.300002,-31.18552 29.942581,-32.03415 -0.357421,-0.84864 -43.833162,-0.0387 -43.838618,-0.95956 -0.0055,-0.92082 43.47683,-0.62616 43.82417,-1.47897 0.34734,-0.85281 -30.967329,-31.02212 -30.320072,-31.67709 0.647257,-0.65498 31.185519,30.3 32.034153,29.94258 0.848635,-0.35742 0.03875,-43.83317 0.959562,-43.83862 0.920815,-0.005 0.626154,43.47683 1.478964,43.82417 0.852814,0.34734 31.022124,-30.96733 31.677094,-30.32007 0.65498,0.64725 -30.3,31.18552 -29.94258,32.03415 0.35742,0.84863 43.83316,0.0388 43.83862,0.95956 z"
       inkscape:transform-center-x="1.6146905"
       inkscape:transform-center-y="-2.4744802"
       transform="matrix(1.3502408,0,0,1.3502408,-27.415879,-52.164313)"
       inkscape:label="Rayons" /><path
       style="fill:#ffffff;fill-opacity:1;stroke:none;stroke-width:7.71122;stroke-linecap:round;stroke-linejoin:round;stroke-dasharray:none;stroke-opacity:1;paint-order:markers fill stroke"
       id="path3-2"
       sodipodi:type="arc"
       sodipodi:cx="105"
       sodipodi:cy="148.5"
       sodipodi:rx="38.890648"
       sodipodi:ry="39.380512"
       sodipodi:start="3.7164586"
       sodipodi:end="3.7120873"
       sodipodi:open="true"
       sodipodi:arc-type="arc"
       d="m 72.360433,127.08794 a 38.890648,39.380512 0 0 1 53.749597,-11.66201 38.890648,39.380512 0 0 1 11.57568,54.41384 38.890648,39.380512 0 0 1 -53.724301,11.78094 38.890648,39.380512 0 0 1 -11.693098,-54.38809"
       inkscape:label="Rupture" /><path
       style="fill:#ffffff;fill-opacity:1;stroke:#cacaca;stroke-width:7.71122;stroke-linecap:round;stroke-linejoin:round;stroke-dasharray:none;stroke-opacity:1;paint-order:markers fill stroke"
       id="path3"
       sodipodi:type="arc"
       sodipodi:cx="105.00007"
       sodipodi:cy="148.49992"
       sodipodi:rx="29.179094"
       sodipodi:ry="29.179094"
       sodipodi:start="3.7164586"
       sodipodi:end="3.7120873"
       sodipodi:open="true"
       sodipodi:arc-type="arc"
       d="m 80.51107,132.6346 a 29.179094,29.179094 0 0 1 40.32755,-8.641 29.179094,29.179094 0 0 1 8.68506,40.31809 29.179094,29.179094 0 0 1 -40.308564,8.72911 29.179094,29.179094 0 0 1 -8.773164,-40.299"
       inkscape:label="Coeur" /></g></svg>
