<?xml version="1.0" encoding="UTF-8" standalone="no"?>
<!-- Uploaded to: SVG Repo, www.svgrepo.com, Generator: SVG Repo Mixer Tools -->

<svg
   aria-label="Google CoLaboratory"
   role="img"
   viewBox="0 0 512 512"
   version="1.1"
   id="svg2"
   sodipodi:docname="colaboratory-svgrepo-com.svg"
   inkscape:export-filename="colaboratory.png"
   inkscape:export-xdpi="96"
   inkscape:export-ydpi="96"
   inkscape:version="1.3.2 (091e20e, 2023-11-25, custom)"
   xmlns:inkscape="http://www.inkscape.org/namespaces/inkscape"
   xmlns:sodipodi="http://sodipodi.sourceforge.net/DTD/sodipodi-0.dtd"
   xmlns="http://www.w3.org/2000/svg"
   xmlns:svg="http://www.w3.org/2000/svg">
  <defs
     id="defs2" />
  <sodipodi:namedview
     id="namedview2"
     pagecolor="#ffffff"
     bordercolor="#000000"
     borderopacity="0.25"
     inkscape:showpageshadow="2"
     inkscape:pageopacity="0.0"
     inkscape:pagecheckerboard="0"
     inkscape:deskcolor="#d1d1d1"
     inkscape:zoom="1.5175781"
     inkscape:cx="255.67053"
     inkscape:cy="256"
     inkscape:window-width="2400"
     inkscape:window-height="1261"
     inkscape:window-x="-9"
     inkscape:window-y="-9"
     inkscape:window-maximized="1"
     inkscape:current-layer="svg2" />
  <rect
     width="512"
     height="512"
     rx="15%"
     fill="#ffffff"
     id="rect1"
     style="fill:#ffffff;fill-opacity:0" />
  <path
     style="fill:#ffc107"
     d="m46.7 151.5a147.8 147.8 90 000 208.9L97 310.1a76.6 76.6 90 01-.1-108.3zm368.4 50.3A76.6 76.6 90 01306.7 310.2L256 360.5a147.8 147.8 90 00209.3-209z"
     id="path1" />
  <path
     style="fill:#ffd836"
     d="m96.9 201.8a76.6 76.6 90 01108.4 0l36.5-62.5A147.8 147.8 90 0046.7 151.5zm108.3 108.4a76.6 76.6 90 01-108.4 0l-50.1 50.3a147.8 147.8 90 00195.2 12zm101.1-.1a76.6 76.6 90 11108.4-108.4l50.6-50.2A147.8 147.8 90 00256 360.4z"
     id="path2"
     inkscape:export-filename="..\PNG\colaboratory.png"
     inkscape:export-xdpi="96"
     inkscape:export-ydpi="96" />
</svg>
