<?xml version="1.0" encoding="UTF-8" standalone="no"?>
<!-- Created with Inkscape (http://www.inkscape.org/) -->

<svg
   width="210mm"
   height="297mm"
   viewBox="0 0 210 297"
   version="1.1"
   id="svg1"
   sodipodi:docname="Corbeau_bleu.svg"
   inkscape:version="1.3.2 (091e20e, 2023-11-25, custom)"
   inkscape:export-filename="corbeau.png"
   inkscape:export-xdpi="95.527946"
   inkscape:export-ydpi="95.527946"
   xmlns:inkscape="http://www.inkscape.org/namespaces/inkscape"
   xmlns:sodipodi="http://sodipodi.sourceforge.net/DTD/sodipodi-0.dtd"
   xmlns:xlink="http://www.w3.org/1999/xlink"
   xmlns="http://www.w3.org/2000/svg"
   xmlns:svg="http://www.w3.org/2000/svg">
  <sodipodi:namedview
     id="namedview1"
     pagecolor="#ffffff"
     bordercolor="#000000"
     borderopacity="0.25"
     inkscape:showpageshadow="2"
     inkscape:pageopacity="0.0"
     inkscape:pagecheckerboard="0"
     inkscape:deskcolor="#d1d1d1"
     inkscape:document-units="mm"
     inkscape:zoom="0.2447271"
     inkscape:cx="-46.991118"
     inkscape:cy="954.124"
     inkscape:window-width="1217"
     inkscape:window-height="1251"
     inkscape:window-x="0"
     inkscape:window-y="0"
     inkscape:window-maximized="0"
     inkscape:current-layer="layer4" />
  <defs
     id="defs1">
    <linearGradient
       id="linearGradient26"
       inkscape:collect="always">
      <stop
         style="stop-color:#1d72f1;stop-opacity:1;"
         offset="0.45234185"
         id="stop16" />
      <stop
         style="stop-color:#1d72f1;stop-opacity:0.49803922;"
         offset="0.65163589"
         id="stop17" />
      <stop
         style="stop-color:#1d72f1;stop-opacity:1;"
         offset="0.72939408"
         id="stop24" />
      <stop
         style="stop-color:#1d72f1;stop-opacity:0;"
         offset="0.89144051"
         id="stop25" />
    </linearGradient>
    <linearGradient
       id="linearGradient60"
       inkscape:collect="always">
      <stop
         style="stop-color:#1d72f1;stop-opacity:1;"
         offset="0"
         id="stop55" />
      <stop
         style="stop-color:#1d72f1;stop-opacity:0.49803922;"
         offset="0.13358779"
         id="stop56" />
      <stop
         style="stop-color:#1d72f1;stop-opacity:1;"
         offset="0.23854961"
         id="stop57" />
      <stop
         style="stop-color:#1d72f1;stop-opacity:0.12156863;"
         offset="0.33047077"
         id="stop58" />
      <stop
         style="stop-color:#1d72f1;stop-opacity:1;"
         offset="0.77210557"
         id="stop59" />
      <stop
         style="stop-color:#1d72f1;stop-opacity:0.60425532;"
         offset="1"
         id="stop60" />
    </linearGradient>
    <linearGradient
       id="linearGradient49"
       inkscape:collect="always">
      <stop
         style="stop-color:#1d72f1;stop-opacity:1;"
         offset="0.49618319"
         id="stop50" />
      <stop
         style="stop-color:#1d72f1;stop-opacity:0.49803922;"
         offset="0.77480918"
         id="stop52" />
      <stop
         style="stop-color:#1d72f1;stop-opacity:1;"
         offset="0.90267175"
         id="stop53" />
      <stop
         style="stop-color:#1d72f1;stop-opacity:0;"
         offset="1"
         id="stop51" />
    </linearGradient>
    <linearGradient
       id="linearGradient44"
       inkscape:collect="always">
      <stop
         style="stop-color:#1d72f1;stop-opacity:1;"
         offset="0"
         id="stop39" />
      <stop
         style="stop-color:#1d72f1;stop-opacity:0.49803922;"
         offset="0.07506362"
         id="stop40" />
      <stop
         style="stop-color:#1d72f1;stop-opacity:1;"
         offset="0.24363866"
         id="stop41" />
      <stop
         style="stop-color:#1d72f1;stop-opacity:0.34117647;"
         offset="0.30876273"
         id="stop46" />
      <stop
         style="stop-color:#1d72f1;stop-opacity:1;"
         offset="0.3997694"
         id="stop47" />
      <stop
         style="stop-color:#1d72f1;stop-opacity:0.59574467;"
         offset="0.57122695"
         id="stop48" />
      <stop
         style="stop-color:#1d72f1;stop-opacity:1;"
         offset="0.61497098"
         id="stop49" />
      <stop
         style="stop-color:#1d72f1;stop-opacity:0.12156863;"
         offset="0.80629772"
         id="stop42" />
      <stop
         style="stop-color:#1d72f1;stop-opacity:1;"
         offset="0.87897581"
         id="stop43" />
      <stop
         style="stop-color:#1d72f1;stop-opacity:0;"
         offset="1"
         id="stop44" />
    </linearGradient>
    <linearGradient
       id="linearGradient37"
       inkscape:collect="always">
      <stop
         style="stop-color:#1d72f1;stop-opacity:1;"
         offset="0"
         id="stop32" />
      <stop
         style="stop-color:#1d72f1;stop-opacity:0.49803922;"
         offset="0.14631043"
         id="stop33" />
      <stop
         style="stop-color:#1d72f1;stop-opacity:1;"
         offset="0.43956742"
         id="stop34" />
      <stop
         style="stop-color:#1d72f1;stop-opacity:0.12156863;"
         offset="0.69688296"
         id="stop35" />
      <stop
         style="stop-color:#1d72f1;stop-opacity:1;"
         offset="0.87897581"
         id="stop36" />
      <stop
         style="stop-color:#1d72f1;stop-opacity:0;"
         offset="1"
         id="stop37" />
    </linearGradient>
    <linearGradient
       id="linearGradient23"
       inkscape:collect="always">
      <stop
         style="stop-color:#1d72f1;stop-opacity:1;"
         offset="0"
         id="stop18" />
      <stop
         style="stop-color:#1d72f1;stop-opacity:0.49803922;"
         offset="0.21246819"
         id="stop19" />
      <stop
         style="stop-color:#1d72f1;stop-opacity:1;"
         offset="0.3784987"
         id="stop20" />
      <stop
         style="stop-color:#1d72f1;stop-opacity:0.12156863;"
         offset="0.57474554"
         id="stop21" />
      <stop
         style="stop-color:#1d72f1;stop-opacity:1;"
         offset="0.71867043"
         id="stop22" />
      <stop
         style="stop-color:#1d72f1;stop-opacity:0;"
         offset="1"
         id="stop23" />
    </linearGradient>
    <linearGradient
       id="linearGradient5"
       inkscape:collect="always">
      <stop
         style="stop-color:#1d72f1;stop-opacity:1;"
         offset="0"
         id="stop5" />
      <stop
         style="stop-color:#1d72f1;stop-opacity:0.49803922;"
         offset="0.5"
         id="stop7" />
      <stop
         style="stop-color:#1d72f1;stop-opacity:1;"
         offset="0.75508904"
         id="stop8" />
      <stop
         style="stop-color:#1d72f1;stop-opacity:0.12156863;"
         offset="0.875"
         id="stop9" />
      <stop
         style="stop-color:#1d72f1;stop-opacity:1;"
         offset="0.94004452"
         id="stop10" />
      <stop
         style="stop-color:#1d72f1;stop-opacity:0;"
         offset="1"
         id="stop6" />
    </linearGradient>
    <inkscape:path-effect
       effect="powerclip"
       id="path-effect1380"
       is_visible="true"
       lpeversion="1"
       inverse="true"
       flatten="false"
       hide_clip="false"
       message="Utilise la règle de remplissage « fill-rule: evenodd » de la boîte de dialogue &lt;b&gt;Fond et contour&lt;/b&gt; en l'absence de résultat de mise à plat après une conversion en chemin." />
    <inkscape:path-effect
       effect="powerclip"
       id="path-effect1378"
       is_visible="true"
       lpeversion="1"
       inverse="true"
       flatten="false"
       hide_clip="false"
       message="Utilise la règle de remplissage « fill-rule: evenodd » de la boîte de dialogue &lt;b&gt;Fond et contour&lt;/b&gt; en l'absence de résultat de mise à plat après une conversion en chemin." />
    <linearGradient
       id="linearGradient12"
       inkscape:collect="always">
      <stop
         style="stop-color:#030303;stop-opacity:1;"
         offset="0.35838151"
         id="stop12" />
      <stop
         style="stop-color:#030303;stop-opacity:0;"
         offset="1"
         id="stop13" />
    </linearGradient>
    <radialGradient
       inkscape:collect="always"
       xlink:href="#linearGradient12"
       id="radialGradient13"
       cx="92.031593"
       cy="89.869453"
       fx="92.031593"
       fy="89.869453"
       r="82.140366"
       gradientTransform="matrix(1.5139052,0.00267425,-0.00215507,1.2199939,14.776998,14.27905)"
       gradientUnits="userSpaceOnUse" />
    <filter
       id="mask-powermask-path-effect1378_inverse"
       inkscape:label="filtermask-powermask-path-effect1378"
       style="color-interpolation-filters:sRGB"
       height="100"
       width="100"
       x="-50"
       y="-50">
      <feColorMatrix
         id="mask-powermask-path-effect1378_primitive1"
         values="1"
         type="saturate"
         result="fbSourceGraphic" />
      <feColorMatrix
         id="mask-powermask-path-effect1378_primitive2"
         values="-1 0 0 0 1 0 -1 0 0 1 0 0 -1 0 1 0 0 0 1 0 "
         in="fbSourceGraphic" />
    </filter>
    <clipPath
       clipPathUnits="userSpaceOnUse"
       id="clipPath1378">
      <path
         style="display:none;fill:#ffffff;fill-opacity:1;stroke:url(#radialGradient1378);stroke-width:1.84;stroke-linejoin:round;stroke-dasharray:none"
         d="M 65.408606,31.082731 63.49741,169.65684 229.15439,170.03908 228.93048,31.082731 Z m 68.396344,16.867188 c 10.91368,0.387895 25.70467,15.199582 27.01385,24.756628 0.0236,0.172398 0.0362,0.339376 0.0419,0.503328 4.40081,1.654119 8.53885,3.798112 12.43955,6.374289 10.2068,6.740937 11.59444,20.941566 3.86488,26.918256 -4.77935,3.69553 -10.1098,6.74397 -15.6962,8.97361 -2.10824,13.85484 -17.0089,26.22544 -28.89746,25.74365 -8.78745,-0.35611 -3.93,-13.91181 1.15796,-24.71326 -11.38563,-1.78832 -27.1411,-4.87708 -27.93931,-20.463829 -0.79458,-15.515868 15.25082,-21.053113 25.69244,-23.71558 -3.48901,-11.408458 -9.15898,-23.817165 1.27904,-24.36934 0.3434,-0.01818 0.69129,-0.02027 1.04335,-0.0078 z"
         id="path1378"
         mask="none" />
      <path
         id="lpe_path-effect1378"
         style="display:inline;fill:#ffffff;fill-opacity:1;stroke:url(#radialGradient1378);stroke-width:1.84;stroke-linejoin:round;stroke-dasharray:none"
         class="powerclip"
         d="M 67.806113,41.318316 H 217.56485 V 151.10928 H 67.806113 Z M 65.408606,31.082731 63.49741,169.65684 229.15439,170.03908 228.93048,31.082731 Z m 68.396344,16.867188 v -4.8e-5 c -0.35206,-0.01247 -0.69995,-0.01038 -1.04335,0.0078 -10.43802,0.552175 -4.76805,12.960882 -1.27904,24.36934 -10.44162,2.662467 -26.48702,8.199712 -25.69244,23.71558 0.79821,15.586749 16.55368,18.675509 27.93931,20.463829 -5.08796,10.80145 -9.94541,24.35715 -1.15796,24.71326 11.88856,0.48179 26.78922,-11.88881 28.89746,-25.74365 5.5864,-2.22964 10.91685,-5.27808 15.6962,-8.97361 7.72956,-5.97669 6.34192,-20.177319 -3.86488,-26.918256 -3.9007,-2.576177 -8.03874,-4.72017 -12.43955,-6.374289 -0.006,-0.163952 -0.0183,-0.33093 -0.0419,-0.503328 -1.30918,-9.557046 -16.10017,-24.368733 -27.01385,-24.756628 z" />
    </clipPath>
    <radialGradient
       inkscape:collect="always"
       xlink:href="#linearGradient12"
       id="radialGradient1378"
       gradientUnits="userSpaceOnUse"
       gradientTransform="matrix(1,0,0,0.80585879,54.597379,23.93418)"
       cx="92.031593"
       cy="89.869453"
       fx="92.031593"
       fy="89.869453"
       r="82.140366" />
    <clipPath
       clipPathUnits="userSpaceOnUse"
       id="clipPath1379">
      <path
         id="path1380"
         style="display:none;fill:#ffffff;fill-opacity:1;stroke:url(#radialGradient1380);stroke-width:1.84;stroke-linejoin:round;stroke-dasharray:none"
         d="M 65.408606,31.082731 63.49741,169.65684 229.15439,170.03908 228.93048,31.082731 Z m 68.396344,16.867188 c 10.91368,0.387895 25.70467,15.199582 27.01385,24.756628 0.0236,0.172398 0.0362,0.339376 0.0419,0.503328 4.40081,1.654119 8.53885,3.798112 12.43955,6.374289 10.2068,6.740937 11.59444,20.941566 3.86488,26.918256 -4.77935,3.69553 -10.1098,6.74397 -15.6962,8.97361 -2.10824,13.85484 -17.0089,26.22544 -28.89746,25.74365 -8.78745,-0.35611 -3.93,-13.91181 1.15796,-24.71326 -11.38563,-1.78832 -27.1411,-4.87708 -27.93931,-20.463829 -0.79458,-15.515868 15.25082,-21.053113 25.69244,-23.71558 -3.48901,-11.408458 -9.15898,-23.817165 1.27904,-24.36934 0.3434,-0.01818 0.69129,-0.02027 1.04335,-0.0078 z"
         sodipodi:nodetypes="cccccssccscscscsss" />
      <path
         id="lpe_path-effect1380"
         style="display:inline;fill:#ffffff;fill-opacity:1;stroke:url(#radialGradient1380);stroke-width:1.84;stroke-linejoin:round;stroke-dasharray:none"
         class="powerclip"
         d="M 83.713589,60.499851 H 211.11771 V 140.24541 H 83.713589 Z M 65.408606,31.082731 63.49741,169.65684 229.15439,170.03908 228.93048,31.082731 Z m 68.396344,16.867188 v -4.8e-5 c -0.35206,-0.01247 -0.69995,-0.01038 -1.04335,0.0078 -10.43802,0.552175 -4.76805,12.960882 -1.27904,24.36934 -10.44162,2.662467 -26.48702,8.199712 -25.69244,23.71558 0.79821,15.586749 16.55368,18.675509 27.93931,20.463829 -5.08796,10.80145 -9.94541,24.35715 -1.15796,24.71326 11.88856,0.48179 26.78922,-11.88881 28.89746,-25.74365 5.5864,-2.22964 10.91685,-5.27808 15.6962,-8.97361 7.72956,-5.97669 6.34192,-20.177319 -3.86488,-26.918256 -3.9007,-2.576177 -8.03874,-4.72017 -12.43955,-6.374289 -0.006,-0.163952 -0.0183,-0.33093 -0.0419,-0.503328 -1.30918,-9.557046 -16.10017,-24.368733 -27.01385,-24.756628 z" />
    </clipPath>
    <radialGradient
       inkscape:collect="always"
       xlink:href="#linearGradient12"
       id="radialGradient1380"
       gradientUnits="userSpaceOnUse"
       gradientTransform="matrix(1,0,0,0.80585879,54.597379,23.93418)"
       cx="92.031593"
       cy="89.869453"
       fx="92.031593"
       fy="89.869453"
       r="82.140366" />
    <linearGradient
       inkscape:collect="always"
       xlink:href="#linearGradient5"
       id="linearGradient6"
       x1="90.653406"
       y1="121.45256"
       x2="208.98786"
       y2="121.45256"
       gradientUnits="userSpaceOnUse" />
    <linearGradient
       inkscape:collect="always"
       xlink:href="#linearGradient23"
       id="linearGradient14"
       x1="90.691559"
       y1="121.45747"
       x2="209.00117"
       y2="121.45747"
       gradientUnits="userSpaceOnUse" />
    <linearGradient
       inkscape:collect="always"
       xlink:href="#linearGradient37"
       id="linearGradient25"
       x1="90.655502"
       y1="121.45256"
       x2="209.01395"
       y2="121.45256"
       gradientUnits="userSpaceOnUse" />
    <linearGradient
       inkscape:collect="always"
       xlink:href="#linearGradient44"
       id="linearGradient39"
       x1="72.806114"
       y1="96.213799"
       x2="212.56485"
       y2="96.213799"
       gradientUnits="userSpaceOnUse" />
    <linearGradient
       inkscape:collect="always"
       xlink:href="#linearGradient49"
       id="linearGradient51"
       x1="168.49054"
       y1="97.500832"
       x2="210.5579"
       y2="97.500832"
       gradientUnits="userSpaceOnUse" />
    <linearGradient
       inkscape:collect="always"
       xlink:href="#linearGradient60"
       id="linearGradient55"
       x1="198.59773"
       y1="114.90044"
       x2="240.28014"
       y2="114.90044"
       gradientUnits="userSpaceOnUse" />
    <linearGradient
       inkscape:collect="always"
       xlink:href="#linearGradient23"
       id="linearGradient62"
       x1="66.962746"
       y1="144.97427"
       x2="95.56456"
       y2="144.97427"
       gradientUnits="userSpaceOnUse" />
    <linearGradient
       inkscape:collect="always"
       xlink:href="#linearGradient5"
       id="linearGradient64"
       x1="67.569992"
       y1="101.84834"
       x2="94.680595"
       y2="101.84834"
       gradientUnits="userSpaceOnUse" />
    <linearGradient
       inkscape:collect="always"
       xlink:href="#linearGradient5"
       id="linearGradient2"
       x1="106.23209"
       y1="215.88483"
       x2="119.43383"
       y2="215.88483"
       gradientUnits="userSpaceOnUse" />
    <radialGradient
       inkscape:collect="always"
       xlink:href="#linearGradient5"
       id="radialGradient4"
       cx="112.83296"
       cy="215.88483"
       fx="112.83296"
       fy="215.88483"
       r="6.6008711"
       gradientUnits="userSpaceOnUse" />
    <linearGradient
       inkscape:collect="always"
       xlink:href="#linearGradient5"
       id="linearGradient11"
       x1="53.365536"
       y1="213.75508"
       x2="66.567276"
       y2="213.75508"
       gradientUnits="userSpaceOnUse" />
    <radialGradient
       inkscape:collect="always"
       xlink:href="#linearGradient49"
       id="radialGradient15"
       cx="59.966408"
       cy="213.75508"
       fx="59.966408"
       fy="213.75508"
       r="6.6008711"
       gradientUnits="userSpaceOnUse" />
    <radialGradient
       inkscape:collect="always"
       xlink:href="#linearGradient26"
       id="radialGradient16"
       cx="-3.7033229"
       cy="216.26514"
       fx="-3.7033229"
       fy="216.26514"
       r="6.6008711"
       gradientUnits="userSpaceOnUse" />
  </defs>
  <g
     inkscape:groupmode="layer"
     id="layer2"
     inkscape:label="plumage">
    <path
       style="display:inline;fill:none;fill-opacity:1;stroke:#1d72f1;stroke-width:1.84;stroke-linejoin:round;stroke-dasharray:none;stroke-opacity:1"
       d="m 171.90066,88.923455 c -26.93831,5.675964 -53.87662,11.351925 -80.814932,17.027895 -0.450474,-0.36038 -1.835758,-0.76774 -1.35142,-1.08114 18.770862,-12.145846 60.970652,-23.804956 72.436122,-28.109539 6.72287,-2.524022 13.19888,-5.665399 19.73074,-8.649089 0.77311,-0.35315 2.95904,-1.647362 2.16227,-1.35142 -3.937,1.462315 -7.71935,3.313975 -11.62221,4.865113 -10.1528,4.035086 -20.57831,7.410968 -30.5421,11.892497 -10.69327,4.809635 -21.64473,9.371883 -31.35295,15.94676 -7.49319,5.074758 -13.202238,12.382248 -19.730737,18.649608 -0.234336,0.22496 -0.860988,0.86425 -0.540567,0.81085 0.794866,-0.13248 1.498549,-0.62415 2.162273,-1.08114 4.839364,-3.33202 9.289261,-7.24381 14.325051,-10.27079 80.33833,-44.495081 0.49822,0.65614 55.9488,-32.704377 4.04178,-2.43164 8.30631,-4.472646 12.43307,-6.757101 0.91923,-0.50886 3.60066,-2.16744 2.70284,-1.621705 -10.08747,6.131599 -20.38072,11.935737 -30.27182,18.379315 -11.83086,7.707246 -23.2156,16.078798 -34.86664,24.055288 -0.0743,0.0509 -0.35087,0.0403 -0.27028,0 3.33131,-1.66566 6.0989,-4.34143 9.45994,-5.94625 19.48619,-9.304223 31.17932,-11.667077 53.24596,-17.0279 5.2711,-1.280552 10.62117,-2.21265 15.94676,-3.243408 0.26536,-0.05136 1.04432,-0.136189 0.81085,0 -22.34049,13.031948 -18.13565,9.767808 -47.02943,22.433578 -9.75213,4.27491 -19.41881,8.74402 -29.19067,12.97364 -2.30325,0.99692 -9.15831,4.02874 -7.02739,2.70284 6.16014,-3.83298 12.52152,-7.4128 19.19017,-10.2708 25.53055,-10.941668 17.10456,-3.65621 39.46147,-14.054774 4.76373,-2.215687 7.19728,-4.637651 5.94625,-4.86511 -7.72696,-1.404903 -31.81382,10.931694 -34.59636,12.433064 -5.78376,3.12074 -11.12577,7.01077 -16.48733,10.81137 -1.77014,1.25478 -3.37068,2.75146 -4.86511,4.32454 -0.25585,0.26932 -0.59281,0.89684 -0.27028,1.08114 0.62579,0.35759 1.45093,0.11613 2.16227,0 3.71436,-0.60643 7.39238,-1.41822 11.08164,-2.16227 7.03212,-1.41825 13.99358,-3.2227 21.08216,-4.32455 10.31353,-1.60314 20.75566,-2.27007 31.08267,-3.78398 6.88877,-1.00987 13.70215,-2.48122 20.54159,-3.78398 0.72981,-0.13901 2.86986,-0.76699 2.16227,-0.54056 -13.27478,4.24793 -14.80437,3.78728 -31.89352,10.54108 -7.53771,2.97897 -14.94782,6.30887 -22.16329,10.00051 -4.42956,2.26628 -8.50928,5.16116 -12.70335,7.83824 -0.0759,0.0485 -0.0826,0.3062 0,0.27028 2.10648,-0.91587 4.28088,-1.73646 6.21653,-2.97312 1.34321,-0.85817 2.33871,-2.16635 3.51369,-3.24342 0.98731,-0.90503 1.99166,-1.79147 2.97313,-2.70284 0.72398,-0.67226 1.26993,-1.44581 2.16227,-1.89198"
       id="path12"
       clip-path="url(#clipPath1379)"
       inkscape:path-effect="#path-effect1380"
       inkscape:original-d="m 171.90066,88.923455 c -26.93831,5.675964 -53.87662,11.351925 -80.814932,17.027895 -0.450474,-0.36038 -1.835758,-0.76774 -1.35142,-1.08114 18.770862,-12.145846 60.970652,-23.804956 72.436122,-28.109539 6.72287,-2.524022 13.19888,-5.665399 19.73074,-8.649089 0.77311,-0.35315 2.95904,-1.647362 2.16227,-1.35142 -3.937,1.462315 -7.71935,3.313975 -11.62221,4.865113 -10.1528,4.035086 -20.57831,7.410968 -30.5421,11.892497 -10.69327,4.809635 -21.64473,9.371883 -31.35295,15.94676 -7.49319,5.074758 -13.202238,12.382248 -19.730737,18.649608 -0.234336,0.22496 -0.860988,0.86425 -0.540567,0.81085 0.794866,-0.13248 1.498549,-0.62415 2.162273,-1.08114 4.839364,-3.33202 9.289261,-7.24381 14.325051,-10.27079 80.33833,-44.495081 0.49822,0.65614 55.9488,-32.704377 4.04178,-2.43164 8.30631,-4.472646 12.43307,-6.757101 0.91923,-0.50886 3.60066,-2.16744 2.70284,-1.621705 -10.08747,6.131599 -20.38072,11.935737 -30.27182,18.379315 -11.83086,7.707246 -23.2156,16.078798 -34.86664,24.055288 -0.0743,0.0509 -0.35087,0.0403 -0.27028,0 3.33131,-1.66566 6.0989,-4.34143 9.45994,-5.94625 19.48619,-9.304223 31.17932,-11.667077 53.24596,-17.0279 5.2711,-1.280552 10.62117,-2.21265 15.94676,-3.243408 0.26536,-0.05136 1.04432,-0.136189 0.81085,0 -22.34049,13.031948 -18.13565,9.767808 -47.02943,22.433578 -9.75213,4.27491 -19.41881,8.74402 -29.19067,12.97364 -2.30325,0.99692 -9.15831,4.02874 -7.02739,2.70284 6.16014,-3.83298 12.52152,-7.4128 19.19017,-10.2708 25.53055,-10.941668 17.10456,-3.65621 39.46147,-14.054774 4.76373,-2.215687 7.19728,-4.637651 5.94625,-4.86511 -7.72696,-1.404903 -31.81382,10.931694 -34.59636,12.433064 -5.78376,3.12074 -11.12577,7.01077 -16.48733,10.81137 -1.77014,1.25478 -3.37068,2.75146 -4.86511,4.32454 -0.25585,0.26932 -0.59281,0.89684 -0.27028,1.08114 0.62579,0.35759 1.45093,0.11613 2.16227,0 3.71436,-0.60643 7.39238,-1.41822 11.08164,-2.16227 7.03212,-1.41825 13.99358,-3.2227 21.08216,-4.32455 10.31353,-1.60314 20.75566,-2.27007 31.08267,-3.78398 6.88877,-1.00987 13.70215,-2.48122 20.54159,-3.78398 0.72981,-0.13901 2.86986,-0.76699 2.16227,-0.54056 -13.27478,4.24793 -14.80437,3.78728 -31.89352,10.54108 -7.53771,2.97897 -14.94782,6.30887 -22.16329,10.00051 -4.42956,2.26628 -8.50928,5.16116 -12.70335,7.83824 -0.0759,0.0485 -0.0826,0.3062 0,0.27028 2.10648,-0.91587 4.28088,-1.73646 6.21653,-2.97312 1.34321,-0.85817 2.33871,-2.16635 3.51369,-3.24342 0.98731,-0.90503 1.99166,-1.79147 2.97313,-2.70284 0.72398,-0.67226 1.26993,-1.44581 2.16227,-1.89198"
       transform="matrix(1.5139052,0.00267427,-0.00267427,1.5139052,-67.814265,-22.101047)"
       inkscape:export-filename="..\lib\assets\blue_manga_crow.png"
       inkscape:export-xdpi="95.527946"
       inkscape:export-ydpi="95.527946" />
    <path
       style="display:inline;fill:none;fill-opacity:1;stroke:url(#linearGradient39);stroke-width:1.84;stroke-linejoin:round;stroke-dasharray:none"
       d="m 128.38493,52.164822 c 2.94723,0.297518 5.41363,-1.85792 7.83824,-3.243408 0.50087,-0.286216 1.85571,-1.361297 1.35142,-1.081135 -4.69376,1.150675 -7.66756,4.998447 -11.62222,7.297668 -2.543,1.478489 -5.22685,2.700211 -7.83824,4.054261 -0.17884,0.09273 0.35801,-0.185089 0.54057,-0.270285 1.16894,-0.545505 2.35252,-1.059847 3.51369,-1.621703 1.57736,-0.763238 5.2252,-2.432333 7.02739,-3.783978 0.62002,-0.465013 1.34396,-1.899444 1.89199,-1.35142 0.67721,0.677211 -1.07075,1.669531 -1.89199,2.162273 -4.21768,2.53061 -14.16032,5.113006 1.08113,0.540567 8.29926,-2.489774 2.86219,-0.850688 9.18966,-2.432555 0.0874,-0.02186 -0.18481,-0.02849 -0.27028,0 -1.00042,0.333473 -2.02993,0.609534 -2.97312,1.081135 -0.69321,0.346601 -1.21909,0.966901 -1.89199,1.35142 -2.48477,1.419868 -5.08319,2.634393 -7.56796,4.054261 -0.0782,0.0447 -0.0886,0.286401 0,0.270285 6.64597,-1.208357 13.50327,-5.285158 19.46045,-7.838239 0.16563,-0.07098 0.6905,-0.09995 0.54057,0 -0.93929,0.626192 -2.01398,1.026374 -2.97312,1.621705 -1.91602,1.18925 -6.82718,4.624861 -8.91938,5.946249 -0.34066,0.215154 -1.08113,0.137655 -1.08113,0.54057 0,0.360378 0.72566,0.05925 1.08113,0 3.86252,-0.643752 9.50821,-2.19847 12.70335,-4.594831 0.0721,-0.05406 -0.18481,-0.02849 -0.27028,0 -1.27062,0.423543 -2.55464,0.819817 -3.78398,1.35142 -2.10829,0.911696 -4.12314,2.027722 -6.21653,2.973126 -0.70155,0.316828 -1.47377,0.466601 -2.16227,0.810853 -0.56922,0.284612 2.53603,0.475107 4.59483,0 1.30816,-0.301885 3.39355,-1.873634 0.54057,-1.081138 -1.2091,0.335859 -2.358,0.862473 -3.5137,1.35142 -11.71928,4.958159 3.19377,-1.061281 -6.21653,2.70284 -0.48777,0.195107 -1.87302,0.873446 -1.35142,0.810853 8.68731,-1.042477 11.42215,-2.302465 21.35244,-5.405681 0.92618,-0.28943 1.81947,-0.679603 2.70284,-1.081135 0.11599,-0.05272 0.27028,-0.142872 0.27028,-0.270285 0,-0.324839 -0.5323,0.373438 -0.81085,0.540568 -1.14066,0.6844 -2.33277,1.27966 -3.51369,1.89199 -8.40633,4.358838 -12.7835,6.890411 -21.62273,10.000509 -1.30005,0.457428 -2.69483,0.584279 -4.05426,0.810853 -0.2666,0.04443 -1.04261,0.139059 -0.81085,0 0.66007,-0.396044 1.44067,-0.54283 2.16227,-0.810853 2.43172,-0.903208 4.89902,-1.715161 7.29767,-2.70284 2.19941,-0.90564 4.32547,-1.980073 6.48682,-2.973126 1.17216,-0.538557 2.35992,-1.044816 3.51369,-1.621703 0.46988,-0.234939 0.88155,-0.575915 1.35142,-0.810852 0.0806,-0.04029 0.35291,-0.03592 0.27029,0 -11.48431,4.993177 -3.09199,0.481986 -18.37932,10.000509 -0.82727,0.515093 -1.59691,1.120317 -2.43255,1.621705 -0.0773,0.04635 -0.35394,0.03346 -0.27029,0 2.92451,-1.169802 7.06194,-2.373315 9.73023,-3.243408 5.25835,-1.71468 9.28095,-3.229689 14.86562,-4.594831 0.96667,-0.236296 1.98053,-0.199382 2.97312,-0.270282 0.44933,-0.0321 1.6013,-0.374817 1.35142,0 -0.24987,0.374817 -0.69811,0.573744 -1.08113,0.810853 -13.84694,8.571915 -8.8559,5.888656 -27.02841,12.703349 -3.04158,1.140592 -6.11683,2.189869 -9.18965,3.243408 -0.0852,0.02922 -0.35087,0.04029 -0.27029,0 10.15014,-5.075065 21.17096,-9.882727 32.1638,-12.433067 4.75952,-1.104207 9.73751,-0.828268 14.59534,-1.35142 1.0015,-0.107852 2.97313,-1.547858 2.97313,-0.540568 0,1.054531 -1.99971,0.675548 -2.97313,1.081138 -2.27146,0.946444 -4.42858,2.177301 -6.7571,2.973123 -56.784149,19.407243 -38.66933,18.550514 -73.246977,19.460453 -1.531079,0.04029 -3.076654,0.202422 -4.594829,0 -0.25259,-0.03368 0.310142,-0.431755 0.540569,-0.540568 3.027498,-1.429652 6.067343,-2.845625 9.189657,-4.05426 8.054041,-3.117694 16.00679,-6.598687 24.32557,-8.919374 12.71661,-3.547555 25.73919,-5.893604 38.65061,-8.649092 1.86911,-0.398893 3.7823,-0.552624 5.67597,-0.810852 0.0893,-0.01217 0.36038,0 0.27028,0 -1.76569,0 -0.61764,-0.177983 -2.97312,1.89199 -11.28453,9.916705 -2.14621,2.109031 -13.24392,11.081644 -2.0901,1.68987 -5.10432,2.688532 -6.21653,5.135399 -0.73436,1.61559 3.20344,-1.539148 4.86511,-2.162273 3.38801,-1.270505 6.78827,-2.531441 10.27079,-3.513693 3.55518,-1.002742 7.19299,-1.689497 10.81137,-2.432556 24.1758,-4.964673 12.19942,-2.136502 28.37982,-5.675966 0.088,-0.01926 -0.18663,-0.03346 -0.27028,0 -1.27413,0.509654 -2.54345,1.034971 -3.78398,1.621706 -5.42752,2.567069 -10.74989,5.356693 -16.21704,7.838236 -24.75549,11.236534 -19.86478,9.351825 -47.29971,15.94676 -0.88036,0.211624 -1.80007,0.20084 -2.70284,0.270285 -0.26949,0.02072 -0.61973,0.191119 -0.81085,0 -0.14245,-0.142454 0.36281,-0.175482 0.54056,-0.270285 1.17374,-0.625991 2.35681,-1.235379 3.5137,-1.891988 6.59897,-3.745365 13.30245,-7.320632 19.73073,-11.351932 1.02688,-0.643974 1.80596,-1.61721 2.70284,-2.432555 0.0943,-0.08571 0.36038,-0.180189 0.27029,-0.270285 -0.12741,-0.127413 -0.36798,-0.05178 -0.54057,0 -0.73731,0.221192 -1.48039,0.453673 -2.16227,0.810853 -9.99832,5.237215 6.44479,-1.77451 -11.8925,7.027386 -3.86127,1.853409 -7.87746,3.37381 -11.8925,4.865113 -2.29748,0.853347 -4.67373,1.478952 -7.02738,2.16227 -0.44118,0.128085 -1.75537,0.489088 -1.35142,0.270285 2.55106,-1.381826 5.2367,-2.499677 7.83823,-3.783975 4.51611,-2.229472 8.87864,-4.788011 13.5142,-6.757101 5.56145,-2.362385 11.38039,-4.068024 17.0279,-6.216534 2.64281,-1.005416 5.26887,-2.062887 7.83824,-3.24341 0.77233,-0.354854 1.4161,-0.94442 2.16227,-1.351421 0.25012,-0.136427 0.81085,0.01463 0.81085,-0.270282 0,-0.270285 -0.56153,-0.104368 -0.81085,0 -3.64536,1.525963 -7.31068,3.031421 -10.81136,4.865113 -5.96914,3.12669 -11.63796,6.801157 -17.56847,10.000509 -0.71976,0.388298 -4.3335,1.621706 -5.40568,1.621706 -0.18019,0 -0.14142,-0.428916 0,-0.540571 1.62796,-1.285224 3.34763,-2.462064 5.1354,-3.51369 10.10576,-5.944568 13.21227,-6.354651 25.94727,-11.351932 1.35494,-0.531685 2.73529,-1.006184 4.05426,-1.621705 0.0816,-0.0381 0.075,-0.32026 0,-0.270283 -1.12445,0.749634 -2.15361,1.633376 -3.24341,2.432556 -9.39233,6.887712 -17.11593,12.714652 -28.10954,18.109033 -7.84016,3.847036 -16.13441,6.701566 -24.32557,9.730226 -2.542125,0.93995 -5.223396,1.44913 -7.838231,2.16227 -0.358381,0.0978 -0.709668,0.27029 -1.081138,0.27029 -0.201456,0 0.36935,-0.16413 0.54057,-0.27029 4.334256,-2.68724 8.528849,-5.60833 12.973639,-8.108521 7.09505,-3.990967 14.31461,-7.765962 21.62272,-11.351929 10.91857,-5.357559 23.08389,-9.831551 33.78551,-15.94676 0.0782,-0.0447 -0.18664,-0.03346 -0.27029,0 -0.82386,0.329546 -1.65357,0.656238 -2.43255,1.081138 -3.18838,1.739108 -6.25887,3.690069 -9.45995,5.40568 -10.58495,5.672979 -21.169,11.353128 -31.89352,16.757611 -0.74176,0.373806 -2.8303,1.269777 -2.43255,0.540567 0.85634,-1.569963 2.73361,-2.307876 4.05426,-3.51369 6.22775,-5.686208 9.8479,-8.779703 18.6496,-12.703352 3.15392,-1.405965 6.62621,-1.969299 10.00051,-2.702841 0.79234,-0.172249 1.70731,-0.362625 2.43255,0 0.34189,0.170942 -0.50665,0.579398 -0.81085,0.810853 -3.84314,2.92413 -7.66963,5.874678 -11.62221,8.649089 -10.08224,7.076958 -20.81691,14.957395 -32.70437,18.919885 -0.19112,0.0637 0.36102,-0.17891 0.54057,-0.27028 9.91106,-5.044029 19.19635,-11.57397 29.73124,-15.135912 18.22494,-23.654687 45.49081,-11.39916 68.11158,-17.568463 0.17385,-0.04741 -0.3688,-0.05446 -0.54056,0 -3.53054,1.119436 -7.07114,2.218573 -10.54108,3.513693 -9.3265,3.481017 -18.54124,7.254975 -27.83926,10.811362 -22.16089,8.476287 -44.40536,16.73064 -66.489878,25.4067 -0.08385,0.0329 0.186092,0.0321 0.270285,0 5.597373,-2.13233 11.141603,-4.40406 16.757613,-6.48682 7.98925,-2.9629 16.01822,-5.818423 24.05528,-8.649086 21.11112,-7.435361 13.10741,-3.25574 25.4067,-10.000509 0.63689,-0.349263 1.34049,-0.608425 1.89199,-1.081138 0.13681,-0.117266 0.14662,-0.6453 0,-0.540568 -0.72576,0.518401 -1.22203,1.303237 -1.89199,1.891988 -7.76216,6.821297 -13.73575,11.370556 -22.97414,17.568463 -1.67297,1.12237 -3.60379,1.8019 -5.40568,2.70284 -0.18019,0.0901 -0.66642,0.4276 -0.54057,0.27029 1.7294,-2.16175 7.25423,-8.16916 8.91937,-9.730231 2.5166,-2.359308 5.25033,-4.476234 7.83824,-6.757101 2.72798,-2.404324 5.53727,-4.726416 8.10852,-7.297669 0.60101,-0.601006 1.05298,-1.366438 1.35142,-2.162273 0.0633,-0.168716 -0.38526,-0.09136 -0.54057,0 -4.46165,2.624503 -8.89164,5.30637 -13.24392,8.108522 -10.29577,6.628786 -3.46512,3.747418 -17.02789,10.811362 -0.7367,0.3837 -1.62673,0.33911 -2.43256,0.54057 -0.2764,0.0691 -0.60939,0.47174 -0.81085,0.27028 -0.18019,-0.18019 0.3656,-0.3553 0.54057,-0.54057 2.88832,-3.058222 5.12374,-6.894632 8.64909,-9.189655 10.0333,-6.531747 20.94762,-11.60921 31.62323,-17.027895 1.24719,-0.633039 2.70091,-0.728085 4.05426,-1.081135 0.71888,-0.187534 2.57438,-1.158732 2.16227,-0.540567 -1.23733,1.856004 -3.16639,3.149107 -4.86511,4.594828 -10.84775,9.232132 -19.00755,13.828323 -33.51522,21.082156 -7.22782,3.613908 -14.79555,6.551068 -22.43358,9.189658 -2.32432,0.80295 -4.85878,0.76644 -7.29767,1.08114 -0.35741,0.0461 -1.36325,0.22424 -1.08113,0 9.56777,-7.60516 17.69499,-12.332098 28.65011,-18.37932 5.50324,-3.037789 11.17174,-5.766059 16.75761,-8.649088 2.79293,-1.441517 5.596,-2.863573 8.3788,-4.324546 0.82128,-0.431171 1.58492,-0.974693 2.43256,-1.35142 0.0823,-0.03659 0.0335,0.186631 0,0.270285 -0.50965,1.27413 -0.79617,2.687777 -1.6217,3.783975 -4.69814,6.238513 -9.67273,12.27591 -14.86563,18.109033 -1.40365,1.576708 -3.15197,2.820801 -4.86511,4.054261 -0.55683,0.40092 -1.21917,0.94541 -1.89199,0.81085 -0.39509,-0.079 0.25566,-0.79623 0.54057,-1.08113 2.34419,-2.3442 4.75087,-4.634772 7.29767,-6.757106 8.38818,-6.990154 11.46264,-8.722895 20.2713,-14.59534 1.35142,-0.900946 2.6242,-1.932805 4.05426,-2.702841 0.28602,-0.154006 -0.29183,0.601917 -0.54056,0.810853 -2.01482,1.692444 -4.13311,3.257894 -6.21654,4.865113 -4.22327,3.257952 -8.30583,6.711593 -12.70335,9.730227 -16.05846,11.023184 -15.21186,10.635734 -29.19068,16.487334 -0.52561,0.22002 -1.05189,0.54056 -1.6217,0.54056 -0.20146,0 0.11508,-0.41212 0.27028,-0.54056 2.47157,-2.04544 5.129,-3.86205 7.56796,-5.94626 1.84735,-1.57864 9.42907,-8.908693 12.16278,-11.081644 1.82012,-1.446761 3.78909,-2.69571 5.67596,-4.054261 0.85266,-0.613913 2.95767,-2.641007 2.70284,-1.621703 -0.65906,2.63625 -5.60067,9.48509 -7.02738,11.081647 -2.16535,2.423131 -4.66297,4.527791 -7.02739,6.757101 -0.78935,0.74424 -1.62616,1.43652 -2.43255,2.16227 -0.0947,0.0852 -0.35671,0.36391 -0.27029,0.27029 2.72537,-2.95249 5.21959,-6.12674 8.10853,-8.919378 2.5981,-2.511499 12.01145,-8.122613 12.97363,-8.649089 1.52645,-0.835229 3.22986,-1.29735 4.86511,-1.891988 0.34911,-0.12695 0.71688,-0.343135 1.08114,-0.270285 0.19755,0.03951 0.40563,0.391345 0.27028,0.540567 -3.46698,3.822573 -7.02572,7.574368 -10.81136,11.081647 -7.56749,7.011056 -20.32841,13.864786 -28.10954,18.109036 -0.97834,0.53364 -2.14196,0.6414 -3.24341,0.81085 -0.12593,0.0194 -0.34923,-0.17028 -0.27028,-0.27028 3.06267,-3.87939 7.65783,-8.42724 11.62221,-11.08165 7.7294,-5.17534 15.70552,-9.985581 23.785,-14.595342 12.8949,-7.357216 26.82324,-17.693828 17.29818,-5.946248 -6.30416,7.775125 -15.53594,16.84931 -23.24443,22.70386 -2.92849,2.22418 -6.2173,3.94153 -9.45994,5.67597 -0.65512,0.35041 -1.41934,0.54057 -2.16228,0.54057 -0.18018,0 -0.11256,-0.39987 0,-0.54057 1.35545,-1.6943 2.82816,-3.2939 4.32455,-4.86511 2.10891,-2.21436 4.06492,-4.61994 6.48682,-6.48682 19.39803,-14.952657 15.80152,-11.530885 35.13693,-20.811878 1.56234,-0.749925 3.0799,-1.590935 4.59482,-2.432556 0.11138,-0.06188 0.35259,-0.367548 0.27029,-0.270285 -7.65579,9.047747 -19.01811,19.847367 -28.10954,26.217559 -7.07451,4.95696 -14.91678,8.71713 -22.43358,12.97363 -0.0784,0.0444 -0.0586,-0.20188 0,-0.27028 1.03732,-1.21021 2.11632,-2.38661 3.24341,-3.51369 1.39719,-1.3972 2.92735,-2.65707 4.32454,-4.05426 6.4559,-6.4559 3.5365,-4.54366 10.00051,-9.18966 1.31888,-0.94795 2.63445,-1.914062 4.05426,-2.702846 1.02384,-0.568801 2.17998,-0.860607 3.24341,-1.35142 0.11569,-0.05339 0.362,-0.358727 0.27029,-0.270285 -11.43216,11.023861 -6.09148,6.253281 -21.35244,18.919891 -5.52178,4.58307 -10.78685,9.53369 -16.75762,13.5142 -0.075,0.05 -0.0624,-0.20529 0,-0.27029 2.11771,-2.20594 4.09622,-4.58002 6.48682,-6.48681 12.84955,-10.24904 14.97092,-10.88615 27.56898,-18.10904 10.47674,-6.006663 5.71305,-3.53223 12.70335,-7.027381 0.36037,-0.180192 1.30865,-0.873098 1.08113,-0.54057 -1.85441,2.710291 -9.03104,10.786091 -10.81136,12.703351 -2.55797,2.75474 -5.07987,5.55448 -7.83824,8.10853 -2.11648,1.95971 -4.44061,3.68699 -6.7571,5.40568 -0.52675,0.39081 -2.06457,1.17335 -1.89199,0.54056 0.90753,-3.32761 2.84359,-5.33057 5.1354,-8.10852 5.31612,-6.44378 8.46094,-8.86401 15.94676,-14.59534 1.9643,-1.503919 4.09517,-2.781441 6.21653,-4.054261 1.03649,-0.621895 3.24341,-2.830452 3.24341,-1.621703 0,1.670638 -4.6554,7.770444 -6.21653,9.189654 -17.91078,16.28253 -19.24282,20.0674 -37.83977,27.83927 -1.25795,0.5257 -2.69922,0.39 -4.05426,0.54056 -0.26863,0.0298 -0.7366,0.25989 -0.81085,0 -0.69665,-2.43825 3.87517,-6.14604 4.32454,-6.48682 9.22156,-6.99301 18.54675,-13.89773 28.37983,-20.00102 3.29779,-2.0469 7.18669,-2.93637 10.81136,-4.32454 0.61252,-0.23458 1.25567,-0.38149 1.89199,-0.54057 0.0874,-0.0219 0.32195,-0.0738 0.27028,0 -5.65488,8.07841 -19.83835,18.99275 -27.56897,24.05528 -4.99274,3.26958 -10.4635,5.7435 -15.67648,8.64909 -0.28374,0.15816 -1.05581,0.75392 -0.81085,0.54057 3.03603,-2.64429 5.89706,-5.52122 9.18966,-7.83824 8.20648,-5.77493 27.89793,-15.49458 34.86664,-18.91988 8.19309,-4.02712 7.2745,-2.5973 11.8925,-5.67597 0.16762,-0.11175 -0.39499,0.13103 -0.54057,0.27029 -1.93355,1.84948 -3.82143,3.74725 -5.67596,5.67596 -10.93115,11.3684 -7.65342,9.34895 -23.24443,21.62273 -3.16111,2.48853 -6.03862,6.05794 -10.00051,6.7571 -2.63795,0.46552 3.5812,-3.98494 5.40568,-5.94625 1.77955,-1.91302 3.45115,-3.94211 5.40568,-5.67597 5.77417,-5.12224 13.47893,-10.9437 20.00102,-15.40619 2.207,-1.51005 4.19572,-5.09296 6.7571,-4.32454 2.08898,0.62669 -2.57707,3.53087 -4.05426,5.1354 -5.28752,5.74334 -14.05034,14.85356 -20.81187,19.73073 -2.25689,1.62792 -4.78408,2.86031 -7.29767,4.05426 -5.41602,2.57261 -4.83043,-0.0905 -2.16227,-4.86511 1.2715,-2.27532 6.3927,-7.33395 7.83823,-8.91937 3.39453,-3.72303 2.62579,-3.51383 5.40569,-5.67597 0.25641,-0.19943 0.96372,-0.82719 0.81085,-0.54057 -0.85849,1.60966 -1.7675,3.22573 -2.97313,4.59483 -7.48421,8.49902 -12.98478,14.34457 -21.89301,20.54159 -1.05893,0.73665 -2.35991,1.04482 -3.51369,1.6217 -0.11396,0.057 -0.27028,0.3977 -0.27028,0.27029 0,-1.68262 3.18956,-6.03756 3.78397,-6.7571 2.47798,-2.99966 4.83577,-6.17453 7.83824,-8.64909 14.1242,-11.64083 20.94162,-13.75923 37.83977,-21.62273 2.04861,-0.95331 4.13967,-1.81275 6.21653,-2.70284 0.44595,-0.19112 1.65628,-0.91801 1.35142,-0.54057 -13.18861,16.32876 -34.38003,29.4577 -50.27283,40.27233 -2.36718,1.6108 -5.16806,2.48007 -7.83824,3.51369 -0.18787,0.0727 -0.63259,-0.0911 -0.54057,-0.27028 2.52661,-4.92023 10.2367,-17.39496 13.51421,-21.08216 5.62929,-6.33296 11.88801,-12.08598 18.10903,-17.83875 2.16979,-2.00647 4.71966,-3.5595 7.02738,-5.40568 0.39798,-0.31838 1.40387,-1.475587 1.08114,-1.081138 -4.07733,4.983398 -3.89524,4.348088 -9.18966,9.459948 -3.34595,3.23057 -6.48579,6.68413 -10.00051,9.73022 -3.25451,2.82058 -6.77732,5.31969 -10.27079,7.83824 -0.39356,0.28373 -0.86625,0.54057 -1.35142,0.54057 -0.25483,0 0.36038,-0.36038 0.54057,-0.54057 2.25236,-2.25237 4.33614,-4.68701 6.7571,-6.7571 13.07151,-11.17709 19.67424,-14.13512 37.02891,-22.974149 36.56124,-18.62125 5.81587,-1.567304 25.94727,-12.162782 0.92976,-0.489349 1.78046,-1.118586 2.70284,-1.621705 0.0791,-0.04314 0.33454,-0.06315 0.27029,0 -15.82823,15.55533 -21.49133,21.366386 -41.08318,35.407216 -7.53741,5.40181 -15.41181,10.35618 -23.51471,14.86562 -2.31536,1.28855 -5.01156,1.73536 -7.56796,2.43256 -0.4346,0.11853 -1.19747,0.42335 -1.35142,0 -1.06161,-2.91944 3.90161,-9.16632 4.32455,-9.73023 2.93677,-3.91569 11.50202,-11.05942 14.32505,-13.24392 4.29061,-3.32011 8.78339,-6.37188 13.24392,-9.45994 1.39765,-0.9676 2.86105,-1.83805 4.32455,-2.70284 0.52032,-0.30746 1.02906,-0.692325 1.6217,-0.810853 0.19755,-0.03951 -0.13235,0.393733 -0.27028,0.540563 -2.66108,2.83276 -5.38469,5.60634 -8.10852,8.37881 -8.50449,8.65636 -9.82606,9.83738 -20.81188,19.19017 -2.00357,1.70574 -4.06462,3.35081 -6.21653,4.86512 -0.30379,0.21377 -1.15399,0.63453 -1.08114,0.27028 0.77322,-3.86608 4.47299,-7.89055 7.02739,-10.2708 21.46921,-20.0054 16.74048,-14.73765 42.97516,-31.352949 2.74432,-1.73807 5.38126,-3.640979 8.10853,-5.405681 0.33827,-0.218885 0.67822,-0.540568 1.08113,-0.540568 0.32484,0 -0.55522,0.34013 -0.81085,0.540568 -7.67348,6.016709 -14.74996,12.87014 -22.97415,18.10903 -17.15358,10.92702 -35.21297,20.36569 -52.97567,30.27182 -0.9953,0.55507 -2.11525,0.91997 -3.24341,1.08114 -0.25226,0.036 -0.68038,-0.32753 -0.54057,-0.54057 4.33227,-6.60155 8.45388,-10.61615 14.05477,-16.21705 7.76002,-7.76002 8.32396,-8.38424 17.29818,-14.86562 1.74223,-1.25828 3.6569,-2.26456 5.40568,-3.5137 0.16394,-0.11709 0.41072,-0.685007 0.27029,-0.540563 -3.28743,3.381353 -6.22232,7.118763 -9.73023,10.270793 -6.31484,5.67421 -18.61549,12.22422 -25.13642,15.67648 -0.6566,0.34761 -1.44151,0.72076 -2.16227,0.54057 -0.34962,-0.0874 -0.2035,-0.78372 0,-1.08114 2.17755,-3.18257 4.01207,-6.78584 7.02739,-9.18966 9.98501,-7.96008 20.36643,-15.5938 31.62323,-21.622724 12.92125,-6.92037 27.05182,-11.296512 40.54261,-17.027895 0.29898,-0.127019 1.0604,-0.748528 0.81085,-0.54057 -2.95109,2.459241 -5.97189,4.834104 -8.91937,7.297671 -10.65103,8.902351 -13.02571,11.912444 -26.75812,20.271308 -4.26826,2.59807 -8.92608,4.50762 -13.51421,6.48682 -0.81475,0.35146 0.46286,-1.7961 1.08114,-2.43256 6.08591,-6.26491 11.75058,-11.292183 18.91989,-16.487332 2.38973,-1.731692 5.08339,-3.002163 7.56795,-4.594828 1.03165,-0.661318 3.68539,-3.159437 2.97313,-2.162273 -3.01471,4.220588 -6.78642,7.037184 -11.08165,9.730227 -26.82471,16.818666 -20.98274,15.170376 -42.97517,22.974146 -0.78281,0.27777 -1.60192,0.54057 -2.43255,0.54057 -0.25483,0 0.37472,-0.34709 0.54056,-0.54057 1.45641,-1.69914 2.79759,-3.49936 4.32455,-5.1354 5.54431,-5.94033 8.69977,-8.70332 15.13591,-13.784486 2.37602,-1.875808 4.88373,-3.578918 7.29766,-5.405681 0.92003,-0.696237 3.71574,-2.714759 2.70285,-2.162272 -10.68497,5.828162 -6.72536,4.503446 -16.21705,11.622219 -4.59988,3.44991 -9.13577,7.02322 -14.05477,10.00051 -1.97561,1.19576 -4.30293,1.68184 -6.48682,2.43255 -0.70258,0.24152 -1.42507,0.63272 -2.16227,0.54057 -0.2682,-0.0335 -0.12087,-0.5691 0,-0.81085 0.88458,-1.76916 1.49767,-3.81803 2.97313,-5.1354 17.20795,-15.364242 18.25277,-14.479869 37.2992,-23.514713 1.16548,-0.552855 4.12526,-2.757477 3.51369,-1.621705 -1.17831,2.1883 -3.56269,3.467928 -5.40568,5.135398 -4.17507,3.777438 -8.84771,7.808222 -13.78449,10.54108 -2.29807,1.27215 -4.85287,2.01267 -7.29767,2.97312 -0.0839,0.0329 -0.29877,0.0855 -0.27028,0 3.16574,-9.497227 12.05646,-16.056065 20.00102,-21.352438 2.75228,-1.834857 5.7478,-3.276309 8.64909,-4.865111 0.88349,-0.483817 1.75968,-0.997739 2.70284,-1.35142 0.2386,-0.08948 -0.34949,0.371967 -0.54057,0.540567 -1.34096,1.183196 -2.58462,2.494738 -4.05426,3.513693 -5.29836,3.673528 -10.52377,7.515508 -16.21704,10.541077 -10.10765,5.371491 -20.55935,10.092332 -31.08267,14.595342 -19.693079,8.42681 -21.072703,9.7139 -36.758632,11.8925 -0.08924,0.0124 -0.0695,-0.21295 0,-0.27028 3.559965,-2.93698 6.893154,-6.21049 10.811362,-8.64909 24.26648,-15.102921 31.426,-16.471311 57.02994,-29.190686 4.00214,-1.988159 10.92138,-5.231667 15.1359,-8.919374 0.21441,-0.187611 -0.59908,0.07969 -0.81085,0.270285 -0.75764,0.681879 -1.4294,1.453832 -2.16227,2.162273 -1.97012,1.904444 -3.79787,3.97516 -5.94625,5.675963 -4.35215,3.445452 -8.93424,6.593946 -13.5142,9.730226 -3.7116,2.541633 -7.56304,4.872779 -11.35193,7.297669 -0.71589,0.458171 -1.48232,1.861391 -2.16228,1.35142 -0.64466,-0.483497 0.52385,-1.580213 1.08114,-2.16227 3.52571,-3.682412 7.05533,-7.413844 11.08164,-10.541079 5.28888,-4.107863 11.09059,-7.513519 16.75762,-11.081647 4.06658,-2.560444 8.29892,-4.847804 12.43306,-7.297669 0.73121,-0.433308 1.49858,-0.820459 2.16228,-1.35142 0.22247,-0.17798 -0.56437,0.127394 -0.81086,0.270283 -5.97535,3.463972 -11.92792,6.968117 -17.83874,10.541079 -6.16245,3.725058 -12.18996,7.671771 -18.37932,11.351932 -3.81346,2.26746 -7.73085,4.35583 -11.62221,6.486816 -0.11176,0.0612 0.21756,-0.154292 0.27028,-0.270285 0.40153,-0.883373 0.64718,-1.834933 1.08114,-2.702841 0.73965,-1.479309 1.31654,-3.103904 2.43255,-4.324543 4.0609,-4.441603 7.63673,-6.277602 13.24392,-8.108521 2.01583,-0.658233 4.10271,-1.182315 6.21654,-1.35142 0.3238,-0.0259 0.79553,0.609565 0.54056,0.81085 -1.71034,1.350266 -3.8013,2.132499 -5.67596,3.24341 -10.24021,6.068272 -10.80139,6.964299 -22.97415,12.973635 -2.35531,1.162748 -4.82912,2.075471 -7.29767,2.973123 -0.51503,0.187285 -1.73653,0.806145 -1.6217,0.270285 0.64189,-2.995515 6.13035,-7.999312 7.83824,-9.189659 3.94244,-2.747759 8.10899,-5.201148 12.43306,-7.297669 10.56071,-5.120341 21.45945,-9.512244 32.16381,-14.325055 0.9187,-0.413059 1.99058,-0.639159 2.70284,-1.35142 0.54431,-0.544309 -1.49182,0.432647 -2.16228,0.810853 -2.85313,1.60946 -5.51402,3.546747 -8.3788,5.135396 -7.04946,3.909245 -14.23496,7.567953 -21.35244,11.351932 -7.11748,3.783975 -14.10087,7.831748 -21.35244,11.351929 -2.05042,0.995346 -4.303707,2.817206 -6.486818,2.162273 -1.536441,-0.460934 2.500704,-2.010672 3.783978,-2.973126 3.04173,-2.281298 5.9369,-4.788328 9.18966,-6.757101 23.87759,-14.452227 16.15352,-8.151185 36.48834,-19.730736 1.62913,-0.927698 3.12337,-2.081731 4.59483,-3.243408 0.25496,-0.201287 0.74349,-1.064511 0.54057,-0.810852 -1.28342,1.604274 -2.38045,3.364788 -3.78398,4.865113 -3.8299,4.09403 -7.8594,7.998479 -11.89249,11.892497 -1.19512,1.153906 -2.42835,2.283169 -3.78398,3.243411 -2.97731,2.108927 -7.63612,9.247531 -9.18966,5.946248 -1.79811,-3.820988 4.42326,-7.216667 7.02738,-10.541079 1.64999,-2.106367 3.80208,-3.766045 5.67597,-5.675964 4.03867,-4.116334 12.12715,-14.204129 18.6496,-15.135907 0.0892,-0.01275 0.0254,0.183848 0,0.270282 -0.42615,1.448896 -0.52136,3.062846 -1.35142,4.324546 -1.47226,2.237838 -3.51155,4.052118 -5.40568,5.946249 -4.10361,4.103605 -5.83518,4.331422 -12.43307,6.216533 -0.71435,0.204102 -0.72964,-1.443794 -0.54057,-2.162273 0.31936,-1.213556 0.64831,-2.474301 1.35143,-3.51369 3.51479,-5.195787 9.91635,-10.241844 14.32505,-14.054773 0.15237,-0.131783 0.58008,-0.467828 0.54057,-0.270285 -0.65726,3.286297 -2.69872,5.507498 -5.1354,7.838239 -7.66564,7.332356 -9.36253,8.422492 -20.00102,11.351929 -2.27339,0.626007 -4.87,1.762639 -7.02739,0.810853 -5.61734,-2.478241 -0.11081,-8.405347 1.35142,-10.000509 4.47274,-4.879348 11.03014,-8.037118 16.75762,-10.811362 1.89811,-0.9194 3.92408,-1.563113 5.94625,-2.162273 0.43191,-0.127973 1.3922,-0.448624 1.35142,0 -0.10221,1.124247 -0.94002,2.073302 -1.62171,2.973123 -1.58147,2.087547 -3.15452,4.233058 -5.13539,5.946251 -1.40318,1.213559 -3.19151,1.902421 -4.86512,2.702841 -0.41443,0.198207 -0.89827,0.19476 -1.35142,0.270282 -0.0889,0.01482 -0.31839,0.07618 -0.27028,0 3.13702,-4.966946 3.62726,-5.261906 7.29767,-9.730224 0.81277,-0.989465 1.65472,-1.955961 2.43255,-2.973125 0.39465,-0.516081 0.66522,-1.122606 1.08114,-1.621706 0.0577,-0.06921 0.28023,-0.08954 0.27028,0 -0.3504,3.153627 -2.35083,6.652512 -3.51369,9.189659 0,-0.838631 -0.0285,0.71151 0.27029,-1.081135 0.0469,-0.281268 0.27028,-1.357405 0.27028,-1.621705"
       id="path8"
       mask="none"
       clip-path="url(#clipPath1378)"
       inkscape:path-effect="#path-effect1378"
       inkscape:original-d="m 128.38493,52.164822 c 2.94723,0.297518 5.41363,-1.85792 7.83824,-3.243408 0.50087,-0.286216 1.85571,-1.361297 1.35142,-1.081135 -4.69376,1.150675 -7.66756,4.998447 -11.62222,7.297668 -2.543,1.478489 -5.22685,2.700211 -7.83824,4.054261 -0.17884,0.09273 0.35801,-0.185089 0.54057,-0.270285 1.16894,-0.545505 2.35252,-1.059847 3.51369,-1.621703 1.57736,-0.763238 5.2252,-2.432333 7.02739,-3.783978 0.62002,-0.465013 1.34396,-1.899444 1.89199,-1.35142 0.67721,0.677211 -1.07075,1.669531 -1.89199,2.162273 -4.21768,2.53061 -14.16032,5.113006 1.08113,0.540567 8.29926,-2.489774 2.86219,-0.850688 9.18966,-2.432555 0.0874,-0.02186 -0.18481,-0.02849 -0.27028,0 -1.00042,0.333473 -2.02993,0.609534 -2.97312,1.081135 -0.69321,0.346601 -1.21909,0.966901 -1.89199,1.35142 -2.48477,1.419868 -5.08319,2.634393 -7.56796,4.054261 -0.0782,0.0447 -0.0886,0.286401 0,0.270285 6.64597,-1.208357 13.50327,-5.285158 19.46045,-7.838239 0.16563,-0.07098 0.6905,-0.09995 0.54057,0 -0.93929,0.626192 -2.01398,1.026374 -2.97312,1.621705 -1.91602,1.18925 -6.82718,4.624861 -8.91938,5.946249 -0.34066,0.215154 -1.08113,0.137655 -1.08113,0.54057 0,0.360378 0.72566,0.05925 1.08113,0 3.86252,-0.643752 9.50821,-2.19847 12.70335,-4.594831 0.0721,-0.05406 -0.18481,-0.02849 -0.27028,0 -1.27062,0.423543 -2.55464,0.819817 -3.78398,1.35142 -2.10829,0.911696 -4.12314,2.027722 -6.21653,2.973126 -0.70155,0.316828 -1.47377,0.466601 -2.16227,0.810853 -0.56922,0.284612 2.53603,0.475107 4.59483,0 1.30816,-0.301885 3.39355,-1.873634 0.54057,-1.081138 -1.2091,0.335859 -2.358,0.862473 -3.5137,1.35142 -11.71928,4.958159 3.19377,-1.061281 -6.21653,2.70284 -0.48777,0.195107 -1.87302,0.873446 -1.35142,0.810853 8.68731,-1.042477 11.42215,-2.302465 21.35244,-5.405681 0.92618,-0.28943 1.81947,-0.679603 2.70284,-1.081135 0.11599,-0.05272 0.27028,-0.142872 0.27028,-0.270285 0,-0.324839 -0.5323,0.373438 -0.81085,0.540568 -1.14066,0.6844 -2.33277,1.27966 -3.51369,1.89199 -8.40633,4.358838 -12.7835,6.890411 -21.62273,10.000509 -1.30005,0.457428 -2.69483,0.584279 -4.05426,0.810853 -0.2666,0.04443 -1.04261,0.139059 -0.81085,0 0.66007,-0.396044 1.44067,-0.54283 2.16227,-0.810853 2.43172,-0.903208 4.89902,-1.715161 7.29767,-2.70284 2.19941,-0.90564 4.32547,-1.980073 6.48682,-2.973126 1.17216,-0.538557 2.35992,-1.044816 3.51369,-1.621703 0.46988,-0.234939 0.88155,-0.575915 1.35142,-0.810852 0.0806,-0.04029 0.35291,-0.03592 0.27029,0 -11.48431,4.993177 -3.09199,0.481986 -18.37932,10.000509 -0.82727,0.515093 -1.59691,1.120317 -2.43255,1.621705 -0.0773,0.04635 -0.35394,0.03346 -0.27029,0 2.92451,-1.169802 7.06194,-2.373315 9.73023,-3.243408 5.25835,-1.71468 9.28095,-3.229689 14.86562,-4.594831 0.96667,-0.236296 1.98053,-0.199382 2.97312,-0.270282 0.44933,-0.0321 1.6013,-0.374817 1.35142,0 -0.24987,0.374817 -0.69811,0.573744 -1.08113,0.810853 -13.84694,8.571915 -8.8559,5.888656 -27.02841,12.703349 -3.04158,1.140592 -6.11683,2.189869 -9.18965,3.243408 -0.0852,0.02922 -0.35087,0.04029 -0.27029,0 10.15014,-5.075065 21.17096,-9.882727 32.1638,-12.433067 4.75952,-1.104207 9.73751,-0.828268 14.59534,-1.35142 1.0015,-0.107852 2.97313,-1.547858 2.97313,-0.540568 0,1.054531 -1.99971,0.675548 -2.97313,1.081138 -2.27146,0.946444 -4.42858,2.177301 -6.7571,2.973123 -56.784149,19.407243 -38.66933,18.550514 -73.246977,19.460453 -1.531079,0.04029 -3.076654,0.202422 -4.594829,0 -0.25259,-0.03368 0.310142,-0.431755 0.540569,-0.540568 3.027498,-1.429652 6.067343,-2.845625 9.189657,-4.05426 8.054041,-3.117694 16.00679,-6.598687 24.32557,-8.919374 12.71661,-3.547555 25.73919,-5.893604 38.65061,-8.649092 1.86911,-0.398893 3.7823,-0.552624 5.67597,-0.810852 0.0893,-0.01217 0.36038,0 0.27028,0 -1.76569,0 -0.61764,-0.177983 -2.97312,1.89199 -11.28453,9.916705 -2.14621,2.109031 -13.24392,11.081644 -2.0901,1.68987 -5.10432,2.688532 -6.21653,5.135399 -0.73436,1.61559 3.20344,-1.539148 4.86511,-2.162273 3.38801,-1.270505 6.78827,-2.531441 10.27079,-3.513693 3.55518,-1.002742 7.19299,-1.689497 10.81137,-2.432556 24.1758,-4.964673 12.19942,-2.136502 28.37982,-5.675966 0.088,-0.01926 -0.18663,-0.03346 -0.27028,0 -1.27413,0.509654 -2.54345,1.034971 -3.78398,1.621706 -5.42752,2.567069 -10.74989,5.356693 -16.21704,7.838236 -24.75549,11.236534 -19.86478,9.351825 -47.29971,15.94676 -0.88036,0.211624 -1.80007,0.20084 -2.70284,0.270285 -0.26949,0.02072 -0.61973,0.191119 -0.81085,0 -0.14245,-0.142454 0.36281,-0.175482 0.54056,-0.270285 1.17374,-0.625991 2.35681,-1.235379 3.5137,-1.891988 6.59897,-3.745365 13.30245,-7.320632 19.73073,-11.351932 1.02688,-0.643974 1.80596,-1.61721 2.70284,-2.432555 0.0943,-0.08571 0.36038,-0.180189 0.27029,-0.270285 -0.12741,-0.127413 -0.36798,-0.05178 -0.54057,0 -0.73731,0.221192 -1.48039,0.453673 -2.16227,0.810853 -9.99832,5.237215 6.44479,-1.77451 -11.8925,7.027386 -3.86127,1.853409 -7.87746,3.37381 -11.8925,4.865113 -2.29748,0.853347 -4.67373,1.478952 -7.02738,2.16227 -0.44118,0.128085 -1.75537,0.489088 -1.35142,0.270285 2.55106,-1.381826 5.2367,-2.499677 7.83823,-3.783975 4.51611,-2.229472 8.87864,-4.788011 13.5142,-6.757101 5.56145,-2.362385 11.38039,-4.068024 17.0279,-6.216534 2.64281,-1.005416 5.26887,-2.062887 7.83824,-3.24341 0.77233,-0.354854 1.4161,-0.94442 2.16227,-1.351421 0.25012,-0.136427 0.81085,0.01463 0.81085,-0.270282 0,-0.270285 -0.56153,-0.104368 -0.81085,0 -3.64536,1.525963 -7.31068,3.031421 -10.81136,4.865113 -5.96914,3.12669 -11.63796,6.801157 -17.56847,10.000509 -0.71976,0.388298 -4.3335,1.621706 -5.40568,1.621706 -0.18019,0 -0.14142,-0.428916 0,-0.540571 1.62796,-1.285224 3.34763,-2.462064 5.1354,-3.51369 10.10576,-5.944568 13.21227,-6.354651 25.94727,-11.351932 1.35494,-0.531685 2.73529,-1.006184 4.05426,-1.621705 0.0816,-0.0381 0.075,-0.32026 0,-0.270283 -1.12445,0.749634 -2.15361,1.633376 -3.24341,2.432556 -9.39233,6.887712 -17.11593,12.714652 -28.10954,18.109033 -7.84016,3.847036 -16.13441,6.701566 -24.32557,9.730226 -2.542125,0.93995 -5.223396,1.44913 -7.838231,2.16227 -0.358381,0.0978 -0.709668,0.27029 -1.081138,0.27029 -0.201456,0 0.36935,-0.16413 0.54057,-0.27029 4.334256,-2.68724 8.528849,-5.60833 12.973639,-8.108521 7.09505,-3.990967 14.31461,-7.765962 21.62272,-11.351929 10.91857,-5.357559 23.08389,-9.831551 33.78551,-15.94676 0.0782,-0.0447 -0.18664,-0.03346 -0.27029,0 -0.82386,0.329546 -1.65357,0.656238 -2.43255,1.081138 -3.18838,1.739108 -6.25887,3.690069 -9.45995,5.40568 -10.58495,5.672979 -21.169,11.353128 -31.89352,16.757611 -0.74176,0.373806 -2.8303,1.269777 -2.43255,0.540567 0.85634,-1.569963 2.73361,-2.307876 4.05426,-3.51369 6.22775,-5.686208 9.8479,-8.779703 18.6496,-12.703352 3.15392,-1.405965 6.62621,-1.969299 10.00051,-2.702841 0.79234,-0.172249 1.70731,-0.362625 2.43255,0 0.34189,0.170942 -0.50665,0.579398 -0.81085,0.810853 -3.84314,2.92413 -7.66963,5.874678 -11.62221,8.649089 -10.08224,7.076958 -20.81691,14.957395 -32.70437,18.919885 -0.19112,0.0637 0.36102,-0.17891 0.54057,-0.27028 9.91106,-5.044029 19.19635,-11.57397 29.73124,-15.135912 18.22494,-23.654687 45.49081,-11.39916 68.11158,-17.568463 0.17385,-0.04741 -0.3688,-0.05446 -0.54056,0 -3.53054,1.119436 -7.07114,2.218573 -10.54108,3.513693 -9.3265,3.481017 -18.54124,7.254975 -27.83926,10.811362 -22.16089,8.476287 -44.40536,16.73064 -66.489878,25.4067 -0.08385,0.0329 0.186092,0.0321 0.270285,0 5.597373,-2.13233 11.141603,-4.40406 16.757613,-6.48682 7.98925,-2.9629 16.01822,-5.818423 24.05528,-8.649086 21.11112,-7.435361 13.10741,-3.25574 25.4067,-10.000509 0.63689,-0.349263 1.34049,-0.608425 1.89199,-1.081138 0.13681,-0.117266 0.14662,-0.6453 0,-0.540568 -0.72576,0.518401 -1.22203,1.303237 -1.89199,1.891988 -7.76216,6.821297 -13.73575,11.370556 -22.97414,17.568463 -1.67297,1.12237 -3.60379,1.8019 -5.40568,2.70284 -0.18019,0.0901 -0.66642,0.4276 -0.54057,0.27029 1.7294,-2.16175 7.25423,-8.16916 8.91937,-9.730231 2.5166,-2.359308 5.25033,-4.476234 7.83824,-6.757101 2.72798,-2.404324 5.53727,-4.726416 8.10852,-7.297669 0.60101,-0.601006 1.05298,-1.366438 1.35142,-2.162273 0.0633,-0.168716 -0.38526,-0.09136 -0.54057,0 -4.46165,2.624503 -8.89164,5.30637 -13.24392,8.108522 -10.29577,6.628786 -3.46512,3.747418 -17.02789,10.811362 -0.7367,0.3837 -1.62673,0.33911 -2.43256,0.54057 -0.2764,0.0691 -0.60939,0.47174 -0.81085,0.27028 -0.18019,-0.18019 0.3656,-0.3553 0.54057,-0.54057 2.88832,-3.058222 5.12374,-6.894632 8.64909,-9.189655 10.0333,-6.531747 20.94762,-11.60921 31.62323,-17.027895 1.24719,-0.633039 2.70091,-0.728085 4.05426,-1.081135 0.71888,-0.187534 2.57438,-1.158732 2.16227,-0.540567 -1.23733,1.856004 -3.16639,3.149107 -4.86511,4.594828 -10.84775,9.232132 -19.00755,13.828323 -33.51522,21.082156 -7.22782,3.613908 -14.79555,6.551068 -22.43358,9.189658 -2.32432,0.80295 -4.85878,0.76644 -7.29767,1.08114 -0.35741,0.0461 -1.36325,0.22424 -1.08113,0 9.56777,-7.60516 17.69499,-12.332098 28.65011,-18.37932 5.50324,-3.037789 11.17174,-5.766059 16.75761,-8.649088 2.79293,-1.441517 5.596,-2.863573 8.3788,-4.324546 0.82128,-0.431171 1.58492,-0.974693 2.43256,-1.35142 0.0823,-0.03659 0.0335,0.186631 0,0.270285 -0.50965,1.27413 -0.79617,2.687777 -1.6217,3.783975 -4.69814,6.238513 -9.67273,12.27591 -14.86563,18.109033 -1.40365,1.576708 -3.15197,2.820801 -4.86511,4.054261 -0.55683,0.40092 -1.21917,0.94541 -1.89199,0.81085 -0.39509,-0.079 0.25566,-0.79623 0.54057,-1.08113 2.34419,-2.3442 4.75087,-4.634772 7.29767,-6.757106 8.38818,-6.990154 11.46264,-8.722895 20.2713,-14.59534 1.35142,-0.900946 2.6242,-1.932805 4.05426,-2.702841 0.28602,-0.154006 -0.29183,0.601917 -0.54056,0.810853 -2.01482,1.692444 -4.13311,3.257894 -6.21654,4.865113 -4.22327,3.257952 -8.30583,6.711593 -12.70335,9.730227 -16.05846,11.023184 -15.21186,10.635734 -29.19068,16.487334 -0.52561,0.22002 -1.05189,0.54056 -1.6217,0.54056 -0.20146,0 0.11508,-0.41212 0.27028,-0.54056 2.47157,-2.04544 5.129,-3.86205 7.56796,-5.94626 1.84735,-1.57864 9.42907,-8.908693 12.16278,-11.081644 1.82012,-1.446761 3.78909,-2.69571 5.67596,-4.054261 0.85266,-0.613913 2.95767,-2.641007 2.70284,-1.621703 -0.65906,2.63625 -5.60067,9.48509 -7.02738,11.081647 -2.16535,2.423131 -4.66297,4.527791 -7.02739,6.757101 -0.78935,0.74424 -1.62616,1.43652 -2.43255,2.16227 -0.0947,0.0852 -0.35671,0.36391 -0.27029,0.27029 2.72537,-2.95249 5.21959,-6.12674 8.10853,-8.919378 2.5981,-2.511499 12.01145,-8.122613 12.97363,-8.649089 1.52645,-0.835229 3.22986,-1.29735 4.86511,-1.891988 0.34911,-0.12695 0.71688,-0.343135 1.08114,-0.270285 0.19755,0.03951 0.40563,0.391345 0.27028,0.540567 -3.46698,3.822573 -7.02572,7.574368 -10.81136,11.081647 -7.56749,7.011056 -20.32841,13.864786 -28.10954,18.109036 -0.97834,0.53364 -2.14196,0.6414 -3.24341,0.81085 -0.12593,0.0194 -0.34923,-0.17028 -0.27028,-0.27028 3.06267,-3.87939 7.65783,-8.42724 11.62221,-11.08165 7.7294,-5.17534 15.70552,-9.985581 23.785,-14.595342 12.8949,-7.357216 26.82324,-17.693828 17.29818,-5.946248 -6.30416,7.775125 -15.53594,16.84931 -23.24443,22.70386 -2.92849,2.22418 -6.2173,3.94153 -9.45994,5.67597 -0.65512,0.35041 -1.41934,0.54057 -2.16228,0.54057 -0.18018,0 -0.11256,-0.39987 0,-0.54057 1.35545,-1.6943 2.82816,-3.2939 4.32455,-4.86511 2.10891,-2.21436 4.06492,-4.61994 6.48682,-6.48682 19.39803,-14.952657 15.80152,-11.530885 35.13693,-20.811878 1.56234,-0.749925 3.0799,-1.590935 4.59482,-2.432556 0.11138,-0.06188 0.35259,-0.367548 0.27029,-0.270285 -7.65579,9.047747 -19.01811,19.847367 -28.10954,26.217559 -7.07451,4.95696 -14.91678,8.71713 -22.43358,12.97363 -0.0784,0.0444 -0.0586,-0.20188 0,-0.27028 1.03732,-1.21021 2.11632,-2.38661 3.24341,-3.51369 1.39719,-1.3972 2.92735,-2.65707 4.32454,-4.05426 6.4559,-6.4559 3.5365,-4.54366 10.00051,-9.18966 1.31888,-0.94795 2.63445,-1.914062 4.05426,-2.702846 1.02384,-0.568801 2.17998,-0.860607 3.24341,-1.35142 0.11569,-0.05339 0.362,-0.358727 0.27029,-0.270285 -11.43216,11.023861 -6.09148,6.253281 -21.35244,18.919891 -5.52178,4.58307 -10.78685,9.53369 -16.75762,13.5142 -0.075,0.05 -0.0624,-0.20529 0,-0.27029 2.11771,-2.20594 4.09622,-4.58002 6.48682,-6.48681 12.84955,-10.24904 14.97092,-10.88615 27.56898,-18.10904 10.47674,-6.006663 5.71305,-3.53223 12.70335,-7.027381 0.36037,-0.180192 1.30865,-0.873098 1.08113,-0.54057 -1.85441,2.710291 -9.03104,10.786091 -10.81136,12.703351 -2.55797,2.75474 -5.07987,5.55448 -7.83824,8.10853 -2.11648,1.95971 -4.44061,3.68699 -6.7571,5.40568 -0.52675,0.39081 -2.06457,1.17335 -1.89199,0.54056 0.90753,-3.32761 2.84359,-5.33057 5.1354,-8.10852 5.31612,-6.44378 8.46094,-8.86401 15.94676,-14.59534 1.9643,-1.503919 4.09517,-2.781441 6.21653,-4.054261 1.03649,-0.621895 3.24341,-2.830452 3.24341,-1.621703 0,1.670638 -4.6554,7.770444 -6.21653,9.189654 -17.91078,16.28253 -19.24282,20.0674 -37.83977,27.83927 -1.25795,0.5257 -2.69922,0.39 -4.05426,0.54056 -0.26863,0.0298 -0.7366,0.25989 -0.81085,0 -0.69665,-2.43825 3.87517,-6.14604 4.32454,-6.48682 9.22156,-6.99301 18.54675,-13.89773 28.37983,-20.00102 3.29779,-2.0469 7.18669,-2.93637 10.81136,-4.32454 0.61252,-0.23458 1.25567,-0.38149 1.89199,-0.54057 0.0874,-0.0219 0.32195,-0.0738 0.27028,0 -5.65488,8.07841 -19.83835,18.99275 -27.56897,24.05528 -4.99274,3.26958 -10.4635,5.7435 -15.67648,8.64909 -0.28374,0.15816 -1.05581,0.75392 -0.81085,0.54057 3.03603,-2.64429 5.89706,-5.52122 9.18966,-7.83824 8.20648,-5.77493 27.89793,-15.49458 34.86664,-18.91988 8.19309,-4.02712 7.2745,-2.5973 11.8925,-5.67597 0.16762,-0.11175 -0.39499,0.13103 -0.54057,0.27029 -1.93355,1.84948 -3.82143,3.74725 -5.67596,5.67596 -10.93115,11.3684 -7.65342,9.34895 -23.24443,21.62273 -3.16111,2.48853 -6.03862,6.05794 -10.00051,6.7571 -2.63795,0.46552 3.5812,-3.98494 5.40568,-5.94625 1.77955,-1.91302 3.45115,-3.94211 5.40568,-5.67597 5.77417,-5.12224 13.47893,-10.9437 20.00102,-15.40619 2.207,-1.51005 4.19572,-5.09296 6.7571,-4.32454 2.08898,0.62669 -2.57707,3.53087 -4.05426,5.1354 -5.28752,5.74334 -14.05034,14.85356 -20.81187,19.73073 -2.25689,1.62792 -4.78408,2.86031 -7.29767,4.05426 -5.41602,2.57261 -4.83043,-0.0905 -2.16227,-4.86511 1.2715,-2.27532 6.3927,-7.33395 7.83823,-8.91937 3.39453,-3.72303 2.62579,-3.51383 5.40569,-5.67597 0.25641,-0.19943 0.96372,-0.82719 0.81085,-0.54057 -0.85849,1.60966 -1.7675,3.22573 -2.97313,4.59483 -7.48421,8.49902 -12.98478,14.34457 -21.89301,20.54159 -1.05893,0.73665 -2.35991,1.04482 -3.51369,1.6217 -0.11396,0.057 -0.27028,0.3977 -0.27028,0.27029 0,-1.68262 3.18956,-6.03756 3.78397,-6.7571 2.47798,-2.99966 4.83577,-6.17453 7.83824,-8.64909 14.1242,-11.64083 20.94162,-13.75923 37.83977,-21.62273 2.04861,-0.95331 4.13967,-1.81275 6.21653,-2.70284 0.44595,-0.19112 1.65628,-0.91801 1.35142,-0.54057 -13.18861,16.32876 -34.38003,29.4577 -50.27283,40.27233 -2.36718,1.6108 -5.16806,2.48007 -7.83824,3.51369 -0.18787,0.0727 -0.63259,-0.0911 -0.54057,-0.27028 2.52661,-4.92023 10.2367,-17.39496 13.51421,-21.08216 5.62929,-6.33296 11.88801,-12.08598 18.10903,-17.83875 2.16979,-2.00647 4.71966,-3.5595 7.02738,-5.40568 0.39798,-0.31838 1.40387,-1.475587 1.08114,-1.081138 -4.07733,4.983398 -3.89524,4.348088 -9.18966,9.459948 -3.34595,3.23057 -6.48579,6.68413 -10.00051,9.73022 -3.25451,2.82058 -6.77732,5.31969 -10.27079,7.83824 -0.39356,0.28373 -0.86625,0.54057 -1.35142,0.54057 -0.25483,0 0.36038,-0.36038 0.54057,-0.54057 2.25236,-2.25237 4.33614,-4.68701 6.7571,-6.7571 13.07151,-11.17709 19.67424,-14.13512 37.02891,-22.974149 36.56124,-18.62125 5.81587,-1.567304 25.94727,-12.162782 0.92976,-0.489349 1.78046,-1.118586 2.70284,-1.621705 0.0791,-0.04314 0.33454,-0.06315 0.27029,0 -15.82823,15.55533 -21.49133,21.366386 -41.08318,35.407216 -7.53741,5.40181 -15.41181,10.35618 -23.51471,14.86562 -2.31536,1.28855 -5.01156,1.73536 -7.56796,2.43256 -0.4346,0.11853 -1.19747,0.42335 -1.35142,0 -1.06161,-2.91944 3.90161,-9.16632 4.32455,-9.73023 2.93677,-3.91569 11.50202,-11.05942 14.32505,-13.24392 4.29061,-3.32011 8.78339,-6.37188 13.24392,-9.45994 1.39765,-0.9676 2.86105,-1.83805 4.32455,-2.70284 0.52032,-0.30746 1.02906,-0.692325 1.6217,-0.810853 0.19755,-0.03951 -0.13235,0.393733 -0.27028,0.540563 -2.66108,2.83276 -5.38469,5.60634 -8.10852,8.37881 -8.50449,8.65636 -9.82606,9.83738 -20.81188,19.19017 -2.00357,1.70574 -4.06462,3.35081 -6.21653,4.86512 -0.30379,0.21377 -1.15399,0.63453 -1.08114,0.27028 0.77322,-3.86608 4.47299,-7.89055 7.02739,-10.2708 21.46921,-20.0054 16.74048,-14.73765 42.97516,-31.352949 2.74432,-1.73807 5.38126,-3.640979 8.10853,-5.405681 0.33827,-0.218885 0.67822,-0.540568 1.08113,-0.540568 0.32484,0 -0.55522,0.34013 -0.81085,0.540568 -7.67348,6.016709 -14.74996,12.87014 -22.97415,18.10903 -17.15358,10.92702 -35.21297,20.36569 -52.97567,30.27182 -0.9953,0.55507 -2.11525,0.91997 -3.24341,1.08114 -0.25226,0.036 -0.68038,-0.32753 -0.54057,-0.54057 4.33227,-6.60155 8.45388,-10.61615 14.05477,-16.21705 7.76002,-7.76002 8.32396,-8.38424 17.29818,-14.86562 1.74223,-1.25828 3.6569,-2.26456 5.40568,-3.5137 0.16394,-0.11709 0.41072,-0.685007 0.27029,-0.540563 -3.28743,3.381353 -6.22232,7.118763 -9.73023,10.270793 -6.31484,5.67421 -18.61549,12.22422 -25.13642,15.67648 -0.6566,0.34761 -1.44151,0.72076 -2.16227,0.54057 -0.34962,-0.0874 -0.2035,-0.78372 0,-1.08114 2.17755,-3.18257 4.01207,-6.78584 7.02739,-9.18966 9.98501,-7.96008 20.36643,-15.5938 31.62323,-21.622724 12.92125,-6.92037 27.05182,-11.296512 40.54261,-17.027895 0.29898,-0.127019 1.0604,-0.748528 0.81085,-0.54057 -2.95109,2.459241 -5.97189,4.834104 -8.91937,7.297671 -10.65103,8.902351 -13.02571,11.912444 -26.75812,20.271308 -4.26826,2.59807 -8.92608,4.50762 -13.51421,6.48682 -0.81475,0.35146 0.46286,-1.7961 1.08114,-2.43256 6.08591,-6.26491 11.75058,-11.292183 18.91989,-16.487332 2.38973,-1.731692 5.08339,-3.002163 7.56795,-4.594828 1.03165,-0.661318 3.68539,-3.159437 2.97313,-2.162273 -3.01471,4.220588 -6.78642,7.037184 -11.08165,9.730227 -26.82471,16.818666 -20.98274,15.170376 -42.97517,22.974146 -0.78281,0.27777 -1.60192,0.54057 -2.43255,0.54057 -0.25483,0 0.37472,-0.34709 0.54056,-0.54057 1.45641,-1.69914 2.79759,-3.49936 4.32455,-5.1354 5.54431,-5.94033 8.69977,-8.70332 15.13591,-13.784486 2.37602,-1.875808 4.88373,-3.578918 7.29766,-5.405681 0.92003,-0.696237 3.71574,-2.714759 2.70285,-2.162272 -10.68497,5.828162 -6.72536,4.503446 -16.21705,11.622219 -4.59988,3.44991 -9.13577,7.02322 -14.05477,10.00051 -1.97561,1.19576 -4.30293,1.68184 -6.48682,2.43255 -0.70258,0.24152 -1.42507,0.63272 -2.16227,0.54057 -0.2682,-0.0335 -0.12087,-0.5691 0,-0.81085 0.88458,-1.76916 1.49767,-3.81803 2.97313,-5.1354 17.20795,-15.364242 18.25277,-14.479869 37.2992,-23.514713 1.16548,-0.552855 4.12526,-2.757477 3.51369,-1.621705 -1.17831,2.1883 -3.56269,3.467928 -5.40568,5.135398 -4.17507,3.777438 -8.84771,7.808222 -13.78449,10.54108 -2.29807,1.27215 -4.85287,2.01267 -7.29767,2.97312 -0.0839,0.0329 -0.29877,0.0855 -0.27028,0 3.16574,-9.497227 12.05646,-16.056065 20.00102,-21.352438 2.75228,-1.834857 5.7478,-3.276309 8.64909,-4.865111 0.88349,-0.483817 1.75968,-0.997739 2.70284,-1.35142 0.2386,-0.08948 -0.34949,0.371967 -0.54057,0.540567 -1.34096,1.183196 -2.58462,2.494738 -4.05426,3.513693 -5.29836,3.673528 -10.52377,7.515508 -16.21704,10.541077 -10.10765,5.371491 -20.55935,10.092332 -31.08267,14.595342 -19.693079,8.42681 -21.072703,9.7139 -36.758632,11.8925 -0.08924,0.0124 -0.0695,-0.21295 0,-0.27028 3.559965,-2.93698 6.893154,-6.21049 10.811362,-8.64909 24.26648,-15.102921 31.426,-16.471311 57.02994,-29.190686 4.00214,-1.988159 10.92138,-5.231667 15.1359,-8.919374 0.21441,-0.187611 -0.59908,0.07969 -0.81085,0.270285 -0.75764,0.681879 -1.4294,1.453832 -2.16227,2.162273 -1.97012,1.904444 -3.79787,3.97516 -5.94625,5.675963 -4.35215,3.445452 -8.93424,6.593946 -13.5142,9.730226 -3.7116,2.541633 -7.56304,4.872779 -11.35193,7.297669 -0.71589,0.458171 -1.48232,1.861391 -2.16228,1.35142 -0.64466,-0.483497 0.52385,-1.580213 1.08114,-2.16227 3.52571,-3.682412 7.05533,-7.413844 11.08164,-10.541079 5.28888,-4.107863 11.09059,-7.513519 16.75762,-11.081647 4.06658,-2.560444 8.29892,-4.847804 12.43306,-7.297669 0.73121,-0.433308 1.49858,-0.820459 2.16228,-1.35142 0.22247,-0.17798 -0.56437,0.127394 -0.81086,0.270283 -5.97535,3.463972 -11.92792,6.968117 -17.83874,10.541079 -6.16245,3.725058 -12.18996,7.671771 -18.37932,11.351932 -3.81346,2.26746 -7.73085,4.35583 -11.62221,6.486816 -0.11176,0.0612 0.21756,-0.154292 0.27028,-0.270285 0.40153,-0.883373 0.64718,-1.834933 1.08114,-2.702841 0.73965,-1.479309 1.31654,-3.103904 2.43255,-4.324543 4.0609,-4.441603 7.63673,-6.277602 13.24392,-8.108521 2.01583,-0.658233 4.10271,-1.182315 6.21654,-1.35142 0.3238,-0.0259 0.79553,0.609565 0.54056,0.81085 -1.71034,1.350266 -3.8013,2.132499 -5.67596,3.24341 -10.24021,6.068272 -10.80139,6.964299 -22.97415,12.973635 -2.35531,1.162748 -4.82912,2.075471 -7.29767,2.973123 -0.51503,0.187285 -1.73653,0.806145 -1.6217,0.270285 0.64189,-2.995515 6.13035,-7.999312 7.83824,-9.189659 3.94244,-2.747759 8.10899,-5.201148 12.43306,-7.297669 10.56071,-5.120341 21.45945,-9.512244 32.16381,-14.325055 0.9187,-0.413059 1.99058,-0.639159 2.70284,-1.35142 0.54431,-0.544309 -1.49182,0.432647 -2.16228,0.810853 -2.85313,1.60946 -5.51402,3.546747 -8.3788,5.135396 -7.04946,3.909245 -14.23496,7.567953 -21.35244,11.351932 -7.11748,3.783975 -14.10087,7.831748 -21.35244,11.351929 -2.05042,0.995346 -4.303707,2.817206 -6.486818,2.162273 -1.536441,-0.460934 2.500704,-2.010672 3.783978,-2.973126 3.04173,-2.281298 5.9369,-4.788328 9.18966,-6.757101 23.87759,-14.452227 16.15352,-8.151185 36.48834,-19.730736 1.62913,-0.927698 3.12337,-2.081731 4.59483,-3.243408 0.25496,-0.201287 0.74349,-1.064511 0.54057,-0.810852 -1.28342,1.604274 -2.38045,3.364788 -3.78398,4.865113 -3.8299,4.09403 -7.8594,7.998479 -11.89249,11.892497 -1.19512,1.153906 -2.42835,2.283169 -3.78398,3.243411 -2.97731,2.108927 -7.63612,9.247531 -9.18966,5.946248 -1.79811,-3.820988 4.42326,-7.216667 7.02738,-10.541079 1.64999,-2.106367 3.80208,-3.766045 5.67597,-5.675964 4.03867,-4.116334 12.12715,-14.204129 18.6496,-15.135907 0.0892,-0.01275 0.0254,0.183848 0,0.270282 -0.42615,1.448896 -0.52136,3.062846 -1.35142,4.324546 -1.47226,2.237838 -3.51155,4.052118 -5.40568,5.946249 -4.10361,4.103605 -5.83518,4.331422 -12.43307,6.216533 -0.71435,0.204102 -0.72964,-1.443794 -0.54057,-2.162273 0.31936,-1.213556 0.64831,-2.474301 1.35143,-3.51369 3.51479,-5.195787 9.91635,-10.241844 14.32505,-14.054773 0.15237,-0.131783 0.58008,-0.467828 0.54057,-0.270285 -0.65726,3.286297 -2.69872,5.507498 -5.1354,7.838239 -7.66564,7.332356 -9.36253,8.422492 -20.00102,11.351929 -2.27339,0.626007 -4.87,1.762639 -7.02739,0.810853 -5.61734,-2.478241 -0.11081,-8.405347 1.35142,-10.000509 4.47274,-4.879348 11.03014,-8.037118 16.75762,-10.811362 1.89811,-0.9194 3.92408,-1.563113 5.94625,-2.162273 0.43191,-0.127973 1.3922,-0.448624 1.35142,0 -0.10221,1.124247 -0.94002,2.073302 -1.62171,2.973123 -1.58147,2.087547 -3.15452,4.233058 -5.13539,5.946251 -1.40318,1.213559 -3.19151,1.902421 -4.86512,2.702841 -0.41443,0.198207 -0.89827,0.19476 -1.35142,0.270282 -0.0889,0.01482 -0.31839,0.07618 -0.27028,0 3.13702,-4.966946 3.62726,-5.261906 7.29767,-9.730224 0.81277,-0.989465 1.65472,-1.955961 2.43255,-2.973125 0.39465,-0.516081 0.66522,-1.122606 1.08114,-1.621706 0.0577,-0.06921 0.28023,-0.08954 0.27028,0 -0.3504,3.153627 -2.35083,6.652512 -3.51369,9.189659 0,-0.838631 -0.0285,0.71151 0.27029,-1.081135 0.0469,-0.281268 0.27028,-1.357405 0.27028,-1.621705"
       transform="matrix(1.5139052,0.00267427,-0.00267427,1.5139052,-67.814265,-22.101047)" />
    <path
       id="path9"
       style="display:inline;fill:none;fill-opacity:1;stroke:url(#linearGradient25);stroke-width:2.78559;stroke-linejoin:round;stroke-dasharray:none"
       d="m 134.6252,50.848615 c 10.79908,0.402923 24.05641,10.146562 32.51373,20.884749 -3.03186,0.293486 -6.74026,0.707398 -13.343,1.487899 -8.06138,0.952921 -16.0755,2.264769 -24.10283,3.476366 l 4.12327,7.335412 c 7.39063,-3.557376 11.77694,-5.178282 23.65766,-8.349534 3.57939,-0.95542 7.20371,-1.729958 10.83967,-2.450683 3.86267,5.226506 6.52363,10.595042 7.14174,15.167223 0.0353,0.261058 0.0539,0.513878 0.0621,0.762104 6.65797,2.515946 12.91685,5.772819 18.81525,9.683336 14.02207,9.296293 16.96789,27.864493 8.60982,37.959223 -0.46145,-0.0227 -0.92187,-0.0615 -1.38382,-0.0753 -2.53385,-0.075 -5.0685,-0.11025 -7.60329,-0.12603 2.91498,0.16541 5.82997,0.32823 8.74485,0.49583 -0.78058,0.90338 -1.61977,1.76196 -2.58848,2.50826 -7.24537,5.58192 -15.32333,10.18271 -23.78656,13.54323 -3.22873,20.96925 -25.82003,39.65734 -43.81686,38.89617 -13.30242,-0.56263 -5.91228,-21.07162 1.8193,-37.41039 -16.97739,-2.69732 -40.326262,-7.35621 -42.129615,-30.06052 2.127377,-0.35581 4.787039,-0.76046 7.848175,-1.20892 -2.62712,0.30633 -5.251607,0.63505 -7.875907,0.96558 -0.01866,-0.25867 -0.07259,-0.48786 -0.08539,-0.7512 -0.182438,-3.68991 0.322766,-6.96645 1.265379,-9.95062 41.168708,-2.13301 2.905567,-1.72608 56.224488,-1.56315 l -8.48982,-15.103065 c -2.18556,0.409122 -4.37208,0.810831 -6.56432,1.183029 -23.05908,3.914966 -29.81927,4.258996 -35.061603,5.145286 6.335143,-6.744903 15.733823,-10.80134 24.306703,-13.475809 1.11239,1.254171 10.26966,1.373926 11.17635,1.375528 l 2.90168,0.0051 -4.02732,-7.164695 c -1.02845,0.495023 -2.24091,1.092778 -3.42177,1.676759 -0.91885,-2.918692 -1.85961,-5.828822 -2.7721,-8.697418 0.69057,-0.102196 1.3803,-0.210561 2.07061,-0.314752 l -1.34998,-2.402589 c -0.47644,0.163073 -0.95522,0.318917 -1.43407,0.47469 -3.87157,-12.599434 -5.70423,-23.306758 6.13663,-23.91217 0.51993,-0.02659 1.04659,-0.02876 1.57955,-0.009 z m -6.28208,23.446425 c 3.14179,-1.075318 6.24671,-2.263068 9.38145,-3.360765 -3.60132,0.58092 -7.21962,0.833108 -10.93185,0.602643 z m 9.38145,-3.360765 c 1.6774,-0.270581 3.35242,-0.589794 5.02904,-1.005806 0.66189,-0.164236 -1.39535,-0.208586 -2.04578,-0.0036 -1.00138,0.315565 -1.9923,0.662407 -2.98326,1.009422 z m 0.1191,20.263459 3.24119,5.766838 c 7.77927,-1.456234 15.52785,-3.083009 23.31603,-4.492442 2.71434,-0.491212 5.45477,-0.827747 8.18615,-1.213023 z m 11.73101,20.869936 3.14371,5.593 c -1.16816,0.0299 -2.33543,0.0735 -3.502,0.15419 -13.82429,0.95653 -27.60188,2.57969 -41.33544,4.42774 -3.17684,0.42749 -5.36932,0.76329 -7.83472,1.12447 17.58462,-2.05035 35.22592,-3.61849 52.84218,-5.40412 l 0.64964,1.15587 c 3.68606,-0.45961 7.37392,-0.90295 11.06377,-1.32764 -2.83958,-0.0686 -5.67907,-0.144 -8.51621,-0.15507 6.71945,-0.69258 13.43532,-1.41851 20.14122,-2.2285 6.72298,-0.81205 13.48286,-1.60784 20.0554,-3.23864 0.13238,-0.0329 -0.27276,-4.2e-4 -0.40916,-6.3e-4 l -9.41068,-0.0165 -29.46185,-0.0521 c -4.12389,-0.007 -4.09707,-0.0218 -7.42586,-0.0319 z m 15.02714,5.72351 c 2.23755,0.0541 4.4744,0.0949 6.70997,0.0628 1.09954,-0.0157 4.36749,-0.28001 3.27479,-0.40339 -2.30409,-0.26012 -4.65252,-0.2732 -6.9565,-0.0122 -1.00968,0.11437 -2.01871,0.23677 -3.02827,0.35296 z m -11.06377,1.32764 c -8.41981,1.04983 -16.82704,2.19898 -25.19906,3.56909 -3.37828,0.55286 -16.60032,1.99332 -21.69859,6.50902 -0.2283,0.20221 0.22594,0.57474 0.40851,0.81904 0.23091,0.30904 0.44224,0.7277 0.81687,0.81977 5.27324,1.29605 10.53785,2.88778 15.95222,3.30146 12.85147,0.98192 25.77798,0.36838 38.65673,0.88035 z m 8.93668,15.89873 0.946,1.68292 c 0.0289,-0.01 0.0578,-0.0373 0.0838,-0.0383 2.99808,-0.12505 6.0016,0.0106 9.0023,0.0159 7.14906,0.0127 14.30006,-0.11886 21.44862,-0.0747 -10.41905,-0.59105 -20.83951,-1.15453 -31.26634,-1.57921 -0.0715,-0.002 -0.14292,-0.003 -0.21437,-0.006 z m 0.946,1.68292 c -0.1846,0.0536 -0.40044,0.22091 -0.32609,0.37025 0.25787,0.51803 0.81684,0.81974 1.2253,1.22965 z"
       sodipodi:nodetypes="ccsccscscsccccscsccccccccsccscccccccsccccccsscccsccccsscccccssscsccsssccssssscccccscsccscc" />
    <path
       id="path10"
       style="display:inline;fill:none;fill-opacity:1;stroke:url(#linearGradient14);stroke-width:2.78559;stroke-linejoin:round;stroke-dasharray:none"
       d="m 134.6252,50.848615 c 0.48207,0.018 0.98389,0.115597 1.47521,0.170025 -0.72925,-0.0542 -1.4657,-0.114422 -2.14644,-0.166518 0.22418,2.1e-4 0.44477,-0.01192 0.67123,-0.0035 z m -7.11889,1.586516 c 5.35631,1.146886 12.2287,2.683202 20.7714,4.63369 l -0.24382,-1.929668 c 1.57114,0.870413 3.12695,1.871361 4.66612,2.94278 -0.58109,-0.13245 -1.16065,-0.28151 -1.74073,-0.414582 -1.17085,-0.268597 -1.57869,-0.346717 -2.68157,-0.59853 l 1.81851,14.413035 c 3.44539,0.429551 6.41861,0.782096 10.65693,1.342535 2.70748,0.358016 5.40827,0.762196 8.10681,1.182347 0.70969,0.993619 1.37634,1.987692 1.99047,2.981864 -6.88119,-1.595322 -13.7703,-3.155121 -20.65624,-4.728931 l 2.14871,17.033657 c -7.64808,-0.561777 -15.21217,-0.931212 -22.73809,-1.1503 0.46762,-0.122438 0.985,-0.281436 1.43942,-0.396448 -1.97738,-6.506786 -4.4198,-13.22743 -5.8564,-19.123564 4.41038,0.435426 9.21081,0.939347 17.53417,1.9297 -5.99547,-1.360718 -11.99532,-2.701306 -17.99674,-4.034997 -1.32298,-6.428779 -1.08331,-11.607638 2.78105,-14.082588 z M 142.722,70.552716 c 2.4915,0.565465 4.98154,1.137702 7.47219,1.706955 l -0.0979,-0.777814 c -2.3841,-0.297233 -5.32348,-0.685134 -7.37423,-0.929141 z m -26.71107,22.039689 c 16.43422,0.625724 31.03153,1.177927 36.92142,1.375631 l 0.92816,7.352454 c 8.69985,-0.35769 17.39704,-0.77711 26.07623,-1.456022 4.00159,-0.313016 7.9899,-0.997476 11.87002,-2.024834 0.14663,-0.03884 0.26904,-0.179753 0.3691,-0.343574 0.71856,0.450472 1.44874,0.879959 2.15686,1.349426 10.70239,7.095434 14.96219,19.604194 12.66921,29.620434 -9.4469,-2.26326 -20.96285,-3.24789 -28.34681,-3.7106 7.33957,-0.0782 14.26348,-0.1452 24.15276,-0.29922 0.30496,-0.005 0.52337,-0.53422 0.4106,-0.8176 -0.21397,-0.53765 -0.66573,-1.08225 -1.22531,-1.22965 -8.38339,-2.2084 -16.77154,-4.58653 -25.35934,-5.77304 -7.5495,-1.04306 -14.47488,-1.8145 -21.15002,-2.44305 l 1.25529,9.9496 c -10.83011,0.0422 -21.66735,0.39646 -32.49459,0.17495 -0.78562,-0.0159 -17.02252,-0.89831 -32.1475,-1.43761 -0.111386,-4.05099 0.512679,-7.66105 1.754385,-10.85099 4.382859,0.004 11.934545,0.004 22.039125,0.008 -6.85878,-0.15245 -14.30563,-0.25217 -21.89926,-0.34539 1.419404,-3.49656 3.553154,-6.49696 6.14485,-9.09397 0.41071,-0.004 0.8215,-0.002 1.2322,-0.007 9.58086,-0.11255 19.16185,-0.26104 28.74071,-0.48748 -8.29986,-0.4365 -16.06575,-0.37966 -29.05998,-0.35522 4.2375,-3.941255 9.52242,-6.899123 14.96188,-9.155052 z m 14.09809,9.510705 c 5.81762,0.30596 13.65759,1.00023 24.10563,2.02423 l -0.35414,-2.80685 c -4.40298,0.18103 -8.80577,0.36843 -13.20907,0.52117 -3.51311,0.12187 -7.02816,0.17838 -10.54242,0.26145 z m 24.10563,2.02423 1.00994,8.00821 c 4.13833,0.001 8.27675,0.0275 12.41489,-0.0172 6.96107,-0.0752 13.91911,-0.40031 20.87016,-0.78144 0.30453,-0.0168 1.05685,-0.21678 0.81903,-0.40772 -7.81093,-6.27142 -19.82321,-5.29724 -28.6319,-6.18799 -2.77506,-0.28062 -4.12211,-0.38254 -6.48212,-0.61386 z m 1.00994,8.00821 c -10.5922,-0.004 -21.18446,-0.0765 -31.77672,-0.0953 -4.61334,-0.008 -4.09242,-0.002 -7.55735,-0.003 13.25698,0.29474 25.80904,0.85769 39.59329,2.15564 z m 29.8374,-18.131883 c 0.28633,0.0013 0.81863,0.0084 1.11403,0.0099 0.21845,0.115992 0.43197,0.240981 0.64949,0.358672 -0.58718,-0.124424 -1.17589,-0.244939 -1.76353,-0.368465 z M 92.118708,123.88035 c 29.650722,0.65707 44.591312,1.01432 64.714512,1.00461 l 1.36329,10.80879 c 12.90169,-0.12815 25.16103,-0.31595 32.72617,-0.61968 4.63501,-0.18609 9.26307,-0.53475 13.88422,-0.962 -1.19131,2.09998 -2.73278,3.98363 -4.69511,5.49543 -1.07082,0.82497 -2.1944,1.58259 -3.30015,2.36386 -14.76019,-2.42017 -28.76074,-4.32644 -38.51405,-5.47476 l 0.19365,1.53217 c -10.37004,-0.85932 -20.75325,-1.55613 -31.14169,-2.17201 7.79565,0.002 16.01988,-0.0292 24.40352,-0.093 -16.4808,-1.68894 -33.07351,-2.04927 -49.61993,-2.89231 -2.732724,-0.13933 -5.467651,-0.22614 -8.202215,-0.32351 -0.975285,-2.56721 -1.622953,-5.4248 -1.812217,-8.66755 z m 59.634362,11.88339 c 0.23463,0.0239 0.47023,0.0361 0.7048,0.0607 1.61375,0.16921 3.78657,0.43044 5.83972,0.67215 l -0.10108,-0.80285 c -2.18598,0.0217 -4.21933,0.053 -6.44343,0.0699 z m -54.636722,2.68702 c 1.785456,0.41991 3.576242,0.82168 5.376442,1.18929 -1.5029,-0.0354 -3.005394,-0.0846 -4.508379,-0.11673 -0.292571,-0.35434 -0.593796,-0.70044 -0.868063,-1.07257 z m 7.865732,3.01888 7.75526,0.0137 c 15.42167,2.41794 31.20644,3.53492 46.83868,5.14443 l 1.37641,10.91132 c 4.87862,-0.33325 9.75963,-0.63164 14.64068,-0.92938 -0.4112,1.60286 -0.93016,3.18307 -1.54723,4.739 -5.30216,0.0662 -10.60296,0.17451 -15.90306,0.31693 1.09082,-0.15187 2.18169,-0.30395 3.27251,-0.4558 l -0.4629,-3.67075 c -2.02555,0.13842 -4.05357,0.24112 -6.07865,0.3859 -7.69986,0.55054 -15.37976,1.35367 -23.04995,2.23823 0.81569,-1.86752 1.65271,-3.72807 2.50384,-5.52669 -11.48133,-1.82414 -25.86421,-4.56196 -34.552854,-13.14324 1.735834,-0.008 3.471584,-0.0268 5.207264,-0.0235 z m 42.55262,0.0752 2.04892,0.003 c 3.11929,0.005 6.23881,0.0307 9.3582,0.0517 l 0.11645,0.92805 c -3.83783,-0.3681 -7.67905,-0.69818 -11.5236,-0.98338 z m -16.80845,21.24747 c 2.07476,-8.9e-4 4.14949,0.0103 6.22425,0.0109 -2.2055,0.25602 -4.4043,0.55834 -6.59672,0.91306 0.12576,-0.30868 0.24421,-0.61543 0.37247,-0.92404 z m 18.83694,0.0676 c 7.88691,0.0808 15.77335,0.19718 23.65871,0.37031 -0.20273,0.44724 -0.37243,0.90513 -0.5907,1.34691 -6.75092,0.95035 -13.50777,1.85961 -20.26655,2.75401 -0.10789,0.0618 -0.19391,0.10146 -0.30305,0.15827 3.51411,-0.18657 7.02886,-0.35346 10.54292,-0.53919 -0.68859,0.18834 -2.89348,0.93872 -5.0909,1.92027 -3.09485,-0.31567 -5.4264,-0.54856 -6.92164,-0.70616 -3.12465,1.3093 -6.20709,2.77929 -9.40345,3.86845 14.26998,-0.47069 17.38835,0.13278 26.56589,0.34895 -0.29293,0.38752 -0.59945,0.76485 -0.90327,1.14452 -7.48594,1.09452 -12.30327,1.81184 -22.24184,4.02104 -2.51766,0.55963 -4.99777,1.27372 -7.49191,1.93166 7.71094,-0.65926 13.39106,-1.31814 19.96092,-2.45962 2.8889,-0.64714 5.76433,-1.36098 8.64063,-2.07122 -0.1508,0.176 -0.31801,0.33678 -0.47108,0.51081 -2.94475,0.60429 -5.73744,1.13783 -8.16955,1.56041 -1.55841,0.34911 -3.1216,0.67492 -4.69491,0.95085 -4.86615,0.85352 -9.83599,0.96094 -14.73342,1.61141 -2.20101,0.29232 -4.35872,0.85475 -6.54951,1.21591 -1.37244,0.22625 2.74144,-0.48578 4.09383,-0.81109 0.64455,-0.15506 1.28198,-0.33835 1.92309,-0.50746 -3.33957,0.28551 -7.21286,0.60443 -11.7242,0.96502 0.20127,-1.66917 0.55257,-3.45111 1.03426,-5.32273 3.76177,-0.60783 7.51355,-1.27074 11.23409,-2.08699 1.19646,-0.26249 2.3692,-0.6069 3.52698,-1.00143 -3.72753,0.12301 -8.42211,0.33746 -14.06517,0.64093 0.0371,-0.12369 0.0878,-0.25428 0.12587,-0.37842 6.1133,-1.21789 14.89113,-2.98563 16.55698,-3.34184 1.43433,-0.3067 2.85689,-0.67596 4.28197,-1.02824 -0.0185,-0.001 -0.0355,-0.001 -0.0541,-0.004 -6.75684,0.89512 -13.50877,1.82379 -20.25643,2.78375 0.55036,-1.67181 1.13097,-3.34531 1.7997,-5.06401 6.66182,-0.92747 13.32396,-1.85438 19.98575,-2.78188 z m -1.52903,5.06215 c 0.0524,-0.008 0.10472,-0.0148 0.1573,-0.0217 -0.0344,0.01 -0.0689,0.0164 -0.10323,0.0247 0.59039,0.0514 1.69646,0.15405 2.50383,0.23913 0.33095,-0.13863 0.65899,-0.29063 0.99118,-0.4246 0.11275,-0.0455 0.30608,-0.16051 0.47844,-0.2503 -0.47259,0.0251 -0.94509,0.0517 -1.41772,0.0757 0.57388,-0.0759 1.14689,-0.15808 1.72077,-0.23401 0.41086,-0.23492 0.73717,-0.45284 0.44744,-0.40759 -1.1246,0.17553 -2.23099,0.44416 -3.33948,0.70368 -0.66047,0.0323 -1.32044,0.0761 -1.98105,0.10523 -0.76137,0.0338 -1.52397,0.0208 -2.28603,0.0226 1.01823,0.0236 1.86403,0.084 2.82864,0.16688 z m -2.82862,-0.16687 c -1.192,-0.0271 -2.90358,-0.0314 -5.32686,-0.0344 1.77548,0.006 3.55158,0.0395 5.32686,0.0344 z m -5.32686,-0.0344 c -0.054,-2e-4 -0.10788,-0.002 -0.16194,-0.002 l -0.40916,-0.001 c 0.27729,4.7e-4 0.31525,0.003 0.5711,0.003 z m 31.67099,-1.17546 c -0.65896,1.18492 -1.36814,2.34277 -2.1294,3.47685 -0.76401,-0.0685 -1.52826,-0.13816 -2.29188,-0.20902 -3.23195,-0.29957 -4.77005,-0.46482 -6.97878,-0.68437 1.22538,-0.48663 2.45572,-0.95946 3.70912,-1.36721 1.14544,-0.37264 2.30729,-0.69344 3.46365,-1.03205 1.30139,-0.0566 2.60138,-0.14133 3.9034,-0.18242 0.10793,-0.003 0.21596,0.002 0.32387,-9.4e-4 z m -9.7496,12.47822 c -2.12898,2.0222 -4.39725,3.85577 -6.76356,5.47614 -2.93408,0.003 -5.86804,0.0123 -8.80207,0.007 l -8.59313,-0.0151 c -0.13639,-7.1e-4 -0.54367,-0.0233 -0.40916,-0.001 4.93417,0.83134 9.83959,1.36383 14.76876,1.86537 0.0527,-0.004 0.10545,-0.0138 0.15806,-0.0192 -0.0173,0.0106 -0.0344,0.0202 -0.0516,0.0305 -0.0354,-0.003 -0.071,-0.006 -0.10643,-0.0113 -0.46805,0.0532 -0.93513,0.11653 -1.40305,0.17121 0.40241,0.004 0.78923,0.0179 1.19066,0.0249 -6.32079,3.66476 -13.06906,5.75818 -19.28016,5.49548 -2.6271,-0.11105 -4.4211,-1.02349 -5.59084,-2.50474 7.89311,-1.01473 15.77982,-2.09229 23.68033,-3.01475 -4.42069,-0.0446 -8.80099,0.0173 -11.32353,0.0128 l -13.24723,-0.0234 c 0.0177,-0.004 -0.4966,0.15448 -0.46496,0.14468 -0.0135,-0.0515 -0.0369,-0.0934 -0.0491,-0.14552 l 0.51398,0.001 c -0.33224,0.0987 -1.74884,0.52143 8.72627,-2.71339 -2.03817,0.36139 -4.07816,0.71295 -6.11508,1.08137 -1.09476,0.19799 -2.18338,0.42736 -3.27364,0.64902 -0.1216,-0.83986 -0.17133,-1.74053 -0.14858,-2.70088 1.96029,0.009 3.92055,0.007 5.88079,0.0104 2.22019,0.004 4.44252,0.0717 6.66373,0.11184 -0.85964,0.23102 -1.71814,0.46839 -2.57278,0.71366 -0.56265,0.17351 0.087,-0.0262 -0.43444,0.13458 1.57539,-0.2793 3.15091,-0.55825 4.72676,-0.83499 1.84449,0.0181 3.68801,0.008 5.52896,-0.10061 0.30001,-0.0175 -0.10045,-0.71466 -0.39523,-0.80649 5.73064,-1.00162 11.46059,-2.00826 17.18621,-3.03797 z"
       sodipodi:nodetypes="ccccccccsccsccccccccccsccsssccsscsccssssccsccccccccsscccsccccsssccscccsccsssccscscccccscssscccsscccscsccccccccscccscscccccccccccccccccccscccccsssscccscccsccccccccccscccccscccccccsccccccsccccccsscccccccsccscccccsccsccccsccc" />
    <path
       id="path11"
       style="display:inline;fill:none;fill-opacity:1;stroke:url(#linearGradient6);stroke-width:2.78559;stroke-linejoin:round;stroke-dasharray:none"
       d="m 134.6252,50.848615 c 2.87931,0.107413 5.939,0.911925 9.03368,2.1885 -4.21543,3.219235 -8.44673,6.417841 -12.75866,9.505518 -2.01555,1.44328 -4.07302,2.825773 -6.12063,4.223181 -1.86186,-8.834743 -0.94686,-15.437205 8.26609,-15.908255 0.51992,-0.02659 1.04659,-0.02875 1.57953,-0.009 z m 10.53853,2.848319 c 2.4693,1.142848 4.93878,2.590024 7.35814,4.261077 -3.87128,1.803873 -7.70201,3.687099 -11.39406,5.830171 -4.95804,2.877945 -9.27669,5.536187 -13.36256,8.134583 5.64241,-5.748117 11.31683,-11.757261 17.39848,-18.225831 z m 15.05784,10.479374 c 2.52952,2.377167 4.85109,4.933885 6.91268,7.550787 -6.63553,4.449814 -13.32904,8.813015 -19.90584,13.349018 -5.30497,3.65884 -10.58511,7.354148 -15.85089,11.069418 l 2.3189,6.179849 c 18.0097,-12.296678 19.76854,-13.576305 34.89901,-28.7048 3.70823,5.103505 6.2572,10.320445 6.86001,14.779467 0.0353,0.261058 0.0539,0.513878 0.0621,0.762104 1.4973,0.565808 2.9682,1.180727 4.42557,1.820488 -14.05388,5.227294 -22.16139,8.08814 -43.85611,17.710471 l 3.03449,8.08375 c 6.83424,-4.04351 15.72971,-8.73495 34.68153,-18.969028 3.22447,-1.741224 6.47923,-3.425589 9.71865,-5.139199 3.72837,1.830659 7.34025,3.875737 10.81112,6.176854 6.42609,4.260343 10.49915,10.477993 12.25979,16.931813 -10.72701,3.11301 -21.4486,6.25679 -32.02038,9.85639 -0.43198,0.1471 -0.86284,0.30112 -1.29478,0.44912 8.07887,-1.88249 16.19512,-3.62833 24.2179,-5.72772 0.41917,-0.10965 5.14719,-1.41222 9.49962,-2.94826 1.19837,5.68902 0.60389,11.44524 -1.83801,16.12301 -1.5851,1.13239 -3.11549,2.33792 -4.61975,3.57886 1.18313,-0.53937 2.34298,-1.11945 3.49614,-1.71106 -1.07069,1.58217 -2.3662,3.01168 -3.92145,4.20986 -4.24671,3.27171 -8.80308,6.15764 -13.53178,8.70303 0.0909,-0.0605 0.13656,-0.089 0.22793,-0.14977 2.0114,-1.34062 3.91166,-2.83195 5.78212,-4.36459 -1.3607,0.98665 -2.77222,1.89999 -4.21463,2.7675 1.37906,-1.17176 2.79818,-2.37311 4.98918,-4.11959 0.1639,-0.13056 0.20059,0.31965 0.11155,0.61278 2.36275,-1.96927 4.68795,-3.99059 7.0609,-5.94814 -7.15512,3.26176 -14.77642,5.68264 -21.90879,8.58262 -9.72594,3.95451 -17.62905,6.96894 -24.99406,9.75304 l 3.39422,9.04196 c -2.9078,1.62697 -5.80091,3.28044 -8.72148,4.88436 -14.47709,7.95036 -16.99478,8.32749 -22.99563,11.77966 0.45423,-4.75788 2.30591,-10.5801 4.6629,-16.49198 7.58293,-3.14382 15.24254,-6.03206 23.65999,-9.214 L 149.688,144.92986 c -0.42788,0.36579 -0.84302,0.7272 -1.33977,1.11716 -6.14032,4.82027 -10.83328,8.54193 -15.60311,12.0822 0.52775,-1.16895 1.0447,-2.35598 1.58259,-3.49269 -2.97103,-0.47203 -6.15217,-1.05893 -9.36617,-1.73532 4.12465,-1.57905 8.25373,-3.14892 12.33498,-4.8279 3.91874,-1.61217 7.83894,-3.22128 11.75063,-4.85085 l -2.22077,-5.91603 c -9.03043,4.65622 -17.95997,9.50638 -26.83069,14.46648 -3.81501,-1.00551 -7.56888,-2.29502 -11.04813,-3.97735 0.66064,-0.41756 1.29972,-0.8083 1.75419,-0.99671 1.75491,-0.72758 3.53427,-1.3955 5.32268,-2.0364 9.86858,-3.53656 19.63341,-7.39545 29.54128,-10.81524 l -4.59492,-12.24226 c -8.64483,5.89328 -13.26464,9.66007 -29.03651,22.23194 -1.38347,1.10278 -3.14236,1.95396 -4.42497,3.15517 -1.89805,-1.00588 -3.67557,-2.16404 -5.32549,-3.4642 0.57124,-0.33022 1.20676,-0.72143 1.56865,-0.9329 9.35105,-5.46379 18.44567,-11.36353 27.85406,-16.72796 1.75467,-1.00047 5.20298,-2.74605 9.17504,-4.76542 l -1.66012,-4.4247 c -9.17611,5.42909 -14.53403,9.66043 -34.54778,24.28288 -0.97773,0.71436 -2.23927,1.21091 -3.08209,2.04975 -3.804126,-3.17826 -6.715167,-7.30704 -8.246186,-12.64145 3.31007,-2.34365 5.93035,-4.17233 8.845906,-6.22037 -3.087995,1.52357 -6.167134,3.12038 -9.186194,4.88588 -0.262995,-1.12517 -0.45547,-2.30978 -0.592216,-3.54266 4.667208,-3.9025 9.34477,-7.79266 13.99554,-11.71499 -5.30696,3.71039 -9.662542,6.83557 -14.128817,10.53812 -0.02121,-0.28613 -0.08023,-0.5407 -0.09485,-0.83257 -0.233605,-4.72509 0.599906,-8.81144 2.150646,-12.39854 1.732664,-1.25223 3.997015,-2.70915 8.764421,-5.72531 8.58053,-5.42852 17.18716,-10.815388 25.78781,-16.212131 l -0.29824,-0.794597 c 0.84623,-0.228144 1.74821,-0.500136 2.55478,-0.704283 -0.36859,-1.212901 -0.76694,-2.41173 -1.15848,-3.632862 1.14723,-0.638019 2.29952,-1.267316 3.43548,-1.926298 10.32615,-5.990293 18.8106,-11.81889 26.90035,-18.011112 z m -31.43389,25.069151 1.71151,4.560123 c 5.21302,-4.222821 10.41955,-8.453301 15.50897,-12.823234 3.06073,-2.628038 5.95636,-5.439384 8.87369,-8.227787 -8.67082,5.539586 -17.3785,11.021968 -26.09417,16.490898 z m 26.09417,-16.490898 c 0.18344,-0.117202 0.36876,-0.231473 0.55217,-0.348726 0.12822,-0.08194 3.21253,-2.55478 3.68899,-3.266771 0.0759,-0.113342 -0.30871,-0.09214 -0.40995,-7.4e-4 -1.30307,1.176729 -2.56153,2.402654 -3.83121,3.616223 z m -24.38266,21.051021 c -3.44559,2.791113 -6.89796,5.574467 -10.30724,8.409098 -4.64721,3.8639 -9.26347,7.76476 -13.88357,11.66121 3.02045,-2.11179 6.34606,-4.42165 10.1924,-7.16696 4.95014,-3.53315 9.90735,-7.057216 14.87674,-10.563399 z m -28.40793,30.442078 c 1.66007,-0.81904 3.32282,-1.65678 4.97211,-2.41566 12.39839,-5.70478 21.32193,-9.72296 29.02356,-13.13889 l -2.39051,-6.36773 c -7.1075,4.85284 -17.3191,11.88713 -31.60516,21.92228 z m 38.69027,-3.04611 0.18922,0.50337 c 1.19457,-0.81436 2.37738,-1.62094 3.76988,-2.54767 -1.34437,0.69266 -2.72349,1.41611 -3.9591,2.0443 z m 3.9591,-2.0443 c 9.06651,-4.6714 19.79071,-10.46453 24.9591,-15.21847 0.14193,-0.13055 -0.23866,-0.50146 -0.40844,-0.40988 -3.23232,1.74345 -6.34473,3.70528 -9.4208,5.7116 -6.52663,4.25696 -11.28116,7.35545 -15.12986,9.91675 z m 0.82505,14.78994 1.26067,3.35921 c 1.7437,-0.89908 3.4719,-1.82831 5.22451,-2.71015 6.80985,-3.42644 14.01067,-6.0409 21.22649,-8.51342 -5.74648,1.33901 -11.47705,2.73623 -17.12765,4.42905 -3.5544,1.06482 -7.07718,2.22489 -10.58402,3.43531 z m 3.48144,9.27524 0.64084,1.7074 c 1.69776,-1.45128 2.90829,-2.65538 4.03477,-3.69565 -1.55987,0.65955 -3.11223,1.33698 -4.67561,1.98825 z m 4.67561,-1.98825 c 2.30687,-0.9754 4.61932,-1.93839 6.91477,-2.94032 0.12499,-0.0546 0.13609,-0.42583 8.3e-4,-0.40916 -3.33785,0.41125 -5.03436,1.61232 -6.91549,3.34948 z m 39.75347,1.82265 c -0.2955,0.24628 -0.58876,0.49562 -0.88613,0.7393 0.2535,-0.18382 0.524,-0.34396 0.7731,-0.53375 0.0503,-0.0385 0.0862,-0.11717 0.11299,-0.20555 z M 137.19012,71.437936 c 0.20527,0.0013 0.35473,0.04167 0.24151,0.117771 -1.38732,0.932886 -2.32612,1.545565 -3.50583,2.330642 0.86395,-0.816833 1.72671,-1.635919 2.68753,-2.332087 0.11053,-0.08002 0.37152,-0.117677 0.57679,-0.11633 z m -29.84347,25.540578 c -2.93927,2.397789 -5.85049,4.827126 -8.728879,7.294706 2.461509,-2.85206 5.445039,-5.262574 8.728879,-7.294706 z m 67.72782,61.376436 c -1.96519,6.37793 -5.59585,12.38064 -10.20676,17.51643 0.4483,-1.29047 0.84344,-2.45129 1.02743,-2.7872 1.85446,-3.38562 4.1636,-6.50316 6.15552,-9.80978 0.0705,-0.11689 0.11923,-0.47661 7.3e-4,-0.40914 -4.42584,2.51867 -7.42579,7.28752 -12.07797,9.46837 l 2.33289,6.21665 c -8.68341,8.45615 -19.92395,13.91423 -29.79793,13.4966 -2.98267,-0.1261 -4.87913,-1.29647 -6.01059,-3.15638 1.75696,-1.06494 3.50708,-2.14021 5.27467,-3.18808 -1.8248,0.95911 -3.63109,1.94469 -5.43227,2.94293 -0.68611,-1.24682 -1.06145,-2.77128 -1.13808,-4.54736 0.46524,-0.28305 0.92456,-0.57636 1.3933,-0.85342 23.08926,-13.64828 22.0746,-11.37298 31.25226,-16.57566 l 0.95542,2.5466 c 7.89518,-5.19712 12.97627,-8.58953 16.2714,-10.86056 z m -16.2714,10.86056 c -0.58498,0.38507 -0.87941,0.58397 -1.49601,0.98936 -8.31977,5.47 -16.96749,10.41872 -25.53461,15.49755 7.92524,-4.16556 15.98532,-8.04654 23.48303,-12.22788 1.78057,-0.0546 3.32063,-0.48588 4.71793,-1.14091 z"
       sodipodi:nodetypes="ccscscccsccccscccsccccscscscsccccscsccsccsccsccccccccsccccssccscccsccscccccccccsccccscccscccsssccscscccsccccccccscscccscsccccccsccccscsccsscccccsscccscccccccccscccc" />
  </g>
  <g
     inkscape:groupmode="layer"
     id="layer3"
     inkscape:label="fond_blanc"
     style="display:none"
     sodipodi:insensitive="true">
    <path
       id="rect8"
       style="display:inline;fill:#ffffff;fill-opacity:1;stroke:url(#radialGradient13);stroke-width:2.78559;stroke-linejoin:round;stroke-dasharray:none"
       d="m 31.125044,25.130193 -3.263948,209.782957 250.787944,1.02168 0.0326,-210.367339 z M 134.62553,50.848425 c 16.52122,0.616423 38.87378,23.079465 40.83019,37.551434 0.0353,0.261057 0.0539,0.513877 0.0621,0.762102 6.65798,2.515947 12.91685,5.772818 18.81525,9.683335 15.4341,10.232434 17.49688,31.734544 5.77907,40.762024 -7.24536,5.58191 -15.32331,10.18271 -23.78655,13.54323 -3.22873,20.96926 -25.82,39.65734 -43.81686,38.89615 -13.30242,-0.56261 -5.91245,-21.07166 1.81912,-37.41045 -17.23198,-2.73779 -41.076007,-7.45599 -42.242745,-31.055 -1.161423,-23.49168 23.144605,-31.831629 38.959345,-35.834428 -5.25151,-17.280654 -13.80212,-36.081426 2.00152,-36.889451 0.51992,-0.0266 1.0466,-0.02883 1.57956,-0.009 z"
       sodipodi:nodetypes="cccccssccscscscsss" />
  </g>
  <g
     inkscape:groupmode="layer"
     id="layer4"
     inkscape:label="fientes"
     style="display:inline"
     transform="translate(-50.455598,-89.061776)">
    <circle
       style="fill:url(#radialGradient4);fill-opacity:1;stroke:url(#linearGradient2);stroke-width:2.78559;stroke-linejoin:round;stroke-dasharray:none;stroke-opacity:1"
       id="path16-1"
       cx="112.83296"
       cy="215.88483"
       r="5.208076"
       transform="rotate(0.10121125)" />
    <circle
       style="display:inline;fill:url(#radialGradient16);fill-opacity:1;stroke:#1d72f1;stroke-width:2.78559;stroke-linejoin:round;stroke-dasharray:none;stroke-opacity:1"
       id="path16-1-2"
       cx="-3.7033229"
       cy="216.26514"
       r="5.208076"
       transform="rotate(0.10121125)" />
    <circle
       style="display:inline;fill:url(#radialGradient15);fill-opacity:1;stroke:url(#linearGradient11);stroke-width:2.78559;stroke-linejoin:round;stroke-dasharray:none;stroke-opacity:1"
       id="path16-1-6"
       cx="59.966408"
       cy="213.75508"
       r="5.208076"
       transform="rotate(0.10121125)" />
  </g>
  <g
     inkscape:label="Calque 1"
     inkscape:groupmode="layer"
     id="layer1"
     style="display:inline">
    <path
       style="fill:#000000;stroke:url(#linearGradient64);stroke-width:2.78559;stroke-linejoin:round;stroke-dasharray:none;stroke-opacity:1"
       d="m 93.291529,110.97425 c -17.447144,-8.9054 -17.160867,-8.90489 -17.160867,-8.90489 l -7.172315,3.52197 6.885021,-2.94993 -6.869858,-5.63835 6.586614,3.9202 1.150423,-8.200683 -0.0058,8.488973 z"
       id="path3"
       sodipodi:nodetypes="ccccccccc"
       inkscape:label="patte_2" />
    <path
       style="fill:#1d72f1;stroke:url(#linearGradient62);stroke-width:2.78559;stroke-linejoin:round;stroke-dasharray:none;stroke-opacity:1;fill-opacity:1"
       d="m 94.175649,136.90386 c -17.634624,8.52816 -17.461334,8.30028 -17.461334,8.30028 l -1.524267,7.84367 1.806718,-7.26923 -8.642835,2.07055 7.102322,-2.8824 -5.841581,-5.86944 6.762638,5.1312 z"
       id="path3-3"
       sodipodi:nodetypes="ccccccccc"
       inkscape:label="patte_1" />
    <path
       style="display:inline;fill:#ffffff;fill-opacity:1;stroke:url(#linearGradient55);stroke-width:2.78559;stroke-linejoin:round;stroke-dasharray:none;stroke-opacity:1"
       d="m 238.88759,84.010654 -24.60961,33.100576 20.40863,28.67904 -32.30101,-13.96937 4.12148,-16.76933 -6.51659,-17.197309 z"
       id="path15"
       inkscape:label="bec"
       sodipodi:nodetypes="ccccccc" />
    <circle
       style="fill:#ffffff;fill-opacity:1;stroke:url(#linearGradient51);stroke-width:2.78559;stroke-linejoin:round;stroke-dasharray:none;stroke-opacity:1"
       id="path13"
       cx="189.52422"
       cy="97.500832"
       r="19.640884"
       inkscape:label="oeil"
       transform="rotate(0.10121125)" />
    <circle
       style="fill:#1d72f1;fill-opacity:1;stroke:#1d72f1;stroke-width:2.78559;stroke-linejoin:round;stroke-dasharray:none;stroke-opacity:1"
       id="path14"
       cx="196.88954"
       cy="92.590607"
       r="3.2734809"
       inkscape:label="pupille"
       transform="rotate(0.10121125)" />
  </g>
</svg>
