<?xml version="1.0" encoding="UTF-8" standalone="no"?>
<!-- Uploaded to: SVG Repo, www.svgrepo.com, Generator: SVG Repo Mixer Tools -->

<svg
   aria-label="C++"
   role="img"
   viewBox="0 0 512 512"
   version="1.1"
   id="svg4"
   sodipodi:docname="cplusplus-svgrepo-com.svg"
   inkscape:export-filename="cplusplus.png"
   inkscape:export-xdpi="96"
   inkscape:export-ydpi="96"
   inkscape:version="1.3.2 (091e20e, 2023-11-25, custom)"
   xmlns:inkscape="http://www.inkscape.org/namespaces/inkscape"
   xmlns:sodipodi="http://sodipodi.sourceforge.net/DTD/sodipodi-0.dtd"
   xmlns="http://www.w3.org/2000/svg"
   xmlns:svg="http://www.w3.org/2000/svg">
  <defs
     id="defs4" />
  <sodipodi:namedview
     id="namedview4"
     pagecolor="#ffffff"
     bordercolor="#000000"
     borderopacity="0.25"
     inkscape:showpageshadow="2"
     inkscape:pageopacity="0.0"
     inkscape:pagecheckerboard="0"
     inkscape:deskcolor="#d1d1d1"
     inkscape:zoom="1.5175781"
     inkscape:cx="255.67053"
     inkscape:cy="203.28443"
     inkscape:window-width="2400"
     inkscape:window-height="1261"
     inkscape:window-x="-9"
     inkscape:window-y="-9"
     inkscape:window-maximized="1"
     inkscape:current-layer="svg4" />
  <rect
     width="512"
     height="512"
     rx="15%"
     fill="#ffffff"
     id="rect1"
     style="fill:#ffffff;fill-opacity:0" />
  <g
     id="g1"
     transform="matrix(1.3331597,0,0,1.3331597,-84.485926,-85.955476)"
     inkscape:export-filename="..\PNG\cplusplus.png"
     inkscape:export-xdpi="96"
     inkscape:export-ydpi="96">
    <path
       fill="#004482"
       d="m 270.3,445 141.1,-81.4 c 4.1,-2.3 7.8,-6.4 10.4,-11 l -166.3,-96 -166.3,96 c 2.7,4.6 6.4,8.7 10.4,11 L 240.8,445 c 8.1,4.7 21.4,4.7 29.5,0 z"
       id="path1" />
    <path
       fill="#659ad2"
       d="m 421.8,160.5 c -2.7,-4.6 -6.4,-8.7 -10.4,-11 L 270.3,68 c -8.1,-4.7 -21.4,-4.7 -29.6,0 l -141,81.5 c -8.1,4.7 -14.8,16.2 -14.8,25.6 V 338 c 0,4.7 1.7,9.9 4.3,14.6 l 166.3,-96 z"
       id="path2" />
    <circle
       cx="256"
       cy="256"
       r="86"
       fill="none"
       stroke="#ffffff"
       stroke-width="57"
       id="circle2" />
    <path
       fill="#00599c"
       d="m 421.8,352.6 c 2.7,-4.6 4.3,-9.9 4.3,-14.6 V 175.2 c 0,-4.7 -1.7,-10 -4.3,-14.7 l -166.3,96.1 z"
       id="path3" />
    <path
       stroke="#ffffff"
       stroke-width="13"
       d="m 350.5,237 v 39 M 331,257 h 39 m 27.5,-20 v 39 M 378,257 h 39"
       id="path4" />
  </g>
</svg>
