<?xml version="1.0" encoding="UTF-8" standalone="no"?>
<svg
   width="511.99997"
   height="512"
   inkscape:version="1.3.2 (091e20e, 2023-11-25, custom)"
   sodipodi:docname="DBeaver.svg"
   version="1.1"
   viewBox="0 0 511.99997 512"
   id="svg5"
   xmlns:inkscape="http://www.inkscape.org/namespaces/inkscape"
   xmlns:sodipodi="http://sodipodi.sourceforge.net/DTD/sodipodi-0.dtd"
   xmlns="http://www.w3.org/2000/svg"
   xmlns:svg="http://www.w3.org/2000/svg"
   xmlns:rdf="http://www.w3.org/1999/02/22-rdf-syntax-ns#"
   xmlns:cc="http://creativecommons.org/ns#"
   xmlns:dc="http://purl.org/dc/elements/1.1/">
  <defs
     id="defs5" />
  <metadata
     id="metadata1">
    <rdf:RDF>
      <cc:Work
         rdf:about="">
        <dc:format>image/svg+xml</dc:format>
        <dc:type
           rdf:resource="http://purl.org/dc/dcmitype/StillImage" />
        <dc:title />
      </cc:Work>
    </rdf:RDF>
  </metadata>
  <sodipodi:namedview
     bordercolor="#666666"
     borderopacity="1"
     gridtolerance="10"
     guidetolerance="10"
     inkscape:current-layer="svg5"
     inkscape:cx="-678.05549"
     inkscape:cy="391.18586"
     inkscape:document-rotation="0"
     inkscape:pageopacity="0"
     inkscape:pageshadow="2"
     inkscape:window-height="991"
     inkscape:window-maximized="1"
     inkscape:window-width="1920"
     inkscape:window-x="-9"
     inkscape:window-y="1341"
     inkscape:zoom="0.32593203"
     objecttolerance="10"
     pagecolor="#ffffff"
     showgrid="false"
     id="namedview1"
     inkscape:showpageshadow="2"
     inkscape:pagecheckerboard="0"
     inkscape:deskcolor="#d1d1d1" />
  <g
     id="g6"
     transform="matrix(2.5441044,0,0,2.5646214,-35.597195,-71.140546)">
    <path
       d="M 118,226 C 95.3,220.32 75.1,199.4 55.4,161.3 27.3,106.9 23.7,57.3 46.73,42.3 c 7.89,-4.88 19.4,-4.7 29.6,0.443 5.66,2.86 7.27,4.66 10.5,11.7 3.97,8.67 5.52,18.6 6.19,39.6 l 0.618,19.3 3.18,-7.29 c 1.75,-4.01 5.28,-10.9 7.85,-15.4 2.57,-4.45 4.68,-9.31 4.68,-10.8 0,-1.48 -1.12,-5.35 -2.5,-8.62 -2.56,-6.08 -2.97,-9.38 -1.88,-14.9 0.624,-3.12 0.631,-3.13 7.25,-3.13 l 6.62,-0.0038 4.13,-5.34 c 4.66,-6.04 13.7,-13.4 21.5,-17.4 4.52,-2.34 6.45,-2.72 13.8,-2.72 7.58,0 9.08,0.319 13.4,2.84 2.66,1.56 4.62,3.05 4.36,3.31 -0.26,0.26 -3.07,-0.286 -6.26,-1.21 -7.94,-2.31 -15.9,-1.48 -24,2.5 -19.2,9.44 -38.7,45 -31.1,56.6 1.03,1.58 3.54,2.99 7.16,4.04 5.88,1.71 8.72,1.26 3.81,-0.608 -10.3,-3.91 -8.17,-13.2 6.9,-30.1 l 8.59,-9.63 -0.569,-5.51 c -0.515,-4.99 -0.357,-5.63 1.68,-6.72 2.8,-1.5 7.37,-0.653 10.7,1.99 3.16,2.49 13,2.72 21.3,0.509 3.02,-0.812 8.3,-1.48 11.7,-1.49 5.82,-0.0111 6.27,0.155 6.86,2.49 0.345,1.37 0.373,3.16 0.062,3.97 -0.311,0.81 0.378,3.6 1.53,6.21 2.59,5.86 3.56,19.7 1.91,27.3 -0.638,2.98 -2.94,9.08 -5.12,13.6 -5.45,11.2 -5.66,12.9 -2.53,20.3 5.37,12.7 9.29,37 8.28,51.1 -0.299,4.15 -1.74,13.4 -3.21,20.5 -2.8,13.7 -2.58,18.5 1,21.5 0.822,0.683 1.5,2.68 1.5,4.44 0,3.72 -2.8,6.71 -7.9,8.41 -4.78,1.6 -15.1,1.42 -20.1,-0.361 -5.97,-2.11 -10.9,-1.87 -15,0.723 -3.08,1.95 -5.05,2.24 -16.5,2.46 -8.83,0.166 -14.9,-0.224 -18.9,-1.22 z m -15.2,-35.2 c -8.89,-26.1 -6.13,-55.4 8.09,-85.9 l 4.28,-9.16 -4.58,-3.98 -4.01,8.66 c -16.3,35.2 -18.8,66.2 -7.12,89.3 3.09,6.12 5.89,10.9 6.41,10.9 0.138,0 -1.24,-4.39 -3.06,-9.75 z m 76.5,-87.5 2.1,-5.25 -0.456,4.37 c -0.259,2.49 -0.0798,4 0.416,3.5 0.818,-0.818 5.97,-13.7 5.97,-15 0,-0.311 -1.36,0.582 -3.03,1.98 -3.09,2.6 -8.64,4.61 -12.8,4.62 -2.1,0.0051 -2.24,0.329 -1.66,3.76 1.14,6.77 1.44,7.25 4.46,7.25 2.52,0 3.12,-0.629 4.97,-5.25 z"
       fill="#fcfbfb"
       inkscape:connector-curvature="0"
       id="path2" />
    <path
       d="M 118,226 C 95.3,220.32 75.1,199.4 55.4,161.3 33.9,119.6 26.5,81 35.4,57.3 c 6.4,-17.1 23.5,-23 41,-14.2 5.66,2.86 7.27,4.66 10.5,11.7 3.97,8.67 5.52,18.6 6.19,39.6 l 0.618,19.3 3.18,-7.29 c 1.75,-4.01 5.28,-10.9 7.85,-15.4 2.57,-4.45 4.68,-9.31 4.68,-10.8 0,-1.48 -1.12,-5.35 -2.5,-8.62 -2.56,-6.08 -2.97,-9.38 -1.88,-14.9 0.624,-3.12 0.631,-3.13 7.25,-3.13 l 6.62,-0.0038 4.13,-5.34 c 4.66,-6.04 13.7,-13.4 21.5,-17.4 4.52,-2.34 6.45,-2.72 13.8,-2.72 7.58,0 9.08,0.319 13.4,2.84 2.66,1.56 4.62,3.05 4.36,3.31 -0.26,0.26 -3.07,-0.286 -6.26,-1.21 -7.94,-2.31 -15.9,-1.48 -24,2.5 -19.2,9.44 -38.7,45 -31.1,56.6 1.03,1.58 3.54,2.99 7.16,4.04 5.88,1.71 8.72,1.26 3.81,-0.608 -10.3,-3.91 -8.17,-13.2 6.9,-30.1 l 8.59,-9.63 -0.569,-5.51 c -0.515,-4.99 -0.357,-5.63 1.68,-6.72 2.8,-1.5 7.37,-0.653 10.7,1.99 3.16,2.49 13,2.72 21.3,0.509 3.02,-0.812 8.3,-1.48 11.7,-1.49 5.82,-0.0111 6.27,0.155 6.86,2.49 0.345,1.37 0.373,3.16 0.062,3.97 -0.311,0.81 0.378,3.6 1.53,6.21 2.59,5.86 3.56,19.7 1.91,27.3 -0.638,2.98 -2.94,9.08 -5.12,13.6 -5.45,11.2 -5.66,12.9 -2.53,20.3 5.37,12.7 9.29,37 8.28,51.1 -0.299,4.15 -1.74,13.4 -3.21,20.5 -2.8,13.7 -2.58,18.5 1,21.5 0.822,0.683 1.5,2.68 1.5,4.44 0,3.72 -2.8,6.71 -7.9,8.41 -4.78,1.6 -15.1,1.42 -20.1,-0.361 -5.97,-2.11 -10.9,-1.87 -15,0.723 -3.08,1.95 -5.05,2.24 -16.5,2.46 -8.83,0.166 -14.9,-0.224 -18.9,-1.22 z m -15.2,-35.2 c -8.89,-26.1 -6.13,-55.4 8.09,-85.9 l 4.28,-9.16 -4.58,-3.98 -4.01,8.66 c -16.3,35.2 -18.8,66.2 -7.12,89.3 3.09,6.12 5.89,10.9 6.41,10.9 0.138,0 -1.24,-4.39 -3.06,-9.75 z m 76.5,-87.5 2.1,-5.25 -0.456,4.37 c -0.259,2.49 -0.0798,4 0.416,3.5 0.818,-0.818 5.97,-13.7 5.97,-15 0,-0.311 -1.36,0.582 -3.03,1.98 -3.09,2.6 -8.64,4.61 -12.8,4.62 -2.1,0.0051 -2.24,0.329 -1.66,3.76 1.14,6.77 1.44,7.25 4.46,7.25 2.52,0 3.12,-0.629 4.97,-5.25 z"
       fill="#fbfbfb"
       inkscape:connector-curvature="0"
       id="path3" />
    <path
       d="M 118,226 C 105.6,222.89 90.9,212.9 80.4,200.4 62.8,179.5 44,142.2 36.2,113 33.4,102.4 32.96,99 32.54,84.3 32.119,69.4 32.293,66.9 34.15,60.7 c 2.52,-8.31 5.31,-12.6 10.9,-16.9 8.09,-6.17 20.1,-6.5 31.3,-0.859 5.66,2.86 7.27,4.66 10.5,11.7 3.97,8.67 5.52,18.6 6.19,39.6 l 0.618,19.3 3.18,-7.29 c 1.75,-4.01 5.28,-10.9 7.85,-15.4 2.57,-4.45 4.68,-9.31 4.68,-10.8 0,-1.48 -1.12,-5.35 -2.5,-8.62 -2.56,-6.08 -2.97,-9.38 -1.88,-14.9 0.624,-3.12 0.631,-3.13 7.25,-3.13 l 6.62,-0.0038 4.13,-5.34 c 4.66,-6.04 13.7,-13.4 21.5,-17.4 4.52,-2.34 6.45,-2.72 13.8,-2.72 7.58,0 9.08,0.319 13.4,2.84 2.66,1.56 4.62,3.05 4.36,3.31 -0.26,0.26 -3.07,-0.286 -6.26,-1.21 -7.94,-2.31 -15.9,-1.48 -24,2.5 -19.2,9.44 -38.7,45 -31.1,56.6 1.03,1.58 3.54,2.99 7.16,4.04 5.88,1.71 8.72,1.26 3.81,-0.608 -10.3,-3.91 -8.17,-13.2 6.9,-30.1 l 8.59,-9.63 -0.569,-5.51 c -0.515,-4.99 -0.357,-5.63 1.68,-6.72 2.8,-1.5 7.37,-0.653 10.7,1.99 3.16,2.49 13,2.72 21.3,0.509 3.02,-0.812 8.3,-1.48 11.7,-1.49 5.82,-0.0111 6.27,0.155 6.86,2.49 0.345,1.37 0.373,3.16 0.062,3.97 -0.311,0.81 0.378,3.6 1.53,6.21 2.59,5.86 3.56,19.7 1.91,27.3 -0.638,2.98 -2.94,9.08 -5.12,13.6 -5.45,11.2 -5.66,12.9 -2.53,20.3 5.37,12.7 9.29,37 8.28,51.1 -0.299,4.15 -1.74,13.4 -3.21,20.5 -2.8,13.7 -2.58,18.5 1,21.5 0.822,0.683 1.5,2.68 1.5,4.44 0,3.72 -2.8,6.71 -7.9,8.41 -4.78,1.6 -15.1,1.42 -20.1,-0.361 -5.97,-2.11 -10.9,-1.87 -15,0.723 -3.08,1.95 -5.05,2.24 -16.5,2.46 -8.83,0.166 -14.9,-0.224 -18.9,-1.22 z m -15.2,-35.2 c -8.89,-26.1 -6.13,-55.4 8.09,-85.9 l 4.28,-9.16 -4.58,-3.98 -4.01,8.66 c -16.3,35.2 -18.8,66.2 -7.12,89.3 3.09,6.12 5.89,10.9 6.41,10.9 0.138,0 -1.24,-4.39 -3.06,-9.75 z m 76.5,-87.5 2.1,-5.25 -0.456,4.37 c -0.259,2.49 -0.0798,4 0.416,3.5 0.818,-0.818 5.97,-13.7 5.97,-15 0,-0.311 -1.36,0.582 -3.03,1.98 -3.09,2.6 -8.64,4.61 -12.8,4.62 -2.1,0.0051 -2.24,0.329 -1.66,3.76 1.14,6.77 1.44,7.25 4.46,7.25 2.52,0 3.12,-0.629 4.97,-5.25 z"
       fill="#a08470"
       inkscape:connector-curvature="0"
       id="path4" />
    <path
       d="M 118,226 C 95.6,219.86 75.1,197.9 55.8,159.5 39.5,127.1 32.6,101.3 33.7,77.6 34.606,58.2 40.08,47.5 51.6,42.5 c 6.46,-2.78 15.7,-2.41 23.3,0.932 8.83,3.86 12,8.32 15.7,21.9 1.72,6.37 2.15,11.7 2.57,31.2 l 0.507,23.5 1.72,-5 c 1.89,-5.48 8.9,-19.8 12.5,-25.4 3.37,-5.34 3.65,-10.6 0.876,-16.6 -1.48,-3.18 -2.33,-6.88 -2.33,-10.2 -0.0152,-8.04 0.248,-8.32 7.85,-8.39 l 6.64,-0.057 3.76,-4.94 c 4.62,-6.06 13.3,-13 21.2,-17 5.05,-2.54 7.02,-2.97 13.5,-2.93 6.19,0.0369 8.42,0.508 12.1,2.56 2.48,1.38 3.6,2.23 2.5,1.88 -14.2,-4.48 -26.7,-1.15 -38.8,10.4 -15,14.2 -25.2,38.4 -20.2,47.9 1.91,3.7 1.48,4.06 -1.29,1.08 l -1.96,-2.11 -1.95,3.86 c -4.36,8.62 -11.3,27.5 -13.9,37.9 -2.38,9.52 -2.75,13 -2.74,25.5 0.0184,13 0.295,15.3 2.69,22.5 3.21,9.64 11.3,23.3 15.3,25.7 0.571,0.347 -0.0588,-3.5 -1.4,-8.55 -2.9,-10.9 -3.56,-29.6 -1.27,-36.1 l 1.37,-3.88 3.08,5.38 c 5.27,9.22 20.5,22.8 27.5,24.6 5.22,1.31 5.1,-5.51 -0.369,-20.2 -4.72,-12.7 -5.66,-17.5 -5.7,-29.5 -0.0364,-11.9 1.45,-17.3 8.24,-29.6 4.64,-8.45 4.97,-12.1 2.01,-21.5 -1.09,-3.49 -1.99,-6.92 -2,-7.62 -0.007,-0.705 2.35,0.483 5.24,2.64 7.38,5.52 17.1,10.2 22.6,10.8 4.08,0.483 5.12,0.205 7.86,-2.1 3.41,-2.87 7.27,-11.7 7.27,-16.6 0,-1.63 0.43,-2.96 0.955,-2.96 1.3,0 2.34,6.08 1.88,10.9 l -0.381,3.99 2.77,-2.66 c 1.53,-1.46 3.68,-4.94 4.8,-7.72 l 2.02,-5.06 -0.331,8.53 c -0.299,7.72 -0.777,9.48 -5.02,18.6 -2.87,6.14 -4.69,11.4 -4.69,13.6 0,1.99 1.35,6.99 3,11.1 7.03,17.6 8.9,44.7 4.5,65.1 -3.33,15.4 -3.29,20.5 0.162,24.6 2.18,2.59 2.5,3.63 1.75,5.72 -1.39,3.91 -5.37,6.27 -12.7,7.52 -6.01,1.03 -7.34,0.926 -13.5,-1.06 -8.69,-2.8 -10.7,-2.76 -16.4,0.299 -4.36,2.32 -5.64,2.49 -18,2.41 -7.8,-0.0524 -15.3,-0.649 -18.2,-1.44 z m 59.6,-117 c 0.862,-0.688 2.09,-2.15 2.74,-3.25 1.11,-1.9 1.14,-1.89 0.557,0.25 -0.92,3.36 1.22,2.74 3.1,-0.913 2.31,-4.47 5.52,-14.1 4.91,-14.7 -0.282,-0.282 -1.75,0.663 -3.25,2.1 -3.36,3.2 -7.23,4.74 -11.9,4.74 h -3.56 l 0.477,4.97 c 0.688,7.16 3.3,9.7 6.96,6.78 z m -1.68,-45.1 c -10.1,-4.75 -12.5,-11.4 -5.5,-14.8 4.57,-2.23 16.8,-4.31 20.3,-3.43 2.4,0.603 2.73,1.16 2.73,4.7 0,6.88 -6.2,16 -10.9,15.9 -0.888,-0.005 -3.87,-1.07 -6.62,-2.37 z m -34.1,-5.87 c 1.18,-1.82 1.25,-3.04 0.337,-6.42 -2.09,-7.75 2.72,-9.47 12.6,-4.5 l 5.61,2.83 -5.28,1.66 c -2.9,0.915 -7.12,3.24 -9.37,5.17 -4.74,4.06 -5.94,4.45 -3.87,1.26 z"
       fill="#45352f"
       inkscape:connector-curvature="0"
       id="path5" />
  </g>
  <rect
     width="511.99997"
     height="511.99997"
     rx="15.000002%"
     fill="#ffffff"
     id="rect1"
     style="fill:#ffffff;fill-opacity:0;stroke-width:1"
     x="0"
     y="1.0994714e-05"
     inkscape:export-filename="..\PNG\dbeaver.png"
     inkscape:export-xdpi="96"
     inkscape:export-ydpi="96" />
</svg>
