<?xml version="1.0" encoding="UTF-8" standalone="no"?>
<!-- Uploaded to: SVG Repo, www.svgrepo.com, Generator: SVG Repo Mixer Tools -->

<svg
   aria-label="Debian"
   role="img"
   viewBox="0 0 512 512"
   version="1.1"
   id="svg1"
   sodipodi:docname="debian-svgrepo-com.svg"
   inkscape:export-filename="debian.png"
   inkscape:export-xdpi="96"
   inkscape:export-ydpi="96"
   inkscape:version="1.3.2 (091e20e, 2023-11-25, custom)"
   xmlns:inkscape="http://www.inkscape.org/namespaces/inkscape"
   xmlns:sodipodi="http://sodipodi.sourceforge.net/DTD/sodipodi-0.dtd"
   xmlns="http://www.w3.org/2000/svg"
   xmlns:svg="http://www.w3.org/2000/svg">
  <defs
     id="defs1" />
  <sodipodi:namedview
     id="namedview1"
     pagecolor="#ffffff"
     bordercolor="#000000"
     borderopacity="0.25"
     inkscape:showpageshadow="2"
     inkscape:pageopacity="0.0"
     inkscape:pagecheckerboard="0"
     inkscape:deskcolor="#d1d1d1"
     inkscape:zoom="1.5175781"
     inkscape:cx="255.67053"
     inkscape:cy="308.71558"
     inkscape:window-width="1920"
     inkscape:window-height="991"
     inkscape:window-x="-9"
     inkscape:window-y="1341"
     inkscape:window-maximized="1"
     inkscape:current-layer="svg1" />
  <rect
     width="512"
     height="512"
     rx="15%"
     fill="#ffffff"
     id="rect1"
     style="fill:#ffffff;fill-opacity:0" />
  <path
     d="m 415.80502,219.87972 c 0.48001,13.2001 -3.60003,20.40016 -7.20006,32.40025 -12.00008,3.60002 -9.60006,16.80012 -10.80007,20.40015 -7.20005,3.60004 -42.00033,40.80031 -30.00023,20.40016 -12.0001,8.40006 -9.60008,12.00009 -28.80021,18.00013 l -0.48001,-1.20001 c -46.80035,21.60017 -112.80086,-21.60016 -112.80086,-81.60061 -0.48001,3.60002 -1.20001,2.40002 -2.40002,3.60002 -1.20001,-67.20051 76.80059,-105.60079 122.40094,-64.80049 -30.00023,-34.80025 -93.60072,-37.20028 -115.20087,4.80003 -12.00011,7.20006 -14.40012,31.20024 -19.20016,34.80027 -6.00004,105.6008 90.00068,174.00133 180.00137,93.60071 9.60007,-7.20005 19.20014,-19.20014 22.80017,-20.40015 -3.60003,6.84005 0.72001,2.40002 -2.40002,8.40006 7.20006,-12.00008 1.20002,-37.20028 14.40011,-19.44014 0.96001,-22.80018 26.4002,-69.60054 13.20011,-27.60021 3.60003,-14.40011 1.20001,-43.20034 7.20005,-16.80013 -3.60002,-14.4001 3.60003,-25.2002 6.00004,-33.60026 -7.20005,-18.00013 -21.60017,-51.60039 -4.80003,-27.6002 -34.80026,-72.000549 1.20001,-42.00032 14.4001,6.00004 -1.20001,-12.9721 -5.88004,-25.44019 -9.60007,-37.20028 2.40002,1.20001 -4.80003,-26.4002 3.60003,-7.20006 C 445.32525,85.238705 410.52498,50.438443 378.12473,31.238297 399.7249,52.83846 315.72427,13.23816 295.32411,6.0381061 309.72422,14.43817 222.12355,14.43817 270.72393,6.9981134 253.9238,5.7981043 232.32363,11.798149 252.72378,0.9980679 239.76369,1.7180733 222.72356,8.1981225 227.5236,2.198077 202.32341,15.398177 125.52282,66.998568 147.123,39.398358 119.52278,64.59855 102.72265,82.598686 88.322542,116.19894 -6.4781759,249.39995 85.922533,449.80147 235.92366,506.2019 c 13.2001,4.80003 34.80027,4.80003 52.8004,4.80003 -20.40016,-6.00004 -24.00018,-2.40002 -44.40033,-9.60007 -14.40012,-6.00006 -18.00014,-14.40012 -28.80023,-24.00019 -0.84,9.60007 -28.80022,-0.6 -19.20014,-12.00009 -6.00004,-0.48 -16.80013,-10.80007 -20.40015,-16.80012 -10.80008,2.40002 -20.40016,-16.80013 -20.40016,-24.00018 -1.2,3.60002 -44.40034,-39.60031 -19.20015,-27.60021 -6.00004,-6.00006 -14.4001,-7.20007 -7.20005,-14.40012 -6.00004,-16.80013 -21.60016,-24.00018 -3.60003,-18.00013 -26.400196,-18.00013 -42.000319,-46.80035 -30.000227,-48.00036 -6.00004,-7.20006 -6.00004,-13.2001 -4.80003,-22.80017 -20.400154,-44.40034 1.20001,-99.60076 16.800127,-136.80105 -25.200199,2.40003 45.60035,-60.000446 64.80049,-60.000446 -2.40002,-9.600072 13.20009,-21.600163 32.40025,-27.600209 -1.20001,-1.200008 67.20051,-31.200235 38.40029,-9.600072 80.40061,-26.4002 169.20128,43.200327 174.00131,115.200867 4.80004,1.20001 -0.6,54.00041 -1.2,57.60043"
     fill="#d70751"
     id="path1"
     style="stroke-width:1.20001"
     inkscape:export-filename="..\PNG\debian.png"
     inkscape:export-xdpi="96"
     inkscape:export-ydpi="96" />
</svg>
