<?xml version="1.0" encoding="UTF-8" standalone="no"?>
<!-- Uploaded to: SVG Repo, www.svgrepo.com, Transformed by: SVG Repo Mixer Tools -->

<svg
   aria-label="Docker"
   role="img"
   viewBox="0 0 512 512"
   width="800px"
   height="800px"
   fill="#000000"
   version="1.1"
   id="svg2"
   sodipodi:docname="docker-svgrepo-com.svg"
   inkscape:export-filename="docker.png"
   inkscape:export-xdpi="61.439999"
   inkscape:export-ydpi="61.439999"
   inkscape:version="1.3.2 (091e20e, 2023-11-25, custom)"
   xmlns:inkscape="http://www.inkscape.org/namespaces/inkscape"
   xmlns:sodipodi="http://sodipodi.sourceforge.net/DTD/sodipodi-0.dtd"
   xmlns="http://www.w3.org/2000/svg"
   xmlns:svg="http://www.w3.org/2000/svg">
  <defs
     id="defs2" />
  <sodipodi:namedview
     id="namedview2"
     pagecolor="#ffffff"
     bordercolor="#000000"
     borderopacity="0.25"
     inkscape:showpageshadow="2"
     inkscape:pageopacity="0.0"
     inkscape:pagecheckerboard="0"
     inkscape:deskcolor="#d1d1d1"
     inkscape:zoom="0.97125"
     inkscape:cx="399.4852"
     inkscape:cy="400"
     inkscape:window-width="1920"
     inkscape:window-height="991"
     inkscape:window-x="-9"
     inkscape:window-y="1341"
     inkscape:window-maximized="1"
     inkscape:current-layer="svg2" />
  <g
     id="SVGRepo_iconCarrier"
     style="fill:#000000;fill-opacity:0"
     inkscape:export-filename="..\PNG\docker.png"
     inkscape:export-xdpi="61.439999"
     inkscape:export-ydpi="61.439999">
    <rect
       width="512"
       height="512"
       rx="15.000001%"
       fill="#ffffff"
       id="rect1"
       x="0.097800203"
       y="0"
       style="fill:#000000;fill-opacity:0" />
    <g
       id="g1"
       transform="matrix(1.2603642,0,0,1.2603642,-83.273389,-66.653235)"
       inkscape:export-filename="..\PNG\docker.png"
       inkscape:export-xdpi="61.439999"
       inkscape:export-ydpi="61.439999"
       style="fill:#000000;fill-opacity:0">
      <path
         stroke="#066da5"
         stroke-width="38"
         d="m 296,226 h 42 m -92,0 h 42 m -91,0 h 42 m -91,0 h 41 m -91,0 h 42 m 8,-46 h 41 m 8,0 h 42 m 7,0 h 42 m -42,-46 h 42"
         id="path1"
         style="fill:#000000;fill-opacity:0" />
      <path
         fill="#066da5"
         d="m 472,228 c 0,0 -18,-17 -55,-11 -4,-29 -35,-46 -35,-46 0,0 -29,35 -8,74 -6,3 -16,7 -31,7 H 68 c -5,19 -5,145 133,145 99,0 173,-46 208,-130 52,4 63,-39 63,-39"
         id="path2"
         style="fill:#066da5;fill-opacity:1;stroke:none;stroke-opacity:1" />
    </g>
  </g>
</svg>
