<?xml version="1.0" encoding="UTF-8" standalone="no"?>
<!-- Created with Inkscape (http://www.inkscape.org/) -->

<svg
   width="210mm"
   height="297mm"
   viewBox="0 0 210 297"
   version="1.1"
   id="svg1"
   xml:space="preserve"
   inkscape:version="1.3.2 (091e20e, 2023-11-25, custom)"
   sodipodi:docname="external_link.svg"
   xmlns:inkscape="http://www.inkscape.org/namespaces/inkscape"
   xmlns:sodipodi="http://sodipodi.sourceforge.net/DTD/sodipodi-0.dtd"
   xmlns:xlink="http://www.w3.org/1999/xlink"
   xmlns="http://www.w3.org/2000/svg"
   xmlns:svg="http://www.w3.org/2000/svg"><sodipodi:namedview
     id="namedview1"
     pagecolor="#ffffff"
     bordercolor="#000000"
     borderopacity="0.25"
     inkscape:showpageshadow="2"
     inkscape:pageopacity="0.0"
     inkscape:pagecheckerboard="0"
     inkscape:deskcolor="#d1d1d1"
     inkscape:document-units="mm"
     inkscape:zoom="0.11759859"
     inkscape:cx="-1020.4204"
     inkscape:cy="2325.7082"
     inkscape:window-width="1920"
     inkscape:window-height="991"
     inkscape:window-x="-9"
     inkscape:window-y="1341"
     inkscape:window-maximized="1"
     inkscape:current-layer="svg1" /><defs
     id="defs1"><linearGradient
       id="linearGradient15"
       inkscape:collect="always"><stop
         style="stop-color:#000000;stop-opacity:1;"
         offset="0.92502642"
         id="stop15" /><stop
         style="stop-color:#29353d;stop-opacity:0;"
         offset="1"
         id="stop16" /></linearGradient><rect
       x="-1082.3193"
       y="1334.8604"
       width="2166.8055"
       height="796.1914"
       id="rect15" /><radialGradient
       inkscape:collect="always"
       xlink:href="#linearGradient15"
       id="radialGradient16"
       cx="-689.8017"
       cy="147.15569"
       fx="-689.8017"
       fy="147.15569"
       r="255.99998"
       gradientTransform="matrix(1,0,0,1.0000015,350.66942,-2.2805024e-4)"
       gradientUnits="userSpaceOnUse" /><radialGradient
       inkscape:collect="always"
       xlink:href="#linearGradient15"
       id="radialGradient16-8"
       cx="-689.8017"
       cy="147.15569"
       fx="-689.8017"
       fy="147.15569"
       r="255.99998"
       gradientTransform="matrix(1,0,0,1.0000015,629.83355,477.72632)"
       gradientUnits="userSpaceOnUse" /></defs><ellipse
     style="fill:#ffffff;fill-opacity:1;stroke:url(#radialGradient16);stroke-width:15.5335;stroke-linecap:square;stroke-linejoin:round;stroke-dasharray:none;stroke-dashoffset:692.411;paint-order:markers stroke fill"
     id="path15"
     cx="-339.13226"
     cy="147.15569"
     rx="248.23323"
     ry="248.23363"
     inkscape:export-filename="..\lib\assets\bubble_content\external_link.png"
     inkscape:export-xdpi="96"
     inkscape:export-ydpi="96" /><ellipse
     style="fill:#ffffff;fill-opacity:1;stroke:url(#radialGradient16-8);stroke-width:15.5335;stroke-linecap:square;stroke-linejoin:round;stroke-dasharray:none;stroke-dashoffset:692.411;paint-order:markers stroke fill"
     id="path15-3"
     cx="-59.968136"
     cy="624.8822"
     rx="248.23323"
     ry="248.23363"
     inkscape:export-filename="..\lib\assets\bubble_content\external_link.png"
     inkscape:export-xdpi="96"
     inkscape:export-ydpi="96" /><text
     xml:space="preserve"
     transform="matrix(0.35212567,0,0,0.67331955,-167.78951,-1022.1824)"
     id="text15"
     style="font-style:normal;font-variant:normal;font-weight:normal;font-stretch:normal;font-size:507.506px;font-family:Stencil;-inkscape-font-specification:Stencil;letter-spacing:0px;word-spacing:7.9948px;white-space:pre;shape-inside:url(#rect15);display:inline;fill:#000000;fill-opacity:1;stroke:#ffffff;stroke-width:40.4409;stroke-linecap:square;stroke-linejoin:round;stroke-dasharray:none;stroke-dashoffset:692.411;stroke-opacity:1;paint-order:markers stroke fill"
     inkscape:export-filename="..\lib\assets\bubble_content\external_link.png"
     inkscape:export-xdpi="96"
     inkscape:export-ydpi="96"><tspan
       x="-1082.3203"
       y="1905.8036"
       id="tspan1">LINK</tspan></text><g
     style="fill:#000000"
     id="g1"
     transform="matrix(0.81632653,0,0,0.81632653,-259.96814,424.88221)"><path
       d="M 245,0 C 109.69,0 0,109.69 0,245 0,380.31 109.69,490 245,490 380.31,490 490,380.31 490,245 490,109.69 380.31,0 245,0 Z M 31.401,260.313 h 52.542 c 1.169,25.423 5.011,48.683 10.978,69.572 H 48.232 C 38.883,308.299 33.148,284.858 31.401,260.313 Z M 320.58,229.688 c -1.152,-24.613 -4.07,-47.927 -8.02,-69.572 h 50.192 c 6.681,20.544 11.267,43.71 12.65,69.572 z m -114.2,100.197 c -4.322,-23.863 -6.443,-47.156 -6.836,-69.572 h 90.913 c -0.392,22.416 -2.514,45.709 -6.837,69.572 z m 70.568,30.625 c -7.18,27.563 -17.573,55.66 -31.951,83.818 C 230.621,416.17 220.23,388.073 213.051,360.51 Z M 199.961,229.688 c 1.213,-24.754 4.343,-48.08 8.499,-69.572 h 73.08 c 4.157,21.492 7.286,44.818 8.5,69.572 z m 15.381,-100.196 c 9.57,-37.359 21.394,-66.835 29.656,-84.983 8.263,18.148 20.088,47.624 29.66,84.983 z m 90.728,0 c -9.77,-40.487 -22.315,-73.01 -31.627,-94.03 11.573,8.235 50.022,38.673 76.25,94.03 z M 215.553,35.46 c -9.312,21.02 -21.855,53.544 -31.624,94.032 H 139.301 C 165.532,74.13 203.984,43.692 215.553,35.46 Z M 177.44,160.117 c -3.95,21.645 -6.867,44.959 -8.019,69.572 h -54.828 c 1.383,-25.861 5.968,-49.028 12.65,-69.572 z M 83.976,229.688 H 31.401 c 1.747,-24.545 7.481,-47.984 16.83,-69.572 h 46.902 c -6.011,20.886 -9.929,44.13 -11.157,69.572 z m 30.601,30.625 h 54.424 c 0.348,22.454 2.237,45.716 6.241,69.572 h -47.983 c -6.738,-20.597 -11.339,-43.77 -12.682,-69.572 z m 67.007,100.197 c 7.512,31.183 18.67,63.054 34.744,95.053 -10.847,-7.766 -50.278,-38.782 -77.013,-95.053 z m 92.051,95.122 c 16.094,-32.022 27.262,-63.916 34.781,-95.122 h 42.575 c -26.655,56.558 -66.255,87.317 -77.356,95.122 z m 41.124,-125.747 c 4.005,-23.856 5.894,-47.118 6.241,-69.572 h 54.434 c -1.317,25.849 -5.844,49.016 -12.483,69.572 z m 91.292,-69.572 h 52.548 c -1.748,24.545 -7.482,47.985 -16.831,69.572 h -46.694 c 5.967,-20.889 9.808,-44.149 10.977,-69.572 z m -0.032,-30.625 c -1.228,-25.443 -5.146,-48.686 -11.157,-69.572 h 46.908 c 9.35,21.587 15.083,45.026 16.83,69.572 z m 19.29,-100.196 H 384.067 C 370.378,96.518 352.532,70.434 335.738,51.056 c 36.737,17.26 67.78,44.54 89.571,78.436 z M 154.252,51.06 C 137.46,70.438 119.616,96.521 105.928,129.492 H 64.691 C 86.48,95.598 117.52,68.321 154.252,51.06 Z m -89.56,309.45 h 40.987 c 13.482,32.637 31.076,58.634 47.752,78.034 C 117.059,421.262 86.318,394.148 64.692,360.51 Z m 271.884,78.03 c 16.672,-19.398 34.263,-45.395 47.742,-78.03 h 40.99 c -21.624,33.636 -52.363,60.748 -88.732,78.03 z"
       id="path1" /></g></svg>
