<?xml version="1.0" encoding="UTF-8" standalone="no"?>
<!-- Uploaded to: SVG Repo, www.svgrepo.com, Generator: SVG Repo Mixer Tools -->

<svg
   aria-label="Git"
   role="img"
   viewBox="0 0 512 512"
   version="1.1"
   id="svg1"
   sodipodi:docname="git-svgrepo-com.svg"
   inkscape:export-filename="git.png"
   inkscape:export-xdpi="96"
   inkscape:export-ydpi="96"
   inkscape:version="1.3.2 (091e20e, 2023-11-25, custom)"
   xmlns:inkscape="http://www.inkscape.org/namespaces/inkscape"
   xmlns:sodipodi="http://sodipodi.sourceforge.net/DTD/sodipodi-0.dtd"
   xmlns="http://www.w3.org/2000/svg"
   xmlns:svg="http://www.w3.org/2000/svg">
  <defs
     id="defs1" />
  <sodipodi:namedview
     id="namedview1"
     pagecolor="#ffffff"
     bordercolor="#000000"
     borderopacity="0.25"
     inkscape:showpageshadow="2"
     inkscape:pageopacity="0.0"
     inkscape:pagecheckerboard="0"
     inkscape:deskcolor="#d1d1d1"
     inkscape:zoom="1.5175781"
     inkscape:cx="255.67053"
     inkscape:cy="256"
     inkscape:window-width="1920"
     inkscape:window-height="991"
     inkscape:window-x="-9"
     inkscape:window-y="1341"
     inkscape:window-maximized="1"
     inkscape:current-layer="svg1" />
  <rect
     width="512"
     height="512"
     rx="15%"
     fill="#ffffff"
     id="rect1"
     style="fill:#ffffff;fill-opacity:0" />
  <path
     fill="#f05133"
     d="M 502.37806,233.2082 278.7251,9.6885128 a 32.921503,32.921503 0 0 0 -46.64991,0 l -46.38333,46.5166142 58.91216,58.778883 a 39.185919,39.185919 0 0 1 49.58219,49.98204 l 56.64631,56.64631 a 39.185919,39.185919 0 1 1 -23.45824,22.12539 l -52.91432,-52.91432 v 139.28328 a 39.185919,39.185919 0 1 1 -32.25507,-1.19957 V 188.42429 A 39.185919,39.185919 0 0 1 220.87922,136.97611 L 162.90005,78.996937 9.6217954,232.2752 a 32.921503,32.921503 0 0 0 0,46.51662 L 233.40805,502.3115 a 32.921503,32.921503 0 0 0 46.6499,0 l 222.4534,-222.58669 a 32.921503,32.921503 0 0 0 0,-46.51661"
     id="path1"
     style="stroke-width:1.33285"
     inkscape:export-filename="..\PNG\git.png"
     inkscape:export-xdpi="96"
     inkscape:export-ydpi="96" />
</svg>
