<?xml version="1.0" encoding="UTF-8" standalone="no"?>
<!-- Uploaded to: SVG Repo, www.svgrepo.com, Generator: SVG Repo Mixer Tools -->

<svg
   aria-label="GitLab"
   role="img"
   viewBox="0 0 512 512"
   version="1.1"
   id="svg3"
   sodipodi:docname="gitlab-svgrepo-com.svg"
   inkscape:version="1.3.2 (091e20e, 2023-11-25, custom)"
   xmlns:inkscape="http://www.inkscape.org/namespaces/inkscape"
   xmlns:sodipodi="http://sodipodi.sourceforge.net/DTD/sodipodi-0.dtd"
   xmlns="http://www.w3.org/2000/svg"
   xmlns:svg="http://www.w3.org/2000/svg">
  <defs
     id="defs3" />
  <sodipodi:namedview
     id="namedview3"
     pagecolor="#ffffff"
     bordercolor="#000000"
     borderopacity="0.25"
     inkscape:showpageshadow="2"
     inkscape:pageopacity="0.0"
     inkscape:pagecheckerboard="0"
     inkscape:deskcolor="#d1d1d1"
     inkscape:zoom="1.5175781"
     inkscape:cx="255.67053"
     inkscape:cy="255.34106"
     inkscape:window-width="1920"
     inkscape:window-height="991"
     inkscape:window-x="-9"
     inkscape:window-y="1341"
     inkscape:window-maximized="1"
     inkscape:current-layer="svg3" />
  <rect
     width="512"
     height="512"
     rx="15.000001%"
     fill="#30353e"
     id="rect1"
     inkscape:export-filename="gitlab.png"
     inkscape:export-xdpi="96"
     inkscape:export-ydpi="96"
     x="5.1749998e-06"
     y="1.032764"
     style="fill:#30353e;fill-opacity:0" />
  <g
     id="g1"
     transform="matrix(1.3145058,0,0,1.3145058,-80.51348,-79.316408)"
     inkscape:export-filename="..\PNG\gitlab.png"
     inkscape:export-xdpi="96"
     inkscape:export-ydpi="96">
    <path
       fill="#e24329"
       d="M 84,215 127,82 c 2,-7 12,-7 14,0 L 256,435 371,82 c 2,-7 12,-7 14,0 l 43,133"
       id="path1" />
    <path
       fill="#fc6d26"
       d="M 256,435 84,215 H 184.4 Z M 327.7,215 H 428 L 256,435 327.6,215 Z"
       id="path2" />
    <path
       fill="#fca326"
       d="m 84,215 -22,67 c -2,6 0,13 6,16 l 188,137 z m 344,0 22,67 c 2,6 0,13 -6,16 L 256,435 Z"
       id="path3" />
  </g>
</svg>
