<?xml version="1.0" encoding="UTF-8" standalone="no"?>
<svg
   viewBox="0 0 511.99997 512"
   version="1.1"
   id="svg6"
   sodipodi:docname="GooglePlay.svg"
   width="511.99997"
   height="512"
   inkscape:version="1.3.2 (091e20e, 2023-11-25, custom)"
   xmlns:inkscape="http://www.inkscape.org/namespaces/inkscape"
   xmlns:sodipodi="http://sodipodi.sourceforge.net/DTD/sodipodi-0.dtd"
   xmlns="http://www.w3.org/2000/svg"
   xmlns:svg="http://www.w3.org/2000/svg">
  <defs
     id="defs6" />
  <sodipodi:namedview
     id="namedview6"
     pagecolor="#ffffff"
     bordercolor="#000000"
     borderopacity="0.25"
     inkscape:showpageshadow="2"
     inkscape:pageopacity="0.0"
     inkscape:pagecheckerboard="0"
     inkscape:deskcolor="#d1d1d1"
     inkscape:zoom="0.78876017"
     inkscape:cx="152.1375"
     inkscape:cy="197.14484"
     inkscape:window-width="1920"
     inkscape:window-height="991"
     inkscape:window-x="-9"
     inkscape:window-y="1341"
     inkscape:window-maximized="1"
     inkscape:current-layer="svg6" />
  <g
     data-name="Capa 1"
     id="g5"
     transform="matrix(16.004205,0,0,16.004205,23.992586,1.1438787e-4)">
    <path
       d="M 13.54,15.28 0.12,29.34 a 3.64,3.64 0 0 0 5.33,2.16 l 15.1,-8.6 z"
       style="fill:#ea4335"
       id="path2" />
    <path
       d="m 27.11,12.89 -6.53,-3.74 -7.35,6.45 7.38,7.28 6.48,-3.7 a 3.55,3.55 0 0 0 0,-6.29 z"
       style="fill:#fbbc04"
       id="path3" />
    <path
       d="M 0.12,2.66 A 3.46,3.46 0 0 0 0,3.58 v 24.84 a 3.66,3.66 0 0 0 0.12,0.92 L 14,15.64 Z"
       style="fill:#4285f4"
       id="path4" />
    <path
       d="M 13.64,16 20.58,9.15 5.5,0.51 A 3.72,3.72 0 0 0 3.63,0 3.64,3.64 0 0 0 0.12,2.65 Z"
       style="fill:#34a853"
       id="path5" />
  </g>
  <rect
     width="511.99997"
     height="511.99997"
     rx="15.000002%"
     fill="#ffffff"
     id="rect1"
     style="fill:#ffffff;fill-opacity:0;stroke-width:1"
     x="0"
     y="1.2017265e-05"
     inkscape:export-filename="..\PNG\googleplay.png"
     inkscape:export-xdpi="96"
     inkscape:export-ydpi="96" />
</svg>
