<?xml version="1.0" encoding="UTF-8" standalone="no"?>
<!-- Uploaded to: SVG Repo, www.svgrepo.com, Generator: SVG Repo Mixer Tools -->

<svg
   aria-label="Gradle"
   role="img"
   viewBox="0 0 512 512"
   version="1.1"
   id="svg1"
   sodipodi:docname="gradle-svgrepo-com.svg"
   inkscape:export-filename="gradle.png"
   inkscape:export-xdpi="96"
   inkscape:export-ydpi="96"
   inkscape:version="1.3.2 (091e20e, 2023-11-25, custom)"
   xmlns:inkscape="http://www.inkscape.org/namespaces/inkscape"
   xmlns:sodipodi="http://sodipodi.sourceforge.net/DTD/sodipodi-0.dtd"
   xmlns="http://www.w3.org/2000/svg"
   xmlns:svg="http://www.w3.org/2000/svg">
  <defs
     id="defs1" />
  <sodipodi:namedview
     id="namedview1"
     pagecolor="#ffffff"
     bordercolor="#000000"
     borderopacity="0.25"
     inkscape:showpageshadow="2"
     inkscape:pageopacity="0.0"
     inkscape:pagecheckerboard="0"
     inkscape:deskcolor="#d1d1d1"
     inkscape:zoom="1.5175781"
     inkscape:cx="255.67053"
     inkscape:cy="256"
     inkscape:window-width="1920"
     inkscape:window-height="991"
     inkscape:window-x="-9"
     inkscape:window-y="1341"
     inkscape:window-maximized="1"
     inkscape:current-layer="svg1" />
  <rect
     width="512"
     height="512"
     rx="15%"
     fill="#ffffff"
     id="rect1"
     style="fill:#ffffff;fill-opacity:0" />
  <path
     d="m 484.08044,91.605666 a 81.345885,81.345885 0 0 0 -113.35083,-1.33354 8.0012346,8.0012346 0 0 0 0,12.001854 l 9.33478,10.66832 a 8.0012346,8.0012346 0 0 0 10.66831,1.33354 46.792783,46.792783 0 0 1 61.3428,70.67757 C 388.06562,248.96328 301.38558,68.935506 106.68887,162.28324 a 26.670782,26.670782 0 0 0 -12.00185,37.3391 l 33.33848,57.34218 a 26.670782,26.670782 0 0 0 36.00556,9.33477 h 1.33353 v 0 l 14.66893,-8.00123 a 342.71955,342.71955 0 0 0 46.67387,-34.67202 8.0012346,8.0012346 0 0 1 10.66832,0 v 0 a 8.0012346,8.0012346 0 0 1 0,12.00185 350.72078,350.72078 0 0 1 -49.34095,37.3391 v 0 l -14.66893,8.00123 a 41.339712,41.339712 0 0 1 -20.00309,5.33416 42.673251,42.673251 0 0 1 -37.33909,-21.33663 L 82.68517,206.69009 C 22.675912,260.03166 -14.663183,333.37631 5.5132622,437.73908 a 8.0012346,8.0012346 0 0 0 8.0012358,6.32097 H 48.81328 a 8.0012346,8.0012346 0 0 0 7.90788,-7.06775 53.341564,53.341564 0 0 1 104.84285,0 8.0012346,8.0012346 0 0 0 7.62784,6.77437 h 34.93873 a 8.0012346,8.0012346 0 0 0 7.60117,-6.80104 53.341564,53.341564 0 0 1 104.81617,0 8.0012346,8.0012346 0 0 0 7.60117,6.66769 h 34.67202 a 8.0012346,8.0012346 0 0 0 7.73453,-7.62784 C 367.88918,386.66453 379.89103,330.65589 418.1636,302.65157 548.85043,205.30321 514.17841,121.29025 484.04043,91.552326 Z M 350.72653,238.29497 325.38929,226.29312 v 0 a 16.002469,16.002469 0 1 1 25.33724,12.00185 z"
     fill="#02303a"
     id="path1"
     style="stroke-width:1.33354"
     inkscape:export-filename="..\PNG\gradle.png"
     inkscape:export-xdpi="96"
     inkscape:export-ydpi="96" />
</svg>
