<?xml version="1.0" encoding="UTF-8" standalone="no"?>
<svg
   version="1.1"
   viewBox="0 0 511.99998 511.99997"
   id="svg4"
   width="511.99997"
   height="511.99997"
   sodipodi:docname="IOS.svg"
   inkscape:version="1.3.2 (091e20e, 2023-11-25, custom)"
   xmlns:inkscape="http://www.inkscape.org/namespaces/inkscape"
   xmlns:sodipodi="http://sodipodi.sourceforge.net/DTD/sodipodi-0.dtd"
   xmlns="http://www.w3.org/2000/svg"
   xmlns:svg="http://www.w3.org/2000/svg">
  <sodipodi:namedview
     id="namedview1"
     pagecolor="#ffffff"
     bordercolor="#000000"
     borderopacity="0.25"
     inkscape:showpageshadow="2"
     inkscape:pageopacity="0.0"
     inkscape:pagecheckerboard="0"
     inkscape:deskcolor="#d1d1d1"
     inkscape:zoom="1.0882448"
     inkscape:cx="110.26931"
     inkscape:cy="453.48254"
     inkscape:window-width="1920"
     inkscape:window-height="991"
     inkscape:window-x="-9"
     inkscape:window-y="1341"
     inkscape:window-maximized="1"
     inkscape:current-layer="svg4" />
  <defs
     id="defs8" />
  <path
     d="M 2.380619,378.9364 H 44.720235 V 198.69725 H 2.380619 Z M 23.465545,175.06061 c 13.26307,0 23.635331,-10.20249 23.635331,-22.95496 0,-12.9231 -10.372261,-23.12516 -23.635331,-23.12516 -13.092869,0 -23.46513101611,10.20249 -23.46513101611,23.12516 0,12.7529 10.37226201611,22.95496 23.46513101611,22.95496 z M 185.68775,129.48935 c -71.58462,0 -116.476825,48.80117 -116.476825,126.84995 0,78.04879 44.887845,126.68018 116.476825,126.68018 71.41486,0 116.30705,-48.63139 116.30705,-126.68018 0,-78.04878 -44.88784,-126.84995 -116.30705,-126.84995 z m 0,37.40857 c 43.69949,0 71.58462,34.68796 71.58462,89.44051 0,54.58192 -27.886,89.27075 -71.58462,89.27075 -43.86925,0 -71.58462,-34.68796 -71.58462,-89.27075 0,-54.75168 27.71624,-89.44051 71.58462,-89.44051 z m 134.16729,143.00383 c 1.87043,45.23173 38.93863,73.11687 95.39102,73.11687 59.34406,0 96.7535,-29.24675 96.7535,-75.83748 0,-36.558 -21.08493,-57.13275 -70.90556,-68.52448 l -28.22641,-6.46155 c -30.09688,-7.14149 -42.50938,-16.66361 -42.50938,-32.98726 0,-20.40455 18.70428,-34.00759 46.42009,-34.00759 28.05621,0 47.26892,13.77324 49.31046,36.7282 h 41.82945 c -1.02025,-43.18975 -36.7282,-72.4378 -90.79864,-72.4378 -53.39355,0 -91.31229,29.41651 -91.31229,72.9471 0,35.02793 21.42489,56.79322 66.6527,67.16635 l 31.79716,7.48189 c 30.94702,7.31169 43.52972,17.51374 43.52972,35.19769 0,20.40456 -20.57476,35.02793 -50.1593,35.02793 -29.92668,0 -52.54037,-14.79314 -55.26098,-37.40856 h -42.50936 z"
     id="path2"
     style="stroke-width:4.35297" />
  <rect
     width="511.99997"
     height="511.99997"
     rx="15.000002%"
     fill="#ffffff"
     id="rect1"
     style="fill:#ffffff;fill-opacity:0;stroke-width:1"
     x="0"
     y="0"
     inkscape:export-filename="..\PNG\ios.png"
     inkscape:export-xdpi="96"
     inkscape:export-ydpi="96" />
</svg>
