<?xml version="1.0" encoding="UTF-8" standalone="no"?>
<!-- Uploaded to: SVG Repo, www.svgrepo.com, Generator: SVG Repo Mixer Tools -->

<svg
   aria-label="JavaScript"
   role="img"
   viewBox="0 0 512 512"
   version="1.1"
   id="svg1"
   sodipodi:docname="javascript-svgrepo-com.svg"
   inkscape:export-filename="javascript.png"
   inkscape:export-xdpi="96"
   inkscape:export-ydpi="96"
   inkscape:version="1.3.2 (091e20e, 2023-11-25, custom)"
   xmlns:inkscape="http://www.inkscape.org/namespaces/inkscape"
   xmlns:sodipodi="http://sodipodi.sourceforge.net/DTD/sodipodi-0.dtd"
   xmlns="http://www.w3.org/2000/svg"
   xmlns:svg="http://www.w3.org/2000/svg">
  <defs
     id="defs1" />
  <sodipodi:namedview
     id="namedview1"
     pagecolor="#ffffff"
     bordercolor="#000000"
     borderopacity="0.25"
     inkscape:showpageshadow="2"
     inkscape:pageopacity="0.0"
     inkscape:pagecheckerboard="0"
     inkscape:deskcolor="#d1d1d1"
     inkscape:zoom="1.5175781"
     inkscape:cx="255.67053"
     inkscape:cy="256"
     inkscape:window-width="1920"
     inkscape:window-height="991"
     inkscape:window-x="-9"
     inkscape:window-y="1341"
     inkscape:window-maximized="1"
     inkscape:current-layer="svg1" />
  <rect
     width="512"
     height="512"
     rx="15%"
     fill="#f7df1e"
     id="rect1" />
  <path
     d="M324 370c10 17 24 29 47 29c20 0 33-10 33 -24c0-16 -13 -22 -35 -32l-12-5c-35-15 -58 -33 -58 -72c0-36 27 -64 70 -64c31 0 53 11 68 39l-37 24c-8-15 -17 -21 -31 -21c-14 0-23 9 -23 21c0 14 9 20 30 29l12 5c41 18 64 35 64 76c0 43-34 67 -80 67c-45 0-74 -21 -88 -49zm-170 4c8 13 14 25 31 25c16 0 26-6 26 -30V203h48v164c0 50-29 72 -72 72c-39 0-61 -20 -72 -44z"
     id="path1" />
</svg>
