<?xml version="1.0" encoding="UTF-8" standalone="no"?>
<!-- Uploaded to: SVG Repo, www.svgrepo.com, Generator: SVG Repo Mixer Tools -->

<svg
   aria-label="Java"
   role="img"
   viewBox="0 0 512 512"
   fill="none"
   version="1.1"
   id="svg2"
   sodipodi:docname="java-svgrepo-com.svg"
   inkscape:export-filename="java.png"
   inkscape:export-xdpi="96"
   inkscape:export-ydpi="96"
   inkscape:version="1.3.2 (091e20e, 2023-11-25, custom)"
   width="512"
   height="512"
   xmlns:inkscape="http://www.inkscape.org/namespaces/inkscape"
   xmlns:sodipodi="http://sodipodi.sourceforge.net/DTD/sodipodi-0.dtd"
   xmlns="http://www.w3.org/2000/svg"
   xmlns:svg="http://www.w3.org/2000/svg">
  <defs
     id="defs2" />
  <sodipodi:namedview
     id="namedview2"
     pagecolor="#ffffff"
     bordercolor="#000000"
     borderopacity="0.25"
     inkscape:showpageshadow="2"
     inkscape:pageopacity="0.0"
     inkscape:pagecheckerboard="0"
     inkscape:deskcolor="#d1d1d1"
     inkscape:zoom="1.5175781"
     inkscape:cx="255.67053"
     inkscape:cy="229.64222"
     inkscape:window-width="1920"
     inkscape:window-height="991"
     inkscape:window-x="-9"
     inkscape:window-y="1341"
     inkscape:window-maximized="1"
     inkscape:current-layer="svg2" />
  <rect
     width="512"
     height="512"
     rx="15.000001%"
     fill="#ffffff"
     id="rect1"
     style="fill:#ffffff;fill-opacity:0"
     x="0"
     y="0" />
  <g
     id="g1"
     transform="matrix(1.3470488,0,0,1.3470488,-87.941564,-71.393586)"
     inkscape:export-filename="..\PNG\java.png"
     inkscape:export-xdpi="96"
     inkscape:export-ydpi="96">
    <path
       d="m 274,235 c 18,21 -5,40 -5,40 0,0 47,-24 25,-54 -22,-30 -35,-42 48,-90 0,-1 -131,32 -68,104 M 294,53 c 0,0 40,40 -38,100 -62,49 -14,77 0,109 -36,-33 -63,-61 -45,-88 27,-40 99,-59 83,-121"
       fill="#f8981d"
       id="path1" />
    <path
       d="m 206,347 c 0,0 -15,8 10,11 25,3 46,3 79,-3 a 137,137 0 0 0 21,10 c -74,32 -169,-1 -110,-18 m -9,-42 c 0,0 -16,12 9,15 25,3 58,4 102,-5 a 45,45 0 0 0 16,10 c -91,26 -192,2 -127,-20 m 175,73 c 0,0 11,9 -12,16 -43,13 -179,17 -217,1 -14,-6 15,-17 33,-17 -17,-10 -98,21 -42,30 153,24 278,-12 238,-30 M 213,262 c 0,0 -69,16 -25,22 19,3 57,2 92,-1 35,-3 57,-8 57,-8 a 122,122 0 0 0 -17,9 c -70,18 -206,10 -167,-9 39,-19 60,-13 60,-13 m 124,69 c 73,-37 39,-80 7,-66 36,-30 101,36 -9,68 v -2 M 220,432 c 69,4 174,-2 176,-35 0,0 -5,12 -57,22 -52,10 -131,10 -174,3 1,0 10,7 55,10"
       fill="#5382a1"
       id="path2" />
  </g>
</svg>
