<?xml version="1.0" encoding="UTF-8" standalone="no"?>
<!-- Created with Inkscape (http://www.inkscape.org/) -->

<svg
   width="135.46671mm"
   height="135.46666mm"
   viewBox="0 0 135.46671 135.46666"
   version="1.1"
   id="svg1"
   inkscape:version="1.3.2 (091e20e, 2023-11-25, custom)"
   sodipodi:docname="Jira.svg"
   xmlns:inkscape="http://www.inkscape.org/namespaces/inkscape"
   xmlns:sodipodi="http://sodipodi.sourceforge.net/DTD/sodipodi-0.dtd"
   xmlns="http://www.w3.org/2000/svg"
   xmlns:svg="http://www.w3.org/2000/svg">
  <sodipodi:namedview
     id="namedview1"
     pagecolor="#ffffff"
     bordercolor="#000000"
     borderopacity="0.25"
     inkscape:showpageshadow="2"
     inkscape:pageopacity="0.0"
     inkscape:pagecheckerboard="0"
     inkscape:deskcolor="#d1d1d1"
     inkscape:document-units="mm"
     inkscape:zoom="0.69219276"
     inkscape:cx="221.03669"
     inkscape:cy="239.09525"
     inkscape:window-width="1920"
     inkscape:window-height="991"
     inkscape:window-x="-9"
     inkscape:window-y="1341"
     inkscape:window-maximized="1"
     inkscape:current-layer="layer1" />
  <defs
     id="defs1">
    <linearGradient
       id="paint0_linear"
       x1="19.345501"
       y1="9.0188198"
       x2="14.2302"
       y2="14.45"
       gradientUnits="userSpaceOnUse"
       gradientTransform="matrix(0.26458333,0,0,0.26458333,293.6875,152.66458)">
      <stop
         offset="0.176"
         stop-color="#0052CC"
         id="stop4" />
      <stop
         offset="1"
         stop-color="#2684FF"
         id="stop5" />
    </linearGradient>
    <linearGradient
       id="paint1_linear"
       x1="13.5601"
       y1="15.0525"
       x2="7.6356201"
       y2="20.9874"
       gradientUnits="userSpaceOnUse"
       gradientTransform="matrix(0.26458333,0,0,0.26458333,293.6875,152.66458)">
      <stop
         offset="0.176"
         stop-color="#0052CC"
         id="stop6" />
      <stop
         offset="1"
         stop-color="#2684FF"
         id="stop7" />
    </linearGradient>
  </defs>
  <g
     inkscape:label="Calque 1"
     inkscape:groupmode="layer"
     id="layer1"
     transform="translate(-321.99789,-85.233978)">
    <g
       id="g1"
       transform="matrix(19.891614,0,0,19.891614,-5519.9205,-2965.3537)">
      <path
         id="Vector"
         d="m 300.21318,153.45833 h -3.28181 c 0,0.79228 0.66395,1.43715 1.47966,1.43715 h 0.60703 v 0.56196 c 0,0.79227 0.66397,1.43717 1.47968,1.43717 v -3.1599 c 0,-0.15662 -0.12329,-0.27638 -0.28456,-0.27638 z"
         fill="#2684ff"
         style="stroke-width:0.264583" />
      <path
         id="Vector_2"
         d="m 298.59126,155.04286 h -3.28183 c 0,0.79227 0.66395,1.43714 1.47967,1.43714 h 0.60704 v 0.57119 c 0,0.79226 0.66397,1.43716 1.47968,1.43716 v -3.16913 c 0,-0.14739 -0.12332,-0.27636 -0.28456,-0.27636 z"
         fill="url(#paint0_linear)"
         style="fill:url(#paint0_linear);stroke-width:0.264583" />
      <path
         id="Vector_3"
         d="m 296.96934,156.63664 h -3.28184 c 0,0.79227 0.66395,1.43713 1.47967,1.43713 h 0.60704 v 0.56198 c 0,0.79227 0.66395,1.43714 1.47966,1.43714 v -3.1599 c 0,-0.1566 -0.13277,-0.27635 -0.28453,-0.27635 z"
         fill="url(#paint1_linear)"
         style="fill:url(#paint1_linear);stroke-width:0.264583" />
    </g>
    <rect
       width="135.46666"
       height="135.46666"
       rx="3.9687507%"
       fill="#ffffff"
       id="rect1"
       style="fill:#ffffff;fill-opacity:0;stroke-width:0.264583"
       x="321.99792"
       y="85.233978"
       inkscape:export-filename="jira.png"
       inkscape:export-xdpi="96"
       inkscape:export-ydpi="96" />
  </g>
</svg>
