<?xml version="1.0" encoding="UTF-8" standalone="no"?>
<!-- Created with Inkscape (http://www.inkscape.org/) -->

<svg
   width="135.46667mm"
   height="135.46666mm"
   viewBox="0 0 135.46667 135.46666"
   version="1.1"
   id="svg1"
   inkscape:version="1.3.2 (091e20e, 2023-11-25, custom)"
   sodipodi:docname="JQuery.svg"
   xmlns:inkscape="http://www.inkscape.org/namespaces/inkscape"
   xmlns:sodipodi="http://sodipodi.sourceforge.net/DTD/sodipodi-0.dtd"
   xmlns="http://www.w3.org/2000/svg"
   xmlns:svg="http://www.w3.org/2000/svg">
  <sodipodi:namedview
     id="namedview1"
     pagecolor="#ffffff"
     bordercolor="#000000"
     borderopacity="0.25"
     inkscape:showpageshadow="2"
     inkscape:pageopacity="0.0"
     inkscape:pagecheckerboard="0"
     inkscape:deskcolor="#d1d1d1"
     inkscape:document-units="mm"
     inkscape:zoom="0.69219276"
     inkscape:cx="-111.24069"
     inkscape:cy="-59.954398"
     inkscape:window-width="1920"
     inkscape:window-height="991"
     inkscape:window-x="-9"
     inkscape:window-y="1341"
     inkscape:window-maximized="1"
     inkscape:current-layer="layer1" />
  <defs
     id="defs1" />
  <g
     inkscape:label="Calque 1"
     inkscape:groupmode="layer"
     id="layer1"
     transform="translate(-134.68175,-164.29509)">
    <g
       id="g1"
       transform="matrix(5.5733083,0,0,5.5733083,-770.82385,-959.45198)">
      <path
         fill-rule="nonzero"
         fill="#0868ac"
         d="m 164.05364,205.69492 c -2.2053,3.16971 -1.93077,7.29351 -0.24611,10.66139 0.04,0.0807 0.082,0.16019 0.12338,0.23965 0.0265,0.0504 0.0513,0.10206 0.0788,0.1518 0.0155,0.0297 0.0329,0.0588 0.0491,0.0872 0.0287,0.0536 0.0581,0.10465 0.0879,0.15697 0.0523,0.0924 0.10593,0.18409 0.16084,0.27583 0.0304,0.0504 0.0604,0.10076 0.0917,0.15115 0.0607,0.0982 0.12305,0.19507 0.18668,0.29196 0.0265,0.0413 0.0523,0.0827 0.0794,0.12273 0.0879,0.13113 0.17764,0.26162 0.27032,0.39016 0.002,0.003 0.005,0.007 0.008,0.0103 0.0146,0.0207 0.0307,0.0407 0.0455,0.0614 0.0801,0.11046 0.16278,0.21963 0.24643,0.32751 0.0307,0.0394 0.0617,0.0788 0.0927,0.1182 0.0746,0.0937 0.15051,0.18669 0.2277,0.27969 0.0287,0.0349 0.0578,0.0698 0.0869,0.104 0.10368,0.12209 0.20929,0.24353 0.31715,0.36238 0.002,0.002 0.005,0.005 0.006,0.006 0.005,0.005 0.008,0.008 0.0123,0.0135 0.10529,0.11498 0.21316,0.22737 0.32234,0.33978 0.0339,0.0349 0.0685,0.0698 0.10335,0.104 0.0846,0.0853 0.17053,0.16924 0.25742,0.25256 0.0352,0.0336 0.0701,0.0678 0.10529,0.10013 0.11594,0.10916 0.23319,0.21639 0.35269,0.32104 0.002,0.002 0.004,0.003 0.005,0.005 0.0203,0.0181 0.0413,0.0349 0.0614,0.0523 0.10529,0.0911 0.21251,0.18151 0.32038,0.27067 0.0439,0.0355 0.0885,0.0704 0.13274,0.10593 0.0882,0.0704 0.17732,0.14018 0.2671,0.20865 0.0475,0.0362 0.095,0.0723 0.14276,0.10852 0.0991,0.073 0.19895,0.14469 0.29972,0.2151 0.0368,0.0265 0.0724,0.0523 0.10916,0.0775 0.0103,0.007 0.0197,0.0142 0.03,0.0213 0.0956,0.0659 0.19347,0.12919 0.29102,0.1925 0.042,0.0278 0.0837,0.0568 0.12596,0.084 0.14986,0.095 0.302,0.18862 0.45572,0.27905 0.0417,0.0239 0.084,0.0472 0.12596,0.0711 0.11304,0.0652 0.22673,0.12919 0.34202,0.19185 0.0623,0.0336 0.12629,0.0652 0.18927,0.0975 0.0814,0.0426 0.16214,0.0859 0.24482,0.12725 0.0187,0.009 0.0381,0.0181 0.0565,0.0271 0.0333,0.0161 0.0669,0.0317 0.10012,0.0485 0.12822,0.0614 0.25741,0.12144 0.38791,0.17958 0.0278,0.0123 0.0546,0.0245 0.082,0.0368 0.14954,0.0652 0.30036,0.1279 0.45249,0.18798 0.0365,0.0148 0.0733,0.0291 0.11014,0.0433 0.14082,0.0543 0.28358,0.10788 0.42698,0.15826 0.0181,0.006 0.0355,0.0123 0.0536,0.0187 0.15729,0.0549 0.3162,0.10594 0.47606,0.15568 0.0381,0.011 0.0765,0.0232 0.11498,0.0342 0.16278,0.0491 0.32364,0.10788 0.49157,0.13888 10.66535,1.94498 13.76336,-6.40926 13.76336,-6.40926 -2.60191,3.38984 -7.22048,4.28386 -11.59642,3.2885 -0.16569,-0.0375 -0.32652,-0.0891 -0.48834,-0.13694 -0.041,-0.0123 -0.0814,-0.0245 -0.12177,-0.0368 -0.15793,-0.0485 -0.31459,-0.0995 -0.47024,-0.15309 -0.0213,-0.008 -0.043,-0.0155 -0.0646,-0.0233 -0.13952,-0.0491 -0.27744,-0.10077 -0.41471,-0.15373 -0.0388,-0.0155 -0.0775,-0.0304 -0.11627,-0.0459 -0.15051,-0.0594 -0.30004,-0.12144 -0.44765,-0.18603 -0.0304,-0.0129 -0.0594,-0.0265 -0.0895,-0.0394 -0.12693,-0.0575 -0.25257,-0.11562 -0.37756,-0.1757 -0.0362,-0.0174 -0.0724,-0.0342 -0.10917,-0.0523 -0.0982,-0.0479 -0.19526,-0.099 -0.2921,-0.14869 -0.0648,-0.0341 -0.1307,-0.0664 -0.195,-0.10213 -0.11827,-0.0632 -0.23442,-0.12912 -0.35004,-0.19632 -0.0392,-0.022 -0.0788,-0.0431 -0.11827,-0.0659 -0.15372,-0.0905 -0.30559,-0.18415 -0.45588,-0.27913 -0.0415,-0.0265 -0.082,-0.0548 -0.12303,-0.082 -0.10901,-0.0704 -0.21749,-0.14208 -0.32438,-0.21564 -0.0354,-0.0241 -0.0696,-0.0497 -0.10451,-0.0736 -0.10319,-0.073 -0.20532,-0.14685 -0.30665,-0.22172 -0.046,-0.0341 -0.0913,-0.0685 -0.136,-0.10266 -0.0929,-0.0712 -0.1852,-0.14288 -0.27675,-0.21643 -0.0413,-0.0329 -0.0827,-0.0659 -0.12338,-0.0988 -0.11627,-0.0956 -0.23125,-0.19185 -0.34462,-0.29067 -0.0119,-0.0103 -0.0249,-0.0207 -0.0378,-0.0317 -0.12273,-0.10787 -0.2432,-0.21833 -0.36237,-0.32943 -0.0346,-0.0329 -0.0682,-0.0652 -0.10206,-0.0982 -0.0882,-0.084 -0.17505,-0.16859 -0.26032,-0.25515 -0.0342,-0.0342 -0.0685,-0.0678 -0.10206,-0.10206 -0.10852,-0.1111 -0.21511,-0.2235 -0.31944,-0.33782 -0.005,-0.006 -0.0106,-0.011 -0.0158,-0.0168 -0.11046,-0.1208 -0.21834,-0.24417 -0.32396,-0.36883 -0.0287,-0.0342 -0.0565,-0.0672 -0.0849,-0.10077 -0.0788,-0.0949 -0.15697,-0.1912 -0.23319,-0.2881 -0.0286,-0.0349 -0.0572,-0.0706 -0.0855,-0.10663 -0.0918,-0.11906 -0.1815,-0.23786 -0.26934,-0.35851 -2.42948,-3.3139 -3.30227,-7.88458 -1.36049,-11.63823"
         id="path47"
         style="stroke-width:0.264583" />
      <path
         fill-rule="nonzero"
         fill="#0868ac"
         d="m 166.98327,208.06895 c -1.59486,2.29508 -1.50831,5.36734 -0.2642,7.79463 0.20865,0.40695 0.44313,0.80163 0.70538,1.17758 0.239,0.34234 0.50385,0.74996 0.821,1.02513 0.11499,0.12661 0.23513,0.24998 0.35785,0.37142 0.031,0.0317 0.0627,0.062 0.0943,0.093 0.11918,0.11562 0.2403,0.22931 0.3656,0.33978 0.005,0.004 0.01,0.009 0.0148,0.0129 0.001,0.001 0.003,0.002 0.004,0.003 0.13856,0.12144 0.28162,0.23836 0.42699,0.35333 0.0323,0.0245 0.0643,0.0504 0.0969,0.0756 0.14566,0.11175 0.29424,0.22156 0.44667,0.3262 0.005,0.003 0.008,0.006 0.0129,0.01 0.0672,0.0465 0.13565,0.0898 0.2038,0.13436 0.0326,0.0213 0.0636,0.0439 0.0966,0.0639 0.10885,0.0698 0.21898,0.13759 0.33105,0.20283 0.0158,0.01 0.0313,0.0181 0.0468,0.0271 0.0966,0.0556 0.19443,0.11046 0.29263,0.16343 0.0342,0.0194 0.0691,0.0362 0.104,0.0543 0.0678,0.0355 0.13565,0.0717 0.20476,0.10593 0.0103,0.005 0.021,0.01 0.031,0.0142 0.1405,0.0691 0.28229,0.13565 0.42699,0.19895 0.031,0.0136 0.063,0.0258 0.0943,0.0388 0.11563,0.0491 0.23255,0.0969 0.3501,0.14211 0.0497,0.0187 0.10012,0.0368 0.14986,0.0549 0.10659,0.0394 0.21349,0.0756 0.32136,0.11175 0.0488,0.0155 0.0966,0.0317 0.14534,0.0465 0.15342,0.0478 0.30488,0.10788 0.46477,0.13436 8.23463,1.36425 10.13566,-4.97575 10.13566,-4.97575 -1.71371,2.46819 -5.03238,3.64569 -8.57382,2.72653 -0.1573,-0.0413 -0.31232,-0.0866 -0.46638,-0.13501 -0.0472,-0.0142 -0.0933,-0.0297 -0.14018,-0.0452 -0.10948,-0.0355 -0.21833,-0.073 -0.3262,-0.1124 -0.0494,-0.0181 -0.0988,-0.0362 -0.14728,-0.0549 -0.11821,-0.0452 -0.23513,-0.0924 -0.35108,-0.14146 -0.0317,-0.0136 -0.0636,-0.0258 -0.0946,-0.04 -0.14534,-0.0633 -0.28842,-0.12984 -0.42955,-0.1996 -0.0727,-0.0355 -0.14405,-0.073 -0.21543,-0.10981 -0.0413,-0.0213 -0.083,-0.0426 -0.12435,-0.064 -0.0917,-0.0497 -0.1828,-0.10142 -0.2726,-0.15374 -0.0213,-0.0123 -0.0436,-0.0239 -0.0652,-0.0368 -0.11143,-0.0652 -0.22124,-0.13242 -0.33009,-0.20154 -0.0336,-0.0213 -0.0659,-0.0446 -0.0995,-0.0665 -0.0717,-0.0465 -0.1434,-0.0937 -0.21381,-0.14146 -0.1518,-0.10465 -0.2994,-0.21446 -0.44506,-0.32557 -0.0336,-0.0265 -0.0672,-0.0523 -0.10012,-0.0788 -1.55019,-1.22396 -2.77892,-2.89639 -3.36312,-4.79293 -0.61224,-1.96691 -0.48022,-4.17486 0.5805,-5.96662"
         id="path48"
         style="stroke-width:0.264583" />
      <path
         fill-rule="nonzero"
         fill="#0868ac"
         d="m 169.99566,210.03675 c -0.9402,1.38364 -1.03257,3.10198 -0.38016,4.63021 0.68795,1.622 2.09775,2.89454 3.74306,3.49779 0.0678,0.0252 0.13565,0.0478 0.20445,0.071 0.03,0.009 0.0598,0.0194 0.0901,0.0284 0.0969,0.0304 0.19314,0.0659 0.29327,0.0846 4.54686,0.8785 5.78008,-2.3332 6.10843,-2.8059 -1.08035,1.55546 -2.89586,1.92881 -5.12339,1.38816 -0.17595,-0.0429 -0.36936,-0.10636 -0.53896,-0.16642 -0.21748,-0.0775 -0.4318,-0.1659 -0.64002,-0.26591 -0.39556,-0.18997 -0.77259,-0.42069 -1.1221,-0.68474 -1.99337,-1.51236 -3.23162,-4.39764 -1.93093,-6.7474"
         id="path49"
         style="stroke-width:0.264583" />
    </g>
    <rect
       width="135.46666"
       height="135.46666"
       rx="3.9687507%"
       fill="#ffffff"
       id="rect1"
       style="fill:#ffffff;fill-opacity:0;stroke-width:0.264583"
       x="134.68176"
       y="164.29509"
       inkscape:export-filename="..\PNG\jquery.png"
       inkscape:export-xdpi="96"
       inkscape:export-ydpi="96" />
  </g>
</svg>
