<?xml version="1.0" encoding="UTF-8" standalone="no"?>
<!-- Uploaded to: SVG Repo, www.svgrepo.com, Generator: SVG Repo Mixer Tools -->

<svg
   aria-label="JSON"
   role="img"
   viewBox="0 0 512 512"
   version="1.1"
   id="svg2"
   sodipodi:docname="json-svgrepo-com.svg"
   inkscape:export-filename="json.png"
   inkscape:export-xdpi="96"
   inkscape:export-ydpi="96"
   inkscape:version="1.3.2 (091e20e, 2023-11-25, custom)"
   xmlns:inkscape="http://www.inkscape.org/namespaces/inkscape"
   xmlns:sodipodi="http://sodipodi.sourceforge.net/DTD/sodipodi-0.dtd"
   xmlns="http://www.w3.org/2000/svg"
   xmlns:svg="http://www.w3.org/2000/svg">
  <defs
     id="defs2" />
  <sodipodi:namedview
     id="namedview2"
     pagecolor="#ffffff"
     bordercolor="#000000"
     borderopacity="0.25"
     inkscape:showpageshadow="2"
     inkscape:pageopacity="0.0"
     inkscape:pagecheckerboard="0"
     inkscape:deskcolor="#d1d1d1"
     inkscape:zoom="1.5175781"
     inkscape:cx="255.67053"
     inkscape:cy="256"
     inkscape:window-width="1920"
     inkscape:window-height="991"
     inkscape:window-x="-9"
     inkscape:window-y="1341"
     inkscape:window-maximized="1"
     inkscape:current-layer="svg2" />
  <rect
     width="512"
     height="512"
     rx="15%"
     fill="#ffffff"
     id="rect1"
     style="fill:#ffffff;fill-opacity:0" />
  <linearGradient
     id="a"
     x1="131.49614"
     y1="110.48355"
     x2="419.33485"
     y2="354.71033"
     gradientTransform="scale(0.90858177,1.1006164)"
     gradientUnits="userSpaceOnUse">
    <stop
       offset="0"
       id="stop1" />
    <stop
       offset="1"
       stop-color="#ffffff"
       id="stop2" />
  </linearGradient>
  <g
     id="g1"
     transform="matrix(1.3333333,0,0,1.3333333,-85.333331,-85.333331)"
     inkscape:export-filename="..\PNG\json.png"
     inkscape:export-xdpi="96"
     inkscape:export-ydpi="96">
    <path
       id="b"
       fill="url(#a)"
       d="m 256,64 c -99,0 -192,81 -192,192 0,123 102,192 192,192 -21,0 -125,-23 -125,-166 0,-89 73,-139 125,-119 0,0 56,21 56,93 0,72 -56,93 -56,93 51,20 125,-27 125,-119 C 381,101 294,64 256,64 Z"
       style="fill:url(#a)" />
    <use
       transform="rotate(180,256,256)"
       href="#b"
       id="use2" />
  </g>
</svg>
