<?xml version="1.0" encoding="UTF-8" standalone="no"?>
<!-- Uploaded to: SVG Repo, www.svgrepo.com, Generator: SVG Repo Mixer Tools -->

<svg
   aria-label="Kaggle"
   role="img"
   viewBox="0 0 512 512"
   version="1.1"
   id="svg1"
   sodipodi:docname="kaggle-svgrepo-com.svg"
   inkscape:export-filename="kaggle.png"
   inkscape:export-xdpi="96"
   inkscape:export-ydpi="96"
   inkscape:version="1.3.2 (091e20e, 2023-11-25, custom)"
   width="512"
   height="512"
   xmlns:inkscape="http://www.inkscape.org/namespaces/inkscape"
   xmlns:sodipodi="http://sodipodi.sourceforge.net/DTD/sodipodi-0.dtd"
   xmlns="http://www.w3.org/2000/svg"
   xmlns:svg="http://www.w3.org/2000/svg">
  <defs
     id="defs1" />
  <sodipodi:namedview
     id="namedview1"
     pagecolor="#ffffff"
     bordercolor="#000000"
     borderopacity="0.25"
     inkscape:showpageshadow="2"
     inkscape:pageopacity="0.0"
     inkscape:pagecheckerboard="0"
     inkscape:deskcolor="#d1d1d1"
     inkscape:zoom="1.5175781"
     inkscape:cx="255.67053"
     inkscape:cy="219.75805"
     inkscape:window-width="1920"
     inkscape:window-height="991"
     inkscape:window-x="-9"
     inkscape:window-y="1341"
     inkscape:window-maximized="1"
     inkscape:current-layer="svg1" />
  <rect
     width="512"
     height="512"
     rx="15.000001%"
     fill="#ffffff"
     id="rect1"
     style="fill:#ffffff;fill-opacity:0"
     x="0"
     y="1.5258789e-06" />
  <path
     fill="#20beff"
     d="m 403.98799,508.56148 c -0.50941,2.54705 -2.54705,3.39607 -6.79214,3.39607 h -67.9214 c -4.24509,0 -7.64116,-1.69804 -11.03723,-5.09411 L 206.55746,364.46623 175.52587,393.98657 v 110.37227 c 0,5.09411 -2.54705,7.64116 -7.64116,7.64116 h -52.23155 c -5.09411,0 -7.64116,-2.54705 -7.64116,-7.64116 V 7.641157 C 108.012,2.547052 110.55905,0 115.65316,0 h 51.79006 c 5.09411,0 7.64116,2.547052 7.64116,7.641157 V 313.28746 L 308.31221,178.54838 c 3.53191,-3.52342 7.06382,-5.29787 10.59574,-5.29787 h 69.65339 c 3.0225,0 5.03467,1.26504 6.0535,3.77813 1.01033,3.39607 0.84901,5.0941 -0.84902,6.79214 L 251.16485,321.77763 C 403.98799,500.0713 403.98799,508.56148 403.98799,508.56148"
     id="path1"
     style="stroke-width:8.49018"
     inkscape:export-filename="..\PNG\kaggle.png"
     inkscape:export-xdpi="96"
     inkscape:export-ydpi="96" />
</svg>
