<?xml version="1.0" encoding="UTF-8" standalone="no"?>
<!-- Created with Inkscape (http://www.inkscape.org/) -->

<svg
   width="135.46666mm"
   height="135.46666mm"
   viewBox="0 0 135.46666 135.46666"
   version="1.1"
   id="svg1"
   xml:space="preserve"
   inkscape:version="1.3.2 (091e20e, 2023-11-25, custom)"
   sodipodi:docname="LeRobert.svg"
   xmlns:inkscape="http://www.inkscape.org/namespaces/inkscape"
   xmlns:sodipodi="http://sodipodi.sourceforge.net/DTD/sodipodi-0.dtd"
   xmlns="http://www.w3.org/2000/svg"
   xmlns:svg="http://www.w3.org/2000/svg"><sodipodi:namedview
     id="namedview1"
     pagecolor="#ffffff"
     bordercolor="#000000"
     borderopacity="0.25"
     inkscape:showpageshadow="2"
     inkscape:pageopacity="0.0"
     inkscape:pagecheckerboard="0"
     inkscape:deskcolor="#d1d1d1"
     inkscape:document-units="mm"
     inkscape:zoom="0.34609638"
     inkscape:cx="-583.65245"
     inkscape:cy="657.33135"
     inkscape:window-width="1920"
     inkscape:window-height="991"
     inkscape:window-x="-9"
     inkscape:window-y="1341"
     inkscape:window-maximized="1"
     inkscape:current-layer="svg1" /><defs
     id="defs1" /><rect
     width="135.46666"
     height="135.46666"
     rx="3.9687507%"
     fill="#ffffff"
     id="rect1"
     style="display:none;fill:#ffffff;fill-opacity:0;stroke-width:0.264583"
     x="0"
     y="2.6284208e-06"
     sodipodi:insensitive="true"
     inkscape:export-filename="..\..\..\..\Downloads\PNG\lerobert.png"
     inkscape:export-xdpi="96"
     inkscape:export-ydpi="96" /><path
     id="path1"
     style="display:inline;fill:#e3001b;fill-opacity:1;stroke:none;stroke-width:1.07567;stroke-linejoin:round;stroke-dashoffset:692.411;stroke-opacity:1"
     d="M 67.664412,0 C 31.052402,0.05999 1.1147118,29.202574 0.06947182,65.799702 3.6222018,61.699992 8.7668418,57.268142 14.465852,57.268142 c 10.59744,0 21.94816,11.33724 29.5064,11.33724 7.55824,0 10.538,-3.63383 10.538,-3.63383 0,0 -5.1503,14.09903 -17.00587,14.09903 -11.85556,0 -20.41857,-10.75589 -29.4335902,-10.75589 -3.35286,0 -5.99844,0.59389 -8.00242998,1.33894 C 1.1065518,106.25642 31.046942,135.40706 67.664412,135.46666 105.07267,135.46686 135.39819,105.14158 135.3983,67.733332 135.39819,30.325074 105.07267,-1.9899902e-4 67.664412,0 Z m 22.07199,29.939934 c 4.43746,0.0964 22.187618,1.6463 22.187618,20.278418 0,21.29387 -17.660048,19.69538 -17.660048,19.69538 L 114.32229,106.61444 H 99.496292 L 79.292342,66.861282 c 10.84934,-0.061 19.62258,-3.48417 19.62258,-16.57012 0,-13.085948 -11.26405,-15.407378 -19.62258,-15.407378 h -5.523 V 106.61444 H 61.341612 V 29.942154 h 27.3988 c 0,0 0.36208,-0.016 0.99599,-0.002 z"
     sodipodi:nodetypes="ccsscssccccssccccsscccccs" /></svg>
