<?xml version="1.0" encoding="UTF-8" standalone="no"?>
<!-- Uploaded to: SVG Repo, www.svgrepo.com, Generator: SVG Repo Mixer Tools -->

<svg
   aria-label="macOS"
   role="img"
   viewBox="0 0 581.435 512"
   version="1.1"
   id="svg1"
   sodipodi:docname="macos-svgrepo-com.svg"
   inkscape:export-filename="macos.png"
   inkscape:export-xdpi="96"
   inkscape:export-ydpi="96"
   inkscape:version="1.3.2 (091e20e, 2023-11-25, custom)"
   width="581.435"
   height="512"
   xmlns:inkscape="http://www.inkscape.org/namespaces/inkscape"
   xmlns:sodipodi="http://sodipodi.sourceforge.net/DTD/sodipodi-0.dtd"
   xmlns="http://www.w3.org/2000/svg"
   xmlns:svg="http://www.w3.org/2000/svg">
  <defs
     id="defs1" />
  <sodipodi:namedview
     id="namedview1"
     pagecolor="#ffffff"
     bordercolor="#000000"
     borderopacity="0.25"
     inkscape:showpageshadow="2"
     inkscape:pageopacity="0.0"
     inkscape:pagecheckerboard="0"
     inkscape:deskcolor="#d1d1d1"
     inkscape:zoom="0.75878905"
     inkscape:cx="81.709139"
     inkscape:cy="219.42857"
     inkscape:window-width="1920"
     inkscape:window-height="991"
     inkscape:window-x="-9"
     inkscape:window-y="1341"
     inkscape:window-maximized="1"
     inkscape:current-layer="svg1" />
  <rect
     width="512"
     height="512"
     rx="15.000001%"
     fill="#ffffff"
     id="rect1"
     style="fill:#ffffff;fill-opacity:0"
     x="34.717491"
     y="2.7431661e-06" />
  <path
     d="m 344.99851,68.345313 v -7.88568 c -102.51384,0 -9.8571,67.028287 0,7.88568 z m 47.31409,-35.48556 c 13.79994,-41.3998171 84.77106,-45.342657 92.65674,5.91426 h -19.7142 c -5.91426,-29.5712971 -55.19976,-31.5427171 -55.19976,21.68562 0,29.57131 45.34266,47.314087 55.19976,11.82852 h 19.7142 C 473.14082,137.34502 368.65556,113.68798 392.3126,32.859753 Z M 104.48526,1.3170359 h 19.71421 V 19.059816 c 9.8571,-23.6570401 53.22834,-25.6284601 61.11402,1.97142 13.79994,-29.5713001 68.9997,-27.5998801 68.9997,13.799937 V 107.77372 H 232.62757 V 40.745433 c 0,-29.571297 -43.37124,-29.571297 -43.37124,1.97142 V 107.77372 H 167.57071 V 38.774013 c -4.82407,-18.452487 -29.40373,-22.139037 -39.4284,-5.91426 l -3.94284,9.8571 V 107.77372 H 104.48526 Z M 149.82793,511.91483 C 57.17118,511.91483 0,446.85797 0,342.37271 0,237.88744 57.17118,174.802 149.82793,174.802 c 92.65674,0 151.79934,65.05686 151.79934,167.57071 0,102.51384 -57.17118,169.54212 -151.79934,169.54212 z M 323.31289,107.77372 c -57.17118,13.79994 -65.05686,-59.142607 -5.91426,-61.114027 l 27.59988,-1.97142 v -7.88568 c 1.97142,-23.657037 -37.45698,-25.628457 -43.37124,-3.94284 h -19.7142 a 27.599881,27.599881 0 0 1 3.94284,-13.799937 c 15.77136,-27.5998801 80.82823,-27.5998801 80.82823,15.771357 V 107.77372 H 346.96993 V 90.030943 A 35.485562,35.485562 0 0 1 323.31289,107.77372 Z M 457.36946,511.91483 C 386.39834,507.97199 337.11283,474.45785 333.16999,415.31525 h 47.31409 c 45.34266,141.94225 287.82733,-9.8571 49.2855,-59.1426 C 392.3126,348.28697 364.71272,330.54419 352.8842,308.85856 277.97023,162.97348 567.76898,119.60224 575.65466,269.43016 H 530.312 c -13.79994,-96.59958 -193.19917,-43.37124 -128.1423,23.65704 27.59988,27.59988 84.77106,25.62846 126.17088,43.37125 98.57101,45.34266 51.25692,179.39922 -70.97112,175.45638 z M 149.82793,216.20182 c -63.08545,0 -102.51385,49.2855 -102.51385,126.17089 0,76.88538 39.4284,126.17088 102.51385,126.17088 63.08544,0 104.48526,-47.31408 104.48526,-126.17088 0,-78.85681 -39.4284,-126.17089 -104.48526,-126.17089 z"
     id="path1"
     style="stroke-width:1.97142"
     inkscape:export-filename="..\PNG\macos.png"
     inkscape:export-xdpi="96"
     inkscape:export-ydpi="96" />
</svg>
