<?xml version="1.0" encoding="UTF-8" standalone="no"?>
<!-- Uploaded to: SVG Repo, www.svgrepo.com, Generator: SVG Repo Mixer Tools -->

<svg
   aria-label="macOS"
   role="img"
   viewBox="0 0 512 512"
   version="1.1"
   id="svg1"
   sodipodi:docname="macos-svgrepo-com.svg"
   inkscape:export-filename="macos.png"
   inkscape:export-xdpi="96"
   inkscape:export-ydpi="96"
   inkscape:version="1.3.2 (091e20e, 2023-11-25, custom)"
   xmlns:inkscape="http://www.inkscape.org/namespaces/inkscape"
   xmlns:sodipodi="http://sodipodi.sourceforge.net/DTD/sodipodi-0.dtd"
   xmlns="http://www.w3.org/2000/svg"
   xmlns:svg="http://www.w3.org/2000/svg">
  <defs
     id="defs1" />
  <sodipodi:namedview
     id="namedview1"
     pagecolor="#ffffff"
     bordercolor="#000000"
     borderopacity="0.25"
     inkscape:showpageshadow="2"
     inkscape:pageopacity="0.0"
     inkscape:pagecheckerboard="0"
     inkscape:deskcolor="#d1d1d1"
     inkscape:zoom="1.5175781"
     inkscape:cx="255.67053"
     inkscape:cy="256"
     inkscape:window-width="1920"
     inkscape:window-height="991"
     inkscape:window-x="-9"
     inkscape:window-y="1341"
     inkscape:window-maximized="1"
     inkscape:current-layer="svg1" />
  <rect
     width="512"
     height="512"
     rx="15%"
     fill="#ffffff"
     id="rect1"
     style="fill:#ffffff;fill-opacity:0" />
  <path
     d="m 410.79878,195.51545 v -6.94397 c -90.27164,0 -8.67996,59.02377 0,6.94397 z m 41.66383,-31.24787 c 12.15196,-36.45585 74.6477,-39.92784 81.59168,5.20798 h -17.35993 c -5.20798,-26.0399 -48.60781,-27.77589 -48.60781,19.09592 0,26.0399 39.92784,41.66383 48.60781,10.41596 h 17.35993 C 523.63833,256.27521 431.6307,235.44329 452.46261,164.26758 Z M 199.00763,136.49169 h 17.35993 v 15.62394 c 8.67997,-20.83192 46.87181,-22.56791 53.81579,1.73599 12.15195,-26.03989 60.75975,-24.3039 60.75975,12.15195 v 64.23174 h -19.09592 v -59.02376 c 0,-26.03989 -38.19185,-26.03989 -38.19185,1.73599 v 57.28777 h -19.09592 v -60.75975 c -4.24798,-16.2489 -25.89234,-19.4952 -34.71986,-5.20798 l -3.47199,8.67996 v 57.28777 h -17.35993 z m 39.92784,449.6222 C 157.3438,586.11389 107,528.82612 107,436.81849 c 0,-92.00763 50.3438,-147.55941 131.93547,-147.55941 81.59167,0 133.67146,57.28777 133.67146,147.55941 0,90.27163 -50.34379,149.2954 -133.67146,149.2954 z M 391.70286,230.23531 c -50.3438,12.15196 -57.28777,-52.07979 -5.20798,-53.81578 l 24.3039,-1.73599 v -6.94397 c 1.73599,-20.83192 -32.98387,-22.56791 -38.19185,-3.47199 H 355.247 a 24.303903,24.303903 0 0 1 3.47199,-12.15195 c 13.88794,-24.3039 71.17571,-24.3039 71.17571,13.88794 v 64.23174 h -17.35993 v -15.62393 a 31.247875,31.247875 0 0 1 -20.83191,15.62393 z M 509.75038,586.11389 C 447.25464,582.6419 403.85481,553.13002 400.38282,501.05023 h 41.66384 c 39.92784,124.9915 253.45498,-8.67997 43.39982,-52.07979 -32.98387,-6.94397 -57.28777,-22.56791 -67.70373,-41.66384 -65.96773,-128.46348 189.22324,-166.65533 196.16722,-34.71986 h -39.92784 c -12.15195,-85.06366 -170.12732,-38.19184 -112.83955,20.83192 24.3039,24.3039 74.6477,22.56791 111.10355,38.19185 86.79966,39.92784 45.13582,157.97536 -62.49575,154.50338 z M 238.93547,325.71493 c -55.55178,0 -90.27164,43.39983 -90.27164,111.10356 0,67.70372 34.71986,111.10355 90.27164,111.10355 55.55178,0 92.00763,-41.66383 92.00763,-111.10355 0,-69.43973 -34.71986,-111.10356 -92.00763,-111.10356 z"
     id="path1"
     style="stroke-width:1.73599" />
</svg>
