<?xml version="1.0" encoding="UTF-8" standalone="no"?>
<!-- Uploaded to: SVG Repo, www.svgrepo.com, Generator: SVG Repo Mixer Tools -->

<svg
   aria-label="Mailchimp"
   role="img"
   viewBox="0 0 512 512"
   version="1.1"
   id="svg1"
   sodipodi:docname="mailchimp-svgrepo-com.svg"
   inkscape:export-filename="mailchimp.png"
   inkscape:export-xdpi="96"
   inkscape:export-ydpi="96"
   inkscape:version="1.3.2 (091e20e, 2023-11-25, custom)"
   width="512"
   height="512"
   xmlns:inkscape="http://www.inkscape.org/namespaces/inkscape"
   xmlns:sodipodi="http://sodipodi.sourceforge.net/DTD/sodipodi-0.dtd"
   xmlns="http://www.w3.org/2000/svg"
   xmlns:svg="http://www.w3.org/2000/svg">
  <defs
     id="defs1" />
  <sodipodi:namedview
     id="namedview1"
     pagecolor="#ffffff"
     bordercolor="#000000"
     borderopacity="0.25"
     inkscape:showpageshadow="2"
     inkscape:pageopacity="0.0"
     inkscape:pagecheckerboard="0"
     inkscape:deskcolor="#d1d1d1"
     inkscape:zoom="1.5175781"
     inkscape:cx="229.97169"
     inkscape:cy="220.41699"
     inkscape:window-width="1920"
     inkscape:window-height="991"
     inkscape:window-x="-9"
     inkscape:window-y="1341"
     inkscape:window-maximized="1"
     inkscape:current-layer="svg1" />
  <rect
     rx="15.000001%"
     width="512"
     height="512"
     fill="#ffdd22"
     id="rect1"
     x="0"
     y="1.7744006e-06" />
  <path
     fill="#222222"
     d="m 478.7055,324.37933 -8.27022,-23.43229 c 0,0 34.45925,-52.37806 -50.99969,-70.29687 0,0 5.51348,-64.78339 -24.81066,-95.10753 C 460.78669,70.759246 445.62462,-27.105022 295.38229,36.299992 218.19357,-111.18559 -79.534343,234.78528 44.518952,289.92008 32.113625,306.46052 32.113625,389.16272 117.57256,397.43294 175.4641,521.48624 316.05784,529.75646 397.38167,492.54047 478.7055,455.32448 525.57008,336.78466 478.7055,324.37933 Z m -362.51131,55.1348 C 45.897322,372.62228 39.005472,276.13638 99.65375,266.48779 160.30203,256.8392 175.4641,385.02761 116.19419,379.51413 Z M 95.51864,248.56898 c -19.29718,0 -42.729468,26.18903 -42.729468,26.18903 C -40.939984,229.2718 222.32868,-72.591232 278.84185,44.570212 c 0,0 -137.837,66.161768 -183.32321,203.998768 z m 275.674,117.16145 c 0,-5.51348 -28.94577,8.27022 -81.32383,-9.64859 4.13511,-28.94577 66.16176,24.81066 169.53951,-45.48621 l 8.27022,28.94577 c 38.59436,-6.89185 0,124.0533 -124.0533,122.67493 -100.62101,-1.37837 -132.32352,-104.75612 -77.18872,-161.26929 11.02696,-11.02696 -39.97273,-33.08088 -30.32414,-81.32383 4.13511,-20.67555 22.05392,-50.99969 67.54013,-42.72947 45.48621,8.27022 55.1348,-33.08088 85.45894,-17.91881 30.32414,15.16207 12.40533,73.05361 16.54044,81.32383 4.13511,8.27022 48.24295,9.64859 56.51317,33.08088 8.27022,23.43229 -56.51317,74.43198 -157.13418,60.64828 -23.43229,-2.75674 -37.21599,27.5674 -22.05392,46.86458 30.32414,44.10784 154.37744,15.16207 175.05299,-27.5674 -52.37806,39.97273 -159.89092,55.1348 -168.16114,12.40533 30.32414,13.7837 81.32383,5.51348 81.32383,0 z M 190.62617,147.94797 c 30.32414,-37.21599 70.29687,-59.269914 70.29687,-59.269914 l -8.27022,20.675554 c 0,0 28.94577,-22.053924 60.64828,-22.053924 l -11.02696,11.02696 c 35.83762,1.37837 50.99969,15.162074 50.99969,15.162074 0,0 -84.08057,-24.810664 -162.64766,34.45925 z m 186.07995,53.75643 c 17.91881,-1.37837 12.40533,39.97273 12.40533,39.97273 h -11.02696 c 0,0 -19.29718,-38.59436 -1.37837,-39.97273 z m -81.32383,45.48621 c -12.40533,1.37837 -26.18903,8.27022 -24.81066,2.75674 5.51348,-22.05392 56.51317,-16.54044 55.1348,2.75674 -1.37837,19.29718 -12.40533,-8.27022 -30.32414,-5.51348 z m 28.94577,16.54044 c 1.37837,2.75674 -9.64859,0 -17.91881,1.37837 -8.27022,1.37837 -16.54044,5.51348 -16.54044,2.75674 0,-2.75674 31.70251,-15.16207 34.45925,-4.13511 z m 27.5674,4.13511 c 4.13511,-8.27022 20.67555,0 16.54044,8.27022 -4.13511,8.27022 -20.67555,0 -16.54044,-8.27022 z m 34.45925,2.75674 c -8.27022,0 -8.27022,-17.91881 0,-17.91881 8.27022,0 8.27022,19.29718 0,19.29718 z m -248.1066,73.05361 c 4.13511,4.13511 -8.27022,12.40533 -17.91881,5.51348 -9.64859,-6.89185 11.02696,-39.97273 -13.7837,-48.24295 -24.81066,-8.27022 -17.91881,23.43229 -24.81066,19.29718 -6.89185,-4.13511 9.64859,-48.24295 38.59436,-30.32414 28.94577,17.91881 -8.27022,45.48621 8.27022,53.75643 16.54044,8.27022 6.89185,-2.75674 9.64859,0 z"
     id="path1"
     style="stroke-width:1.37837"
     inkscape:export-filename="..\PNG\mailchimp.png"
     inkscape:export-xdpi="96"
     inkscape:export-ydpi="96" />
</svg>
