<?xml version="1.0" encoding="UTF-8" standalone="no"?>
<!-- Created with Inkscape (http://www.inkscape.org/) -->

<svg
   width="210mm"
   height="297mm"
   viewBox="0 0 210 297"
   version="1.1"
   id="svg1"
   inkscape:version="1.3.2 (091e20e, 2023-11-25, custom)"
   sodipodi:docname="neon_en.svg"
   xmlns:inkscape="http://www.inkscape.org/namespaces/inkscape"
   xmlns:sodipodi="http://sodipodi.sourceforge.net/DTD/sodipodi-0.dtd"
   xmlns="http://www.w3.org/2000/svg"
   xmlns:svg="http://www.w3.org/2000/svg">
  <sodipodi:namedview
     id="namedview1"
     pagecolor="#ffffff"
     bordercolor="#000000"
     borderopacity="0.25"
     inkscape:showpageshadow="2"
     inkscape:pageopacity="0.0"
     inkscape:pagecheckerboard="0"
     inkscape:deskcolor="#d1d1d1"
     inkscape:document-units="mm"
     inkscape:zoom="0.97890839"
     inkscape:cx="326.89474"
     inkscape:cy="577.68429"
     inkscape:window-width="1920"
     inkscape:window-height="991"
     inkscape:window-x="-9"
     inkscape:window-y="1341"
     inkscape:window-maximized="1"
     inkscape:current-layer="layer1"
     showgrid="false" />
  <defs
     id="defs1" />
  <g
     inkscape:label="Calque 1"
     inkscape:groupmode="layer"
     id="layer1">
    <path
       style="fill:#ffffff;fill-opacity:0;stroke:#f20000;stroke-width:5.29166667;stroke-linecap:round;stroke-linejoin:round;stroke-dasharray:none;stroke-dashoffset:692.411;stroke-opacity:1;paint-order:markers stroke fill"
       d="M 162.28875,114.08345 171.47715,94.712 76.065636,108.47262 V 85.908301 l -50.725882,43.489329 50.725882,44.34212 v -21.05012 l 95.411514,12.09487 -8.71603,-16.65642 -0.47237,-0.70967"
       id="path2"
       sodipodi:nodetypes="cccccccccc"
       inkscape:label="Flèche" />
    <path
       style="fill:#ffffff;fill-opacity:0;stroke:#f20000;stroke-width:5.29166667;stroke-linecap:round;stroke-linejoin:round;stroke-dasharray:none;stroke-dashoffset:692.411;stroke-opacity:1;paint-order:markers fill stroke"
       d="m 55.9185,140.36335 v -22.43661 c 0,0 5.922093,-0.24336 7.322966,0.13764 1.400874,0.38101 2.532308,2.57218 2.532308,4.45199 0,1.87982 -0.936124,4.01822 -2.532546,4.4524 -1.596423,0.43419 -5.01735,0.73097 -5.01735,0.73097 0,0 3.797746,0.43121 5.328709,3.12276 1.530964,2.69154 1.180595,11.05497 1.180595,11.05497"
       id="path4"
       sodipodi:nodetypes="ccssscsc" />
    <path
       id="path6"
       style="fill:#ffffff;fill-opacity:0;stroke:#f20000;stroke-width:5.29166667;stroke-linecap:round;stroke-linejoin:round;stroke-dasharray:none;stroke-dashoffset:692.411;stroke-opacity:1;paint-order:markers fill stroke"
       d="m 81.007707,117.85816 -8.118694,0.41857 v 9.57778 l 6.427299,-0.46758 -6.427299,0.46758 -0.191359,14.01494 8.374067,-0.37273"
       sodipodi:nodetypes="ccccccc" />
    <path
       id="path6-0"
       style="fill:#ffffff;fill-opacity:0;stroke:#f20000;stroke-width:5.29166667;stroke-linecap:round;stroke-linejoin:round;stroke-dasharray:none;stroke-dashoffset:692.411;stroke-opacity:1;paint-order:markers fill stroke"
       d="m 155.28198,117.85816 -8.1187,0.41857 v 9.57778 l 6.4273,-0.46758 -6.4273,0.46758 -0.19136,14.01494 8.37407,-0.37273"
       sodipodi:nodetypes="ccccccc" />
    <path
       style="fill:#ffffff;fill-opacity:0;stroke:#f20000;stroke-width:5.29166667;stroke-linecap:round;stroke-linejoin:round;stroke-dasharray:none;stroke-dashoffset:692.411;stroke-opacity:1;paint-order:markers fill stroke"
       d="m 95.791389,120.69383 c 0,0 -0.207849,-2.69326 -2.979024,-2.92247 -2.771187,-0.2292 -4.637236,0.64914 -4.918842,4.35505 -0.281607,3.70591 9.296698,11.59277 10.114805,13.75277 0.81811,2.16 0.003,5.5011 -3.256131,6.01682 -3.25909,0.51574 -5.958039,-1.14605 -5.888766,-3.95391"
       id="path7"
       sodipodi:nodetypes="czzzzc" />
    <path
       style="fill:#ffffff;fill-opacity:0;stroke:#f20000;stroke-width:5.29166667;stroke-linecap:round;stroke-linejoin:round;stroke-dasharray:none;stroke-dashoffset:692.411;stroke-opacity:1;paint-order:markers fill stroke"
       d="m 105.04233,118.11842 v 19.18756 c 0,0 1.26332,4.56026 6.02506,4.6463 4.76175,0.086 5.63637,-4.56027 5.63637,-4.56027 v -19.61776"
       id="path8"
       sodipodi:nodetypes="ccscc" />
    <path
       style="fill:#ffffff;fill-opacity:0;stroke:#f20000;stroke-width:5.29166667;stroke-linecap:round;stroke-linejoin:round;stroke-dasharray:none;stroke-dashoffset:692.411;stroke-opacity:1;paint-order:markers fill stroke"
       d="m 123.29768,139.5426 v -19.35799 l 7.51004,15.74449 5.92899,-18.32555 3.55738,24.52011"
       id="path9"
       sodipodi:nodetypes="ccccc"
       inkscape:export-filename="..\lib\assets\resume_presentation\neon_en.png"
       inkscape:export-xdpi="96"
       inkscape:export-ydpi="96" />
  </g>
</svg>
