<?xml version="1.0" encoding="UTF-8" standalone="no"?>
<!-- Created with Inkscape (http://www.inkscape.org/) -->

<svg
   width="210mm"
   height="297mm"
   viewBox="0 0 210 297"
   version="1.1"
   id="svg1"
   inkscape:version="1.3.2 (091e20e, 2023-11-25, custom)"
   sodipodi:docname="Nocturne.svg"
   inkscape:export-filename="..\lib\assets\Nocturne.png"
   inkscape:export-xdpi="63.330383"
   inkscape:export-ydpi="63.330383"
   xmlns:inkscape="http://www.inkscape.org/namespaces/inkscape"
   xmlns:sodipodi="http://sodipodi.sourceforge.net/DTD/sodipodi-0.dtd"
   xmlns="http://www.w3.org/2000/svg"
   xmlns:svg="http://www.w3.org/2000/svg">
  <sodipodi:namedview
     id="namedview1"
     pagecolor="#505050"
     bordercolor="#ffffff"
     borderopacity="1"
     inkscape:showpageshadow="0"
     inkscape:pageopacity="0"
     inkscape:pagecheckerboard="1"
     inkscape:deskcolor="#505050"
     inkscape:document-units="mm"
     inkscape:zoom="0.25"
     inkscape:cx="-1368"
     inkscape:cy="578"
     inkscape:window-width="2400"
     inkscape:window-height="1261"
     inkscape:window-x="-9"
     inkscape:window-y="-9"
     inkscape:window-maximized="1"
     inkscape:current-layer="layer1"
     inkscape:export-bgcolor="#ffffff00" />
  <defs
     id="defs1">
    <inkscape:path-effect
       effect="fillet_chamfer"
       id="path-effect7"
       is_visible="true"
       lpeversion="1"
       nodesatellites_param="F,0,0,1,0,5.1673453,0,1 @ F,0,0,1,0,0,0,1 @ F,0,0,1,0,11.493455,0,1 @ F,0,0,1,0,0,0,1"
       radius="0"
       unit="px"
       method="auto"
       mode="F"
       chamfer_steps="1"
       flexible="false"
       use_knot_distance="true"
       apply_no_radius="true"
       apply_with_radius="true"
       only_selected="false"
       hide_knots="false" />
    <inkscape:path-effect
       effect="fillet_chamfer"
       id="path-effect7-1"
       is_visible="true"
       lpeversion="1"
       nodesatellites_param="F,0,0,1,0,5.1673453,0,1 @ F,0,0,1,0,0,0,1 @ F,0,0,1,0,11.493455,0,1 @ F,0,0,1,0,0,0,1"
       radius="0"
       unit="px"
       method="auto"
       mode="F"
       chamfer_steps="1"
       flexible="false"
       use_knot_distance="true"
       apply_no_radius="true"
       apply_with_radius="true"
       only_selected="false"
       hide_knots="false" />
  </defs>
  <g
     inkscape:label="Calque 1"
     inkscape:groupmode="layer"
     id="layer1">
    <ellipse
       style="fill:#000e38;fill-opacity:1;stroke:#000e38;stroke-width:22.4929;stroke-linecap:round;stroke-linejoin:round;stroke-dasharray:none;stroke-opacity:0.495434;paint-order:markers fill stroke"
       id="path1"
       cx="105.89037"
       cy="149.7081"
       inkscape:label="Voie Lactée"
       rx="91.427803"
       ry="91.442467" />
    <g
       id="g6"
       inkscape:label="Pulsar"
       transform="matrix(0.90007122,0,0,0.89240502,21.960524,66.563257)">
      <path
         sodipodi:type="star"
         style="fill:#ffe680;fill-opacity:1;stroke:none;stroke-width:4.99999;stroke-linecap:round;stroke-linejoin:round;stroke-opacity:0.495434;paint-order:markers fill stroke"
         id="path3"
         inkscape:flatsided="false"
         sodipodi:sides="5"
         sodipodi:cx="121.62783"
         sodipodi:cy="79.19323"
         sodipodi:r1="18.293659"
         sodipodi:r2="1.5796099"
         sodipodi:arg1="0.26179939"
         sodipodi:arg2="0.89011792"
         inkscape:rounded="0.011"
         inkscape:randomized="0"
         d="m 139.29815,83.927977 c -0.0485,0.181064 -16.53056,-3.625127 -16.67624,-3.50716 -0.14568,0.117967 0.15053,17.031191 -0.0367,17.041001 -0.1872,0.0098 -1.66053,-16.841723 -1.81774,-16.943816 -0.15721,-0.102093 -16.15111,5.40609 -16.21828,5.231089 -0.0672,-0.175001 15.5043,-6.78363 15.55281,-6.964694 0.0485,-0.181065 -10.13246,-13.690044 -9.98678,-13.808011 0.14567,-0.117967 11.24271,12.649209 11.4299,12.639399 0.18719,-0.0098 9.8889,-13.867002 10.04611,-13.764909 0.15721,0.102094 -8.55592,14.601271 -8.48875,14.776272 0.0672,0.175001 16.24414,5.119765 16.19563,5.300829 z"
         inkscape:transform-center-x="-0.29580258"
         inkscape:transform-center-y="1.462838"
         inkscape:label="Faisceaux de radiations" />
      <path
         sodipodi:type="star"
         style="fill:#bffaff;fill-opacity:1;stroke:none;stroke-width:4.99999;stroke-linecap:round;stroke-linejoin:round;stroke-opacity:0.495434;paint-order:markers fill stroke"
         id="path2"
         inkscape:flatsided="false"
         sodipodi:sides="5"
         sodipodi:cx="145.68311"
         sodipodi:cy="91.626297"
         sodipodi:r1="30.273022"
         sodipodi:r2="18.163813"
         sodipodi:arg1="-0.52359878"
         sodipodi:arg2="0.10471975"
         inkscape:rounded="0.161"
         inkscape:randomized="0"
         d="m 171.90031,76.489786 c 1.52029,2.633221 -7.83507,14.011221 -8.1529,17.035146 -0.31782,3.023925 6.46748,16.098378 4.43293,18.357968 -2.03454,2.25959 -15.74663,-3.12189 -18.72077,-2.48971 -2.97413,0.63217 -13.3119,11.1256 -16.08961,9.88889 -2.77771,-1.23672 -1.89689,-15.94066 -3.41718,-18.57388 -1.52029,-2.633218 -14.69468,-9.22237 -14.37686,-12.246295 0.31783,-3.023925 14.5743,-6.729978 16.60884,-8.989571 2.03455,-2.259593 4.23009,-16.825348 7.20423,-17.457521 2.97414,-0.632172 10.90429,11.781299 13.682,13.018015 2.77771,1.236716 17.30903,-1.176263 18.82932,1.456958 z"
         inkscape:transform-center-y="3.3548798"
         transform="matrix(0.49289134,0,0,0.49289134,50.498161,34.593027)"
         inkscape:label="Noyau" />
    </g>
    <path
       sodipodi:type="star"
       style="fill:#cc8585;fill-opacity:1;stroke:none;stroke-width:4.99999;stroke-linecap:round;stroke-linejoin:round;stroke-opacity:0.495434;paint-order:markers fill stroke"
       id="path2-3"
       inkscape:flatsided="false"
       sodipodi:sides="5"
       sodipodi:cx="150.61838"
       sodipodi:cy="106.43214"
       sodipodi:r1="10.785265"
       sodipodi:r2="6.5181403"
       sodipodi:arg1="0.0034246009"
       sodipodi:arg2="0.63174313"
       inkscape:rounded="0.161"
       inkscape:randomized="0"
       d="m 161.40358,106.46907 c -0.004,1.08074 -4.88683,2.94021 -5.52507,3.81237 -0.63824,0.87216 -0.93346,6.089 -1.96245,6.41945 -1.02899,0.33044 -4.30641,-3.73908 -5.33312,-4.07657 -1.0267,-0.33748 -6.07943,0.99383 -6.71168,0.11732 -0.63225,-0.87651 2.22531,-5.25109 2.22902,-6.33183 0.004,-1.08074 -2.82384,-5.47478 -2.1856,-6.34694 0.63823,-0.872159 5.68173,0.49373 6.71072,0.16329 1.02899,-0.330452 4.33421,-4.377433 5.36092,-4.039946 1.0267,0.337487 1.28618,5.556226 1.91843,6.432736 0.63225,0.87651 5.50253,2.76938 5.49883,3.85012 z"
       inkscape:transform-center-y="5.7631478"
       transform="matrix(0.85398081,0,0,0.84670719,3.3504424,15.745894)"
       inkscape:label="Naine rouge"
       inkscape:transform-center-x="-1.0968749e-05" />
    <path
       sodipodi:type="star"
       style="fill:#ffffff;fill-opacity:1;stroke:none;stroke-width:4.99999;stroke-linecap:round;stroke-linejoin:round;stroke-opacity:0.495434;paint-order:markers fill stroke"
       id="path2-3-6"
       inkscape:flatsided="false"
       sodipodi:sides="5"
       sodipodi:cx="145.86841"
       sodipodi:cy="96.253639"
       sodipodi:r1="11.320931"
       sodipodi:r2="6.5181403"
       sodipodi:arg1="-0.72699872"
       sodipodi:arg2="-0.098680188"
       inkscape:rounded="0.161"
       inkscape:randomized="0"
       d="m 154.3271,88.729407 c 0.76606,0.861201 -2.08582,5.735058 -1.97226,6.882064 0.11355,1.147007 3.86574,5.367049 3.28342,6.361739 -0.58233,0.9947 -6.09892,-0.21149 -7.1547,0.25095 -1.05577,0.46244 -3.90978,5.33505 -5.03574,5.0886 -1.12596,-0.24644 -1.68352,-5.86577 -2.44959,-6.72697 -0.76606,-0.8612 -6.28212,-2.069805 -6.39568,-3.216811 -0.11355,-1.147007 5.05844,-3.413749 5.64077,-4.408443 0.58232,-0.994694 0.0272,-6.614261 1.083,-7.076703 1.05577,-0.462443 4.80981,3.755957 5.93577,4.002404 1.12596,0.246447 6.29894,-2.018032 7.06501,-1.15683 z"
       inkscape:transform-center-y="2.993912"
       transform="matrix(0.44363732,0,0,0.43985871,48.296104,35.55956)"
       inkscape:label="Proxima" />
    <path
       sodipodi:type="star"
       style="fill:#7d4111;fill-opacity:1;stroke:none;stroke-width:4.99977566;stroke-linecap:round;stroke-linejoin:round;stroke-opacity:0.495434;paint-order:markers fill stroke;stroke-dasharray:none"
       id="path2-3-6-5"
       inkscape:flatsided="false"
       sodipodi:sides="5"
       sodipodi:cx="145.86841"
       sodipodi:cy="96.253639"
       sodipodi:r1="11.320931"
       sodipodi:r2="6.5181403"
       sodipodi:arg1="-0.72699872"
       sodipodi:arg2="-0.098680188"
       inkscape:rounded="0.161"
       inkscape:randomized="0"
       d="m 154.3271,88.729407 c 0.76606,0.861201 -2.08582,5.735058 -1.97226,6.882064 0.11355,1.147007 3.86574,5.367049 3.28342,6.361739 -0.58233,0.9947 -6.09892,-0.21149 -7.1547,0.25095 -1.05577,0.46244 -3.90978,5.33505 -5.03574,5.0886 -1.12596,-0.24644 -1.68352,-5.86577 -2.44959,-6.72697 -0.76606,-0.8612 -6.28212,-2.069805 -6.39568,-3.216811 -0.11355,-1.147007 5.05844,-3.413749 5.64077,-4.408443 0.58232,-0.994694 0.0272,-6.614261 1.083,-7.076703 1.05577,-0.462443 4.80981,3.755957 5.93577,4.002404 1.12596,0.246447 6.29894,-2.018032 7.06501,-1.15683 z"
       inkscape:transform-center-y="1.9235355"
       transform="matrix(0.28502917,0,0,0.28260149,95.741404,47.44725)"
       inkscape:label="Naine brune" />
    <g
       id="g7"
       inkscape:label="Comète"
       transform="matrix(0.65764974,-0.65204832,0.65764974,0.65204832,66.945584,153.01572)">
      <path
         sodipodi:type="star"
         style="fill:#ffffcc;fill-opacity:1;stroke:none;stroke-width:4.99999;stroke-linecap:round;stroke-linejoin:round;stroke-opacity:0.495434;paint-order:markers fill stroke"
         id="path2-3-6-5-2"
         inkscape:flatsided="false"
         sodipodi:sides="5"
         sodipodi:cx="145.86841"
         sodipodi:cy="96.253639"
         sodipodi:r1="11.320931"
         sodipodi:r2="6.5181403"
         sodipodi:arg1="-0.72699872"
         sodipodi:arg2="-0.098680188"
         inkscape:rounded="0.161"
         inkscape:randomized="0"
         d="m 154.3271,88.729407 c 0.76606,0.861201 -2.08582,5.735058 -1.97226,6.882064 0.11355,1.147007 3.86574,5.367049 3.28342,6.361739 -0.58233,0.9947 -6.09892,-0.21149 -7.1547,0.25095 -1.05577,0.46244 -3.90978,5.33505 -5.03574,5.0886 -1.12596,-0.24644 -1.68352,-5.86577 -2.44959,-6.72697 -0.76606,-0.8612 -6.28212,-2.069805 -6.39568,-3.216811 -0.11355,-1.147007 5.05844,-3.413749 5.64077,-4.408443 0.58232,-0.994694 0.0272,-6.614261 1.083,-7.076703 1.05577,-0.462443 4.80981,3.755957 5.93577,4.002404 1.12596,0.246447 6.29894,-2.018032 7.06501,-1.15683 z"
         inkscape:transform-center-y="2.1554514"
         transform="matrix(0.31667402,0,0,0.31667402,42.02001,35.297302)"
         inkscape:label="Astéroïde" />
      <path
         style="fill:#ffffcc;fill-opacity:1;stroke:none;stroke-width:14.674;stroke-linecap:round;stroke-linejoin:round;stroke-dasharray:none;stroke-opacity:0.36758;paint-order:markers fill stroke"
         d="M 26.470078,86.67278 C 42.68904,71.232492 53.587615,69.425236 57.697603,67.902644 49.30439,70.428359 43.186259,74.708178 39.083977,81.225867 41.062188,76.858077 53.427856,70.286602 64.362811,67.35659 c -9.180394,2.803579 -14.599652,9.891416 -14.599652,9.891416 0,0 3.610827,-5.882245 20.503282,-10.803958 C 59.773549,70.079547 58.241585,74.768929 58.241585,74.768929 60.135494,70.864592 68.894369,66.3145 86.962826,66.145127 62.591697,63.182772 45.364258,64.728078 26.470078,86.67278 Z"
         id="path6"
         sodipodi:nodetypes="ccccccccc"
         inkscape:label="Queue" />
    </g>
    <g
       id="g8"
       inkscape:label="Quasar">
      <path
         sodipodi:type="star"
         style="fill:#ffffff;fill-opacity:1;stroke:none;stroke-width:4.99999;stroke-linecap:round;stroke-linejoin:round;stroke-opacity:0.495434;paint-order:markers fill stroke"
         id="path2-3-1"
         inkscape:flatsided="false"
         sodipodi:sides="5"
         sodipodi:cx="91.943398"
         sodipodi:cy="62.014622"
         sodipodi:r1="15.603274"
         sodipodi:r2="0.11217297"
         sodipodi:arg1="0.0034246009"
         sodipodi:arg2="0.63174313"
         inkscape:rounded="0.161"
         inkscape:randomized="0"
         d="m 107.54658,62.068057 c -0.009,2.497524 -14.037731,-2.002704 -15.512659,0.01281 -1.474928,2.015512 7.058235,14.026134 4.680306,14.789777 -2.37793,0.763643 -2.433214,-13.969546 -4.805858,-14.749458 -2.372644,-0.779912 -11.158531,11.047095 -12.61962,9.021528 -1.461088,-2.025567 12.533923,-6.630951 12.542476,-9.128475 0.0086,-2.497525 -13.954587,-7.198654 -12.479659,-9.214167 1.474927,-2.015512 10.179604,9.871393 12.557534,9.10775 2.37793,-0.763643 2.534122,-15.496108 4.906766,-14.716196 2.372644,0.779912 -6.242582,12.731807 -4.781493,14.757374 1.461088,2.025567 15.520757,-2.378467 15.512207,0.119058 z"
         inkscape:transform-center-y="3.3548798"
         transform="matrix(1.5423228,0,0,1.5291863,-43.072608,21.706417)"
         inkscape:label="Lueur" />
      <path
         sodipodi:type="star"
         style="fill:#ffe680;fill-opacity:1;stroke:none;stroke-width:4.99999;stroke-linecap:round;stroke-linejoin:round;stroke-opacity:0.495434;paint-order:markers fill stroke"
         id="path4"
         inkscape:flatsided="false"
         sodipodi:sides="5"
         sodipodi:cx="140.54771"
         sodipodi:cy="96.491402"
         sodipodi:r1="6.5428843"
         sodipodi:r2="3.954232"
         sodipodi:arg1="0.66828942"
         sodipodi:arg2="1.2966079"
         inkscape:rounded="0.161"
         inkscape:randomized="0"
         d="m 145.68311,100.54566 c -0.40626,0.5146 -3.43358,-0.42526 -4.06473,-0.24774 -0.63114,0.17753 -2.72462,2.55773 -3.33957,2.33037 -0.61495,-0.22736 -0.65659,-3.396944 -1.02046,-3.94234 -0.36387,-0.545396 -3.27449,-1.800892 -3.24829,-2.456004 0.0262,-0.655111 3.02778,-1.674165 3.43405,-2.188761 0.40626,-0.514597 0.70087,-3.670736 1.33202,-3.84826 0.63114,-0.177524 2.52786,2.362253 3.14281,2.589611 0.61495,0.227357 3.70766,-0.467748 4.07153,0.07765 0.36387,0.545396 -1.46548,3.134118 -1.49168,3.78923 -0.0262,0.655111 1.59058,3.381656 1.18432,3.896246 z"
         inkscape:transform-center-x="0.52360888"
         inkscape:transform-center-y="-0.077590114"
         inkscape:label="Etoile"
         transform="matrix(3.1291334,0,0,3.1024814,-340.96312,-183.32283)" />
    </g>
    <path
       style="fill:#ececd8;fill-opacity:1;stroke:none;stroke-width:9.31121;stroke-linecap:round;stroke-linejoin:round;stroke-dasharray:none;stroke-opacity:0.36758;paint-order:markers fill stroke"
       d="m 54.707317,92.665542 c -28.502167,18.381288 -38.97214,76.805198 -6.22973,109.463908 30.245854,30.16853 78.086213,27.54244 100.968103,9.59944 4.97662,-3.90245 3.06657,-6.47584 -3.17515,-5.35614 -27.97818,5.01899 -54.966328,-7.07689 -73.903893,-27.63164 C 52.429642,157.10158 50.31577,117.83994 57.459914,95.01983 58.312221,92.297354 57.103798,91.120031 54.707317,92.665542 Z"
       id="path7"
       sodipodi:nodetypes="czczc"
       inkscape:label="Lune"
       transform="matrix(1.0107735,0,0,1.0191685,0.36029196,-4.4212475)"
       inkscape:original-d="M 59.224924,90.165338 C 27.390901,104.99504 14.058318,167.79817 48.477587,202.12945 82.896845,236.46072 140.10107,228.32279 157.38025,203.47247 125.55408,214.43633 93.802814,202.00783 72.366647,178.74111 50.93048,155.4744 50.098642,111.83575 59.224924,90.165338 Z"
       inkscape:path-effect="#path-effect7" />
    <path
       id="path10-8-6-8-7"
       style="display:none;fill:#a7a596;fill-opacity:0.920375;stroke:#a7a596;stroke-width:5.695;stroke-linecap:round;stroke-linejoin:round;stroke-dasharray:none;stroke-opacity:0.176471;paint-order:markers fill stroke"
       d="m 41.038839,150.19548 a 4.9142966,4.9142966 0 0 0 -4.914429,4.91392 4.9142966,4.9142966 0 0 0 3.409094,4.67051 8.7028418,8.7028418 0 0 0 -3.664892,7.07192 8.7028418,8.7028418 0 0 0 8.702828,8.70283 8.7028418,8.7028418 0 0 0 8.702828,-8.70283 8.7028418,8.7028418 0 0 0 -8.393287,-8.69508 4.9142966,4.9142966 0 0 0 1.072286,-3.04735 4.9142966,4.9142966 0 0 0 -4.914428,-4.91392 z"
       inkscape:label="Mer de la Fécondité" />
    <g
       id="g15"
       inkscape:label="Mer de la Tranquilité"
       style="display:none">
      <path
         id="path10-2"
         style="fill:none;fill-opacity:1;stroke:#a7a596;stroke-width:3.231;stroke-linecap:round;stroke-linejoin:round;stroke-dasharray:none;stroke-opacity:0.176471;paint-order:markers fill stroke"
         inkscape:label="Contour"
         d="m 56.375026,169.3996 a 9.1392723,9.1392723 0 0 0 -3.269997,0.62331 l -5.77e-4,5.9e-4 a 9.1392723,9.1392723 0 0 0 -5.379265,11.23885 3.9338558,3.9338558 0 0 0 -3.878905,-0.5893 3.9338558,3.9338558 0 0 0 -2.236122,5.09498 3.9338558,3.9338558 0 0 0 3.778574,2.49331 2.8797824,2.8797824 0 0 0 -0.275623,2.6138 2.8797824,2.8797824 0 0 0 3.728985,1.63759 2.8797824,2.8797824 0 0 0 1.637017,-3.73013 2.8797824,2.8797824 0 0 0 -2.295515,-1.80597 3.9338558,3.9338558 0 0 0 1.012541,-2.84792 9.1392723,9.1392723 0 0 0 6.654165,3.5266 13.114433,13.114433 0 0 0 0.78074,3.2158 13.114433,13.114433 0 0 0 16.98196,7.45449 13.114433,13.114433 0 0 0 8.241593,-10.57458 c -3.306457,-2.86979 -6.475158,-5.92739 -9.458833,-9.18494 -2.462623,-2.68866 -4.677705,-5.62107 -6.685302,-8.72652 a 6.2112914,6.2112914 0 0 0 -0.855122,0.22718 6.2112914,6.2112914 0 0 0 -2.355483,1.64624 9.1392723,9.1392723 0 0 0 -6.124831,-2.31338 z" />
      <path
         id="path10"
         style="fill:#a7a596;fill-opacity:0.796253;stroke:none;stroke-width:7.43138;stroke-linecap:round;stroke-linejoin:round;stroke-dasharray:none;stroke-opacity:0.379391;paint-order:markers fill stroke"
         inkscape:label="Mare Tranquillitatis"
         d="m 58.081129,169.11254 a 9.1392723,9.1392723 0 0 0 -3.269997,0.62331 l -5.77e-4,5.9e-4 a 9.1392723,9.1392723 0 0 0 -5.379265,11.23885 3.9338558,3.9338558 0 0 0 -3.878905,-0.5893 3.9338558,3.9338558 0 0 0 -2.236122,5.09498 3.9338558,3.9338558 0 0 0 3.778574,2.49331 2.8797824,2.8797824 0 0 0 -0.275623,2.6138 2.8797824,2.8797824 0 0 0 3.728985,1.63759 2.8797824,2.8797824 0 0 0 1.637017,-3.73013 2.8797824,2.8797824 0 0 0 -2.295515,-1.80597 3.9338558,3.9338558 0 0 0 1.012541,-2.84792 9.1392723,9.1392723 0 0 0 6.654165,3.5266 13.114433,13.114433 0 0 0 0.78074,3.2158 13.114433,13.114433 0 0 0 16.98196,7.45449 13.114433,13.114433 0 0 0 8.241593,-10.57458 c -3.306457,-2.86979 -6.475158,-5.92739 -9.458833,-9.18494 -2.462623,-2.68866 -4.677705,-5.62107 -6.685302,-8.72652 a 6.2112914,6.2112914 0 0 0 -0.855122,0.22718 6.2112914,6.2112914 0 0 0 -2.355483,1.64624 9.1392723,9.1392723 0 0 0 -6.124831,-2.31338 z" />
    </g>
    <g
       id="g16"
       inkscape:label="Mer de la Sérénité"
       transform="translate(121.98181,61.926349)"
       style="display:none">
      <circle
         style="fill:#a7a596;fill-opacity:0.721311;stroke:none;stroke-width:0.495;stroke-linecap:round;stroke-linejoin:round;stroke-dasharray:none;stroke-opacity:0.379391;paint-order:markers fill stroke"
         id="path10-8-6-8-0"
         cx="-37.412746"
         cy="135.90044"
         r="4.9142966" />
      <path
         id="path10-8-6-8-0-5"
         style="fill:none;fill-opacity:0.34192;stroke:#a7a596;stroke-width:3.095;stroke-linecap:round;stroke-linejoin:round;stroke-dasharray:none;stroke-opacity:0.177986;paint-order:markers fill stroke"
         d="m -36.225696,131.11293 a 4.9142966,4.9142966 0 0 0 -4.913912,4.91391 4.9142966,4.9142966 0 0 0 4.913912,4.91443 4.9142966,4.9142966 0 0 0 4.914429,-4.91443 4.9142966,4.9142966 0 0 0 -4.914429,-4.91391 z m -2.492354,10.5916 a 2.5756884,2.5756884 0 0 0 -2.575554,2.57555 2.5756884,2.5756884 0 0 0 2.575554,2.57556 2.5756884,2.5756884 0 0 0 2.575553,-2.57556 2.5756884,2.5756884 0 0 0 -2.575553,-2.57555 z"
         inkscape:label="Zone d'impact" />
      <circle
         style="fill:#a7a596;fill-opacity:0.721569;stroke:none;stroke-width:0.259252;stroke-linecap:round;stroke-linejoin:round;stroke-opacity:1;paint-order:markers fill stroke"
         id="path10-8-6-8-0-1"
         cx="-39.362381"
         cy="143.15245"
         r="2.5756884" />
    </g>
    <g
       id="g12"
       inkscape:label="Cratère de Tyco Brahé"
       transform="matrix(0.28601716,0,0,0.28601716,40.495949,70.947207)"
       style="display:none;stroke:#ddddc8;stroke-width:0;stroke-dasharray:none;stroke-opacity:0.379391">
      <path
         sodipodi:type="star"
         style="fill:#e9e8e6;fill-opacity:0.728337;stroke:#ddddc8;stroke-width:0;stroke-linecap:round;stroke-linejoin:round;stroke-dasharray:none;stroke-opacity:0.379391;paint-order:markers fill stroke"
         id="path11"
         inkscape:flatsided="false"
         sodipodi:sides="14"
         sodipodi:cx="47.567291"
         sodipodi:cy="121.32701"
         sodipodi:r1="5.2540507"
         sodipodi:r2="1.5416734"
         sodipodi:arg1="0.91797587"
         sodipodi:arg2="1.6758726"
         inkscape:rounded="0.161"
         inkscape:randomized="0"
         d="m 50.758756,125.50069 c -0.682267,0.0818 -2.728114,-2.92598 -3.35316,-2.64051 -0.558611,0.25513 1.807291,3.81062 1.226214,3.61191 -0.650185,-0.22234 -1.188411,-3.8199 -1.875419,-3.8339 -0.613988,-0.0125 -0.02505,4.21741 -0.462369,3.78626 -0.489324,-0.48243 0.586673,-3.95725 -0.02623,-4.26794 -0.547757,-0.27767 -1.852435,3.78888 -2.059373,3.21068 -0.231549,-0.64696 2.245558,-3.31081 1.828158,-3.85666 -0.373035,-0.48783 -3.31292,2.60992 -3.248493,1.9992 0.07209,-0.68336 3.459682,-2.00862 3.320454,-2.68152 -0.12443,-0.60138 -4.11724,0.91403 -3.79421,0.39174 0.361448,-0.58441 3.988576,-0.3086 4.155095,-0.97527 0.14882,-0.59581 -4.106091,-0.96289 -3.588437,-1.2933 0.579218,-0.36971 3.727482,1.45253 4.166767,0.92414 0.392595,-0.47224 -3.28168,-2.6491 -2.671929,-2.72219 0.682267,-0.0818 2.728114,2.92598 3.35316,2.64051 0.558611,-0.25513 -1.807292,-3.81062 -1.226214,-3.61191 0.650184,0.22234 1.18841,3.8199 1.875418,3.8339 0.613988,0.0125 0.02505,-4.21741 0.462369,-3.78625 0.489325,0.48243 -0.586673,3.95724 0.02623,4.26793 0.547756,0.27767 1.852435,-3.78888 2.059373,-3.21068 0.231548,0.64697 -2.245558,3.31081 -1.828158,3.85666 0.373035,0.48783 3.312919,-2.60992 3.248493,-1.9992 -0.07209,0.68336 -3.459683,2.00863 -3.320455,2.68152 0.12443,0.60138 4.117241,-0.91403 3.79421,-0.39174 -0.361448,0.58441 -3.988575,0.30861 -4.155094,0.97528 -0.14882,0.59581 4.106091,0.96288 3.588436,1.29329 -0.579218,0.36971 -3.727481,-1.45253 -4.166767,-0.92413 -0.392594,0.47223 3.28168,2.64909 2.67193,2.72218 z"
         inkscape:transform-center-x="0.11807406"
         inkscape:transform-center-y="-0.11807526"
         inkscape:label="Zone d'impact" />
      <ellipse
         style="fill:#e9e8e6;fill-opacity:0.728337;stroke:#ddddc8;stroke-width:0;stroke-linecap:round;stroke-linejoin:round;stroke-dasharray:none;stroke-opacity:0.379391;paint-order:markers fill stroke"
         id="path10-8-6"
         cx="47.407619"
         cy="121.6782"
         rx="4.2594862"
         ry="4.1659417"
         inkscape:label="Cratère" />
    </g>
    <g
       id="g17"
       inkscape:label="Mer du Froid"
       transform="matrix(1.9165958,0.50990982,-0.50990982,1.9165958,245.16029,-125.25379)"
       style="display:none">
      <path
         id="path10-8-6-8-06"
         style="fill:#a7a596;fill-opacity:1;stroke:none;stroke-width:0.499019;stroke-linecap:round;stroke-linejoin:round;stroke-opacity:1;paint-order:markers fill stroke"
         d="m -29.685527,183.48854 a 4.0957837,2.1079664 0 0 0 -4.095874,2.10788 4.0957837,2.1079664 0 0 0 2.740402,1.98438 3.4175873,1.663631 3.9454957 0 0 -2.28875,1.39578 3.4175873,1.663631 3.9454957 0 0 3.29489,1.89497 3.4175873,1.663631 3.9454957 0 0 3.523816,-1.4242 3.4175873,1.663631 3.9454957 0 0 -2.438094,-1.7818 4.0957837,2.1079664 0 0 0 3.164148,-1.43919 1.3711308,4.0525836 83.584806 0 0 3.9734,0.31367 1.3711308,4.0525836 83.584806 0 0 3.567741,-1.87533 1.3711308,4.0525836 83.584806 0 0 -4.44469,-0.77877 1.3711308,4.0525836 83.584806 0 0 -3.119189,1.03353 4.0957837,2.1079664 0 0 0 -3.8778,-1.43092 z" />
      <path
         id="path15"
         style="fill:#a7a596;fill-opacity:0.252927;stroke:none;stroke-width:5.34652;stroke-linecap:round;stroke-linejoin:round;stroke-dasharray:none;stroke-opacity:0.379391;paint-order:markers fill stroke"
         d="m -67.231911,173.53142 a 5.0912094,2.7002449 0 0 0 -1.948002,-0.20574 5.0912094,2.7002449 0 0 0 -5.09162,2.7002 5.0912094,2.7002449 0 0 0 1.51006,1.9192 4.7079606,2.4877537 7.1914276 0 0 -0.267262,0.58255 4.7079606,2.4877537 7.1914276 0 0 4.172499,3.1249 4.7079606,2.4877537 7.1914276 0 0 5.140174,-1.76463 4.7079606,2.4877537 7.1914276 0 0 -0.701749,-1.65661 5.6223116,1.9063366 4.9974565 0 0 3.828774,0.74827 5.6223116,1.9063366 4.9974565 0 0 5.393445,-1.56443 5.6223116,1.9063366 4.9974565 0 0 -5.806085,-2.2901 5.6223116,1.9063366 4.9974565 0 0 -3.284394,0.16468 5.0912094,2.7002449 0 0 0 -2.94584,-1.75829 z"
         transform="matrix(0.97994486,-0.19926888,0.21095498,0.97749577,0,0)" />
    </g>
  </g>
</svg>
