<?xml version="1.0" encoding="UTF-8" standalone="no"?>
<!-- Uploaded to: SVG Repo, www.svgrepo.com, Generator: SVG Repo Mixer Tools -->

<svg
   fill="#000000"
   version="1.1"
   width="512"
   height="512"
   viewBox="0 0 327.68 327.68"
   enable-background="new 0 0 512 512"
   xml:space="preserve"
   id="svg1"
   sodipodi:docname="objective_c.svg"
   inkscape:version="1.3.2 (091e20e, 2023-11-25, custom)"
   xmlns:inkscape="http://www.inkscape.org/namespaces/inkscape"
   xmlns:sodipodi="http://sodipodi.sourceforge.net/DTD/sodipodi-0.dtd"
   xmlns="http://www.w3.org/2000/svg"
   xmlns:svg="http://www.w3.org/2000/svg"><defs
   id="defs1" /><sodipodi:namedview
   id="namedview1"
   pagecolor="#ffffff"
   bordercolor="#000000"
   borderopacity="0.25"
   inkscape:showpageshadow="2"
   inkscape:pageopacity="0.0"
   inkscape:pagecheckerboard="0"
   inkscape:deskcolor="#d1d1d1"
   inkscape:zoom="0.34338873"
   inkscape:cx="-824.13887"
   inkscape:cy="988.67543"
   inkscape:window-width="1920"
   inkscape:window-height="991"
   inkscape:window-x="-9"
   inkscape:window-y="1341"
   inkscape:window-maximized="1"
   inkscape:current-layer="svg1" />

<g
   id="5151e0c8492e5103c096af88a51e787d"
   transform="matrix(0.64125245,0,0,0.64125245,-0.32062623,-0.32095177)"
   inkscape:export-filename="..\lib\assets\bubble_content\skill_badge\objectivec.png"
   inkscape:export-xdpi="96"
   inkscape:export-ydpi="96">

<path
   display="inline"
   d="m 511.5,279.439 c -3.373,14.068 -8.679,25.814 -15.919,35.246 -7.24,9.432 -16.23,16.547 -26.968,21.352 -10.741,4.799 -24.402,7.201 -40.995,7.201 -20.123,0 -36.57,-2.928 -49.328,-8.777 -12.763,-5.852 -23.771,-16.131 -33.035,-30.865 -9.262,-14.725 -13.894,-33.58 -13.894,-56.558 0,-30.63 8.15,-54.175 24.443,-70.626 16.293,-16.453 39.353,-24.683 69.165,-24.683 23.325,0 41.66,4.72 55.009,14.149 13.349,9.434 23.263,23.922 29.746,43.455 l -50.526,11.241 c -1.764,-5.639 -3.618,-9.769 -5.556,-12.376 -3.202,-4.379 -7.119,-7.75 -11.748,-10.105 -4.637,-2.356 -9.81,-3.541 -15.536,-3.541 -12.975,0 -22.909,5.217 -29.816,15.648 -5.215,7.739 -7.827,19.895 -7.827,36.462 0,20.526 3.115,34.595 9.341,42.21 6.237,7.609 14.995,11.41 26.281,11.41 10.945,0 19.221,-3.068 24.822,-9.219 5.598,-6.143 9.66,-15.076 12.188,-26.777 z M 111.666,206.663 c 2.299,9.269 3.447,19.707 3.447,31.31 0,13.263 -1.56,24.715 -4.687,34.364 -3.127,9.648 -7.353,17.615 -12.663,23.902 -5.31,6.297 -11.527,10.967 -18.651,14.02 -7.119,3.049 -14.638,4.578 -22.547,4.578 -9.494,0 -17.765,-1.713 -24.81,-5.148 C 24.707,306.263 18.868,301.31 14.235,294.828 9.598,288.348 6.151,280.455 3.888,271.148 1.625,261.841 0.5,251.35 0.5,239.667 c 0,-13.112 1.547,-24.487 4.637,-34.135 3.085,-9.646 7.29,-17.613 12.601,-23.905 5.31,-6.29 11.511,-10.964 18.593,-14.016 7.082,-3.053 14.584,-4.577 22.493,-4.577 9.494,0 17.765,1.734 24.814,5.2 7.044,3.464 12.904,8.419 17.574,14.863 4.673,6.441 8.158,14.296 10.454,23.566 z m -17.462,32.779 c 0,-8.664 -0.657,-16.597 -1.975,-23.793 -1.323,-7.194 -3.452,-13.395 -6.392,-18.593 -2.936,-5.2 -6.725,-9.23 -11.357,-12.095 -4.637,-2.865 -10.23,-4.295 -16.788,-4.295 -6.325,0 -11.773,1.526 -16.331,4.578 -4.562,3.053 -8.309,7.197 -11.249,12.432 -2.936,5.24 -5.123,11.38 -6.554,18.426 -1.431,7.045 -2.146,14.524 -2.146,22.436 0,8.743 0.674,16.711 2.034,23.91 1.355,7.193 3.485,13.373 6.388,18.535 2.898,5.16 6.645,9.172 11.245,12.037 4.595,2.865 10.134,4.293 16.613,4.293 6.329,0 11.793,-1.523 16.389,-4.574 4.599,-3.053 8.384,-7.195 11.361,-12.436 2.978,-5.238 5.182,-11.359 6.612,-18.367 1.431,-7.01 2.15,-14.505 2.15,-22.494 z m 131.871,14.582 c 0,9.421 -1.302,17.841 -3.896,25.265 -2.603,7.418 -6.296,13.715 -11.083,18.871 -4.782,5.166 -10.604,9.119 -17.461,11.869 -6.857,2.752 -14.58,4.125 -23.171,4.125 -6.708,0 -13.561,-0.641 -20.572,-1.922 -7.007,-1.281 -13.939,-3.311 -20.797,-6.104 V 153.086 h 19.666 v 43.97 l -0.902,21.023 c 5.647,-7.61 11.698,-12.981 18.144,-16.108 6.438,-3.125 13.353,-4.689 20.739,-4.689 6.479,0 12.168,1.354 17.066,4.069 4.899,2.711 9.003,6.537 12.322,11.471 3.319,4.934 5.805,10.891 7.46,17.859 1.654,6.973 2.485,14.754 2.485,23.343 z m -20.123,0.902 c 0,-5.949 -0.428,-11.415 -1.297,-16.389 -0.865,-4.974 -2.242,-9.23 -4.125,-12.773 -1.884,-3.541 -4.296,-6.311 -7.236,-8.309 -2.936,-1.994 -6.441,-2.994 -10.508,-2.994 -2.487,0 -5.011,0.395 -7.573,1.187 -2.566,0.79 -5.219,2.108 -7.972,3.955 -2.749,1.849 -5.651,4.296 -8.704,7.348 -3.048,3.053 -6.309,6.839 -9.777,11.361 v 55.048 c 3.843,1.506 7.764,2.695 11.756,3.561 3.992,0.863 7.801,1.297 11.415,1.297 4.524,0 8.837,-0.715 12.941,-2.146 4.104,-1.43 7.727,-3.826 10.854,-7.178 3.127,-3.352 5.614,-7.801 7.46,-13.34 1.843,-5.538 2.766,-12.413 2.766,-20.628 z m 24.228,-39.335 h 55.616 v 95.853 c 0,10.549 -2.453,18.539 -7.353,23.961 -4.898,5.426 -11.64,8.143 -20.227,8.143 -2.716,0 -5.506,-0.17 -8.367,-0.512 -2.861,-0.338 -5.71,-0.844 -8.538,-1.525 -2.824,-0.68 -5.572,-1.506 -8.246,-2.488 -2.678,-0.977 -5.186,-2.07 -7.519,-3.275 v 18.762 c 4.296,1.811 9.099,3.223 14.414,4.242 5.311,1.016 10.754,1.521 16.331,1.521 7.689,0 14.601,-1.088 20.743,-3.275 6.142,-2.188 11.319,-5.391 15.54,-9.607 4.217,-4.225 7.465,-9.402 9.723,-15.545 2.258,-6.141 3.39,-13.166 3.39,-21.078 V 199.316 H 230.18 Z m 74.662,-59.342 c -1.397,-1.426 -3.035,-2.541 -4.92,-3.333 -1.883,-0.79 -3.917,-1.188 -6.1,-1.188 -2.188,0 -4.226,0.397 -6.105,1.188 -1.888,0.792 -3.526,1.907 -4.919,3.333 -1.394,1.433 -2.487,3.094 -3.281,4.976 -0.786,1.884 -1.186,3.882 -1.186,5.99 0,2.188 0.399,4.203 1.186,6.049 0.794,1.846 1.888,3.487 3.281,4.916 1.393,1.433 3.031,2.543 4.919,3.333 1.88,0.794 3.918,1.187 6.105,1.187 2.183,0 4.217,-0.393 6.1,-1.187 1.885,-0.79 3.522,-1.9 4.92,-3.333 1.389,-1.429 2.487,-3.069 3.272,-4.916 0.795,-1.846 1.189,-3.861 1.189,-6.049 0,-2.108 -0.395,-4.106 -1.189,-5.99 -0.785,-1.883 -1.884,-3.544 -3.272,-4.976 z"
   id="path1">

</path>

</g>

<rect
   width="327.67999"
   height="327.67999"
   rx="9.6000013%"
   fill="#ffffff"
   id="rect1"
   style="fill:#ffffff;fill-opacity:0;stroke-width:0.64"
   x="2.9302735e-06"
   y="0"
   inkscape:export-filename="..\lib\assets\bubble_content\skill_badge\thingsboard.png"
   inkscape:export-xdpi="96"
   inkscape:export-ydpi="96" /></svg>
