<?xml version="1.0" encoding="UTF-8" standalone="no"?>
<!-- Uploaded to: SVG Repo, www.svgrepo.com, Generator: SVG Repo Mixer Tools -->

<svg
   aria-label="PHP"
   role="img"
   viewBox="0 0 512 512"
   version="1.1"
   id="svg1"
   sodipodi:docname="php-svgrepo-com.svg"
   inkscape:export-filename="php.png"
   inkscape:export-xdpi="96"
   inkscape:export-ydpi="96"
   inkscape:version="1.3.2 (091e20e, 2023-11-25, custom)"
   width="512"
   height="512"
   xmlns:inkscape="http://www.inkscape.org/namespaces/inkscape"
   xmlns:sodipodi="http://sodipodi.sourceforge.net/DTD/sodipodi-0.dtd"
   xmlns:xlink="http://www.w3.org/1999/xlink"
   xmlns="http://www.w3.org/2000/svg"
   xmlns:svg="http://www.w3.org/2000/svg">
  <defs
     id="defs1" />
  <sodipodi:namedview
     id="namedview1"
     pagecolor="#ffffff"
     bordercolor="#000000"
     borderopacity="0.25"
     inkscape:showpageshadow="2"
     inkscape:pageopacity="0.0"
     inkscape:pagecheckerboard="0"
     inkscape:deskcolor="#d1d1d1"
     inkscape:zoom="1.5175781"
     inkscape:cx="223.38224"
     inkscape:cy="256"
     inkscape:window-width="1920"
     inkscape:window-height="991"
     inkscape:window-x="-9"
     inkscape:window-y="1341"
     inkscape:window-maximized="1"
     inkscape:current-layer="svg1" />
  <rect
     width="512"
     height="512"
     rx="15.000001%"
     fill="#777bb3"
     id="rect1"
     x="0"
     y="0" />
  <g
     stroke="#ffffff"
     stroke-width="6"
     id="g1"
     transform="matrix(1.3311372,0,0,1.3311372,-85.192775,-86.102538)"
     inkscape:export-filename="..\PNG\php.png"
     inkscape:export-xdpi="96"
     inkscape:export-ydpi="96">
    <path
       id="a"
       d="M 155,202 H 97 a 3,3 0 0 0 -3,2 L 67,345 c 0,3 3,3 3,3 h 30 c 3,0 3,-2 3,-2 l 7,-35 h 27 c 42,0 63,-28 68,-53 5,-25 1,-56 -50,-56 z m 13,54 c -4,19 -17,27 -35,27 h -18 l 11,-53 h 18 c 27,0 26,10 24,26 z" />
    <path
       d="m 275,311 c -4,0 -3,-4 -3,-4 l 12,-61 c 0,-8 6,-16 -18,-15 h -18 l -15,78 c 0,0 0,3 -4,3 h -29 c -3,0 -3,-3 -3,-3 l 28,-141 c 0,0 0,-2 4,-2 h 30 c 3,0 2,3 2,3 l -7,34 h 26 c 36,0 45,17 42,37 l -13,69 c 0,0 0,3 -5,3 z"
       id="path1" />
    <use
       xlink:href="#a"
       x="239"
       id="use1" />
  </g>
</svg>
