<?xml version="1.0" encoding="UTF-8" standalone="no"?>
<svg
   version="1.1"
   width="512"
   height="511.99997"
   id="svg2"
   sodipodi:docname="PhpMyAdmin.svg"
   inkscape:version="1.3.2 (091e20e, 2023-11-25, custom)"
   xmlns:inkscape="http://www.inkscape.org/namespaces/inkscape"
   xmlns:sodipodi="http://sodipodi.sourceforge.net/DTD/sodipodi-0.dtd"
   xmlns="http://www.w3.org/2000/svg"
   xmlns:svg="http://www.w3.org/2000/svg"
   xmlns:rdf="http://www.w3.org/1999/02/22-rdf-syntax-ns#"
   xmlns:cc="http://creativecommons.org/ns#"
   xmlns:dc="http://purl.org/dc/elements/1.1/">
  <sodipodi:namedview
     id="namedview1"
     pagecolor="#ffffff"
     bordercolor="#000000"
     borderopacity="0.25"
     inkscape:showpageshadow="2"
     inkscape:pageopacity="0.0"
     inkscape:pagecheckerboard="0"
     inkscape:deskcolor="#d1d1d1"
     inkscape:zoom="1.0529563"
     inkscape:cx="246.92383"
     inkscape:cy="220.80688"
     inkscape:window-width="1920"
     inkscape:window-height="991"
     inkscape:window-x="-9"
     inkscape:window-y="1341"
     inkscape:window-maximized="1"
     inkscape:current-layer="svg2" />
  <metadata
     id="metadata8">
    <rdf:RDF>
      <cc:Work
         rdf:about="">
        <dc:format>image/svg+xml</dc:format>
        <dc:type
           rdf:resource="http://purl.org/dc/dcmitype/StillImage" />
        <dc:title />
      </cc:Work>
    </rdf:RDF>
  </metadata>
  <defs
     id="defs6" />
  <g
     id="g2"
     style="display:inline"
     transform="matrix(1.6991882,0,0,1.6991882,-357.98576,-178.99218)"
     inkscape:export-filename="..\lib\assets\bubble_content\skill_badge\phpmyadmin.png"
     inkscape:export-xdpi="96"
     inkscape:export-ydpi="96">
    <g
       id="g13"
       style="fill:none;stroke:#cccccc;stroke-width:12;stroke-linecap:round;stroke-linejoin:round"
       transform="matrix(0.13163843,0,0,0.13163843,-0.06213334,113.34216)">
      <path
         d="m 2102.61,2057.9534 c -115.02,54.9606 -198.48,64.1207 -251.41,30.5387 -52.93,-35.6247 -134.36,-27.4847 -244.28,24.4219"
         id="path34" />
      <path
         d="m 2372.33,2066.093 c -21.37,-7.125 -44.78,-12.211 -69.21,-14.25 -49.87,-4.066 -109.93,15.27 -180.16,57.0042 -70.23,42.746 -154.71,59.0351 -255.48,49.8711"
         id="path36" />
      <path
         d="m 3000.34,1962.273 c -484.5,-99.742 -833.61,-76.336 -1047.35,71.25"
         id="path38" />
      <path
         d="m 3305.69,2010.117 c -21.38,-8.145 -44.79,-13.235 -69.22,-14.254 -49.87,-4.067 -109.92,15.269 -180.15,57.004 -70.23,41.7262 -154.71,58.0114 -255.48,49.8708"
         id="path40" />
      <path
         d="m 2655.29,341.21801 c -49.88,-30.54 -101.78,-22.39 -155.73,25.44 -46.82,-47.83 -95.67,-55.98 -146.57,-25.44"
         id="path42"
         style="stroke-width:29" />
      <path
         d="m 2542.31,170.21801 c -50.89,-30.53 -100.76,-18.32 -151.66,36.64 -49.88,-54.96 -100.76,-67.17 -151.66,-36.64"
         id="path44"
         style="stroke-width:29" />
    </g>
    <g
       id="g5"
       style="fill:#cccccc"
       transform="matrix(0.13163843,0,0,0.13163843,-0.06213334,113.34216)">
      <path
         d="m 2889.39,6.3480122 -2.04,-4.07 c -1.01,-1.01 -2.03,-2.04 -4.06,-2.04 l -4.08,1.03 c -2.03,2.03 -3.05,3.05 -3.05,5.08 L 2789.64,1572.695 l 13.24,-2.035 83.46,-1523.70199 99.75,163.88 h -1.02 c 75.32,221.88 106.87,458.02 94.66,708.41003 l 6.11,9.16 98.73,175.05996 6.1,6.11 c 151.66,133.336 321.63,222.907 509.94,268.707 l 45.8,74.309 6.11,2.031 1.02,-2.031 -866.19,-1416.82599 2.04,-29.52"
         id="path14" />
      <path
         d="m 2858.86,559.02801 c 106.87,218.84 145.54,549.62999 117.05,992.39199 l 416.29,-50.894 z"
         id="path18" />
      <path
         d="m 3807.48,1520.881 c 42.74,-5.086 70.22,-14.246 82.44,-27.476 l -2178.16,265.656 h -1.02 c 1.02,90.586 41.73,161.836 121.12,212.723 21.37,15.269 43.77,26.465 64.12,33.59 19.34,-22.387 40.72,-38.676 66.17,-53.946 h 1.01 c 228,-138.422 566.94,-159.8 1014.78,-65.136 l 5.09,1.011 c 48.86,10.18 97.71,22.399 143.52,36.645 13.22,2.035 24.42,-2.035 33.58,-10.18 16.29,-12.215 36.65,-21.375 64.13,-27.476 v -1.02 c 72.27,-128.25 169.97,-222.906 292.12,-284.996 84.48,-41.727 182.19,-69.215 291.1,-79.395"
         id="path20" />
      <path
         d="M 2761.15,1560.585 2860.89,31.798012 C 2716.36,589.56801 2484.29,1110.698 2165.71,1594.167 l 595.44,-33.582"
         id="path22" />
      <path
         d="m 2200.32,329.008 -4.07,-2.04 -4.07,1.02 -2.04,5.08 -82.44,1323.188 12.21,-1.019 82.45,-1322.16901 -2.04,-4.06"
         id="path24" />
      <path
         d="m 2084.29,1627.756 v 0 l 87.53,-1290.608 -461.08,1330.308 373.55,-39.7"
         id="path26" />
    </g>
  </g>
  <rect
     width="511.99997"
     height="511.99997"
     rx="15.000002%"
     fill="#ffffff"
     id="rect1"
     style="fill:#ffffff;fill-opacity:0;stroke-width:1"
     x="2.4332896e-05"
     y="0"
     inkscape:export-filename="..\PNG\PhpMyAdmin.png"
     inkscape:export-xdpi="96"
     inkscape:export-ydpi="96" />
</svg>
