<?xml version="1.0" encoding="UTF-8" standalone="no"?>
<!-- Generator: Adobe Illustrator 19.1.0, SVG Export Plug-In . SVG Version: 6.00 Build 0)  -->

<svg
   version="1.1"
   id="Layer_1"
   x="0px"
   y="0px"
   viewBox="0 0 512 512"
   xml:space="preserve"
   sodipodi:docname="PhpStorm.svg"
   width="512"
   height="512"
   inkscape:version="1.3.2 (091e20e, 2023-11-25, custom)"
   xmlns:inkscape="http://www.inkscape.org/namespaces/inkscape"
   xmlns:sodipodi="http://sodipodi.sourceforge.net/DTD/sodipodi-0.dtd"
   xmlns="http://www.w3.org/2000/svg"
   xmlns:svg="http://www.w3.org/2000/svg"><defs
   id="defs18" /><sodipodi:namedview
   id="namedview18"
   pagecolor="#ffffff"
   bordercolor="#000000"
   borderopacity="0.25"
   inkscape:showpageshadow="2"
   inkscape:pageopacity="0.0"
   inkscape:pagecheckerboard="0"
   inkscape:deskcolor="#d1d1d1"
   inkscape:zoom="0.69375"
   inkscape:cx="-73.513513"
   inkscape:cy="273.15315"
   inkscape:window-width="1920"
   inkscape:window-height="991"
   inkscape:window-x="-9"
   inkscape:window-y="1341"
   inkscape:window-maximized="1"
   inkscape:current-layer="Layer_1" />
<g
   id="g18"
   transform="scale(7.3142857)">
	<g
   id="g15">
		<linearGradient
   id="SVGID_1_"
   gradientUnits="userSpaceOnUse"
   x1="0.55800003"
   y1="46.845699"
   x2="29.9473"
   y2="8.0256004">
			<stop
   offset="1.612903e-002"
   style="stop-color:#765AF8"
   id="stop1" />
			<stop
   offset="0.3821"
   style="stop-color:#B345F1"
   id="stop2" />
			<stop
   offset="0.7581"
   style="stop-color:#FA3293"
   id="stop3" />
			<stop
   offset="0.9409"
   style="stop-color:#FF318C"
   id="stop4" />
		</linearGradient>
		<polygon
   style="fill:url(#SVGID_1_)"
   points="36.3,5.2 11.9,0 0,13.5 37.2,32.5 39.6,15.2 "
   id="polygon4" />
		<linearGradient
   id="SVGID_2_"
   gradientUnits="userSpaceOnUse"
   x1="2.7297001"
   y1="48.378799"
   x2="32.071899"
   y2="9.6209002">
			<stop
   offset="1.612903e-002"
   style="stop-color:#765AF8"
   id="stop5" />
			<stop
   offset="0.3821"
   style="stop-color:#B345F1"
   id="stop6" />
			<stop
   offset="0.7581"
   style="stop-color:#FA3293"
   id="stop7" />
			<stop
   offset="0.9409"
   style="stop-color:#FF318C"
   id="stop8" />
		</linearGradient>
		<polygon
   style="fill:url(#SVGID_2_)"
   points="27.3,20.6 0,13.5 6.7,53.6 28,53.4 28,41.4 "
   id="polygon8" />
		<linearGradient
   id="SVGID_3_"
   gradientUnits="userSpaceOnUse"
   x1="50.8568"
   y1="46.404999"
   x2="34.273899"
   y2="7.0481">
			<stop
   offset="0.1828"
   style="stop-color:#765AF8"
   id="stop9" />
			<stop
   offset="0.2382"
   style="stop-color:#8655F6"
   id="stop10" />
			<stop
   offset="0.3449"
   style="stop-color:#9F4CF3"
   id="stop11" />
			<stop
   offset="0.4425"
   style="stop-color:#AE47F2"
   id="stop12" />
			<stop
   offset="0.5219"
   style="stop-color:#B345F1"
   id="stop13" />
		</linearGradient>
		<polygon
   style="fill:url(#SVGID_3_)"
   points="45,37 35.4,47.1 22.1,41 23.4,24.5 43.2,4.2 60.9,7.4 70,30.1 60.5,39.5 "
   id="polygon13" />
		<linearGradient
   id="SVGID_4_"
   gradientUnits="userSpaceOnUse"
   x1="63.265598"
   y1="57.338799"
   x2="24.697701"
   y2="27.5158">
			<stop
   offset="1.612903e-002"
   style="stop-color:#765AF8"
   id="stop14" />
			<stop
   offset="0.3821"
   style="stop-color:#B345F1"
   id="stop15" />
		</linearGradient>
		<polygon
   style="fill:url(#SVGID_4_)"
   points="14.8,29.4 20.3,61.8 43.9,70 70,54.4 43.2,4.2 "
   id="polygon15" />
	</g>
	<g
   id="g17">
		<rect
   x="13.4"
   y="13.4"
   style="fill:#000000"
   width="43.200001"
   height="43.200001"
   id="rect15" />
		<rect
   x="17.5"
   y="48.5"
   style="fill:#ffffff"
   width="16.200001"
   height="2.7"
   id="rect16" />
		<path
   style="fill:#ffffff"
   d="m 17.3,19 h 7.3 c 4.3,0 6.9,2.5 6.9,6.2 v 0.1 c 0,4.2 -3.2,6.3 -7.3,6.3 h -3 V 37 h -3.9 z m 7.1,9 c 2,0 3.1,-1.2 3.1,-2.7 v -0.1 c 0,-1.8 -1.2,-2.7 -3.2,-2.7 h -3 V 28 Z"
   id="path16" />
		<path
   style="fill:#ffffff"
   d="m 32.5,34.4 2.3,-2.8 c 1.6,1.3 3.3,2.2 5.4,2.2 1.6,0 2.6,-0.6 2.6,-1.7 V 32 c 0,-1 -0.6,-1.5 -3.6,-2.3 -3.6,-0.9 -6,-1.9 -6,-5.5 v -0.1 c 0,-3.3 2.6,-5.4 6.3,-5.4 2.6,0 4.9,0.8 6.7,2.3 l -2.1,3 c -1.6,-1.1 -3.2,-1.8 -4.7,-1.8 -1.5,0 -2.3,0.7 -2.3,1.6 v 0.1 c 0,1.2 0.8,1.6 3.9,2.4 3.6,1 5.7,2.3 5.7,5.4 v 0.1 c 0,3.6 -2.7,5.6 -6.6,5.6 -2.7,-0.1 -5.4,-1.1 -7.6,-3"
   id="path17" />
	</g>
</g><rect
   width="511.99997"
   height="511.99997"
   rx="15.000002%"
   fill="#ffffff"
   id="rect1"
   style="fill:#ffffff;fill-opacity:0;stroke-width:1"
   x="2.2888184e-05"
   y="2.2888184e-05"
   inkscape:export-filename="..\PNG\phpstorm.png"
   inkscape:export-xdpi="96"
   inkscape:export-ydpi="96" />
</svg>
