<?xml version="1.0" encoding="UTF-8" standalone="no"?>
<svg
   width="511.99997"
   height="512"
   viewBox="0 0 511.99997 512"
   fill="none"
   version="1.1"
   id="svg13"
   sodipodi:docname="PowerBI.svg"
   inkscape:version="1.3.2 (091e20e, 2023-11-25, custom)"
   xmlns:inkscape="http://www.inkscape.org/namespaces/inkscape"
   xmlns:sodipodi="http://sodipodi.sourceforge.net/DTD/sodipodi-0.dtd"
   xmlns="http://www.w3.org/2000/svg"
   xmlns:svg="http://www.w3.org/2000/svg">
  <sodipodi:namedview
     id="namedview13"
     pagecolor="#ffffff"
     bordercolor="#000000"
     borderopacity="0.25"
     inkscape:showpageshadow="2"
     inkscape:pageopacity="0.0"
     inkscape:pagecheckerboard="0"
     inkscape:deskcolor="#d1d1d1"
     inkscape:zoom="0.50585938"
     inkscape:cx="166.05405"
     inkscape:cy="141.34363"
     inkscape:window-width="1920"
     inkscape:window-height="991"
     inkscape:window-x="-9"
     inkscape:window-y="1341"
     inkscape:window-maximized="1"
     inkscape:current-layer="svg13" />
  <defs
     id="defs7">
    <filter
       id="filter0_f"
       x="-0.03"
       y="-0.013333334"
       width="1.06"
       height="1.0266667">
      <feFlood
         flood-opacity="0"
         result="BackgroundImageFix"
         id="feFlood1" />
      <feBlend
         mode="normal"
         in="SourceGraphic"
         in2="BackgroundImageFix"
         result="shape"
         id="feBlend1" />
      <feGaussianBlur
         stdDeviation="0.4"
         result="effect1_foregroundBlur"
         id="feGaussianBlur1" />
    </filter>
    <filter
       id="filter1_f"
       x="-0.3"
       y="-0.13333333"
       width="1.6"
       height="1.2666667">
      <feFlood
         flood-opacity="0"
         result="BackgroundImageFix"
         id="feFlood2" />
      <feBlend
         mode="normal"
         in="SourceGraphic"
         in2="BackgroundImageFix"
         result="shape"
         id="feBlend2" />
      <feGaussianBlur
         stdDeviation="4"
         result="effect1_foregroundBlur"
         id="feGaussianBlur2" />
    </filter>
    <linearGradient
       id="paint0_linear"
       x1="46.666698"
       y1="-8.9779502e-07"
       x2="88.865303"
       y2="89.446602"
       gradientUnits="userSpaceOnUse">
      <stop
         offset="0"
         stop-color="#E6AD10"
         id="stop2" />
      <stop
         offset="1"
         stop-color="#C87E0E"
         id="stop3" />
    </linearGradient>
    <linearGradient
       id="paint1_linear"
       x1="31.9974"
       y1="24"
       x2="67.485901"
       y2="92.826202"
       gradientUnits="userSpaceOnUse">
      <stop
         offset="0"
         stop-color="#F6D751"
         id="stop4" />
      <stop
         offset="1"
         stop-color="#E6AD10"
         id="stop5" />
    </linearGradient>
    <linearGradient
       id="paint2_linear"
       x1="11.9974"
       y1="48"
       x2="31.608299"
       y2="94.477501"
       gradientUnits="userSpaceOnUse">
      <stop
         offset="0"
         stop-color="#F9E589"
         id="stop6" />
      <stop
         offset="1"
         stop-color="#F6D751"
         id="stop7" />
    </linearGradient>
    <clipPath
       id="clip0">
      <rect
         width="96"
         height="96"
         fill="#ffffff"
         id="rect7"
         x="0"
         y="0" />
    </clipPath>
  </defs>
  <g
     clip-path="url(#clip0)"
     id="g13"
     transform="matrix(5.3333333,0,0,5.3333333,-1.7629395e-5,0)">
    <mask
       id="mask0"
       maskUnits="userSpaceOnUse"
       x="12"
       y="0"
       width="72"
       height="96">
      <path
         d="m 52,4 c 0,-2.20914 1.7909,-4 4,-4 h 24 c 2.2091,0 4,1.79086 4,4 v 88 c 0,2.2091 -1.7909,4 -4,4 H 16 c -2.2091,0 -4,-1.7909 -4,-4 V 52 c 0,-2.2091 1.7909,-4 4,-4 H 32.0001 V 28 c 0,-2.2091 1.7909,-4 4,-4 H 52 Z"
         fill="#ffffff"
         id="path7" />
    </mask>
    <g
       mask="url(#mask0)"
       id="g12">
      <path
         d="M 84,0 V 96 H 52 V 0 Z"
         fill="url(#paint0_linear)"
         id="path8"
         style="fill:url(#paint0_linear)" />
      <g
         filter="url(#filter0_f)"
         id="g9">
        <path
           d="m 64,28.4 v 68 H 32 v -72 h 28 c 2.2091,0 4,1.7909 4,4 z"
           fill="#000000"
           fill-opacity="0.2"
           id="path9" />
      </g>
      <g
         filter="url(#filter1_f)"
         id="g10">
        <path
           d="M 64,30 V 98 H 32 V 26 h 28 c 2.2091,0 4,1.7909 4,4 z"
           fill="#000000"
           fill-opacity="0.18"
           id="path10" />
      </g>
      <path
         d="M 64,28 V 96 H 32 V 24 h 28 c 2.2091,0 4,1.7909 4,4 z"
         fill="url(#paint1_linear)"
         id="path11"
         style="fill:url(#paint1_linear)" />
      <path
         d="M 12,48 V 96 H 44 V 52 c 0,-2.2091 -1.7909,-4 -4,-4 z"
         fill="url(#paint2_linear)"
         id="path12"
         style="fill:url(#paint2_linear)" />
    </g>
  </g>
  <rect
     width="511.99997"
     height="511.99997"
     rx="15.000002%"
     fill="#ffffff"
     id="rect1"
     style="fill:#ffffff;fill-opacity:0;stroke-width:1"
     x="0"
     y="1.5629395e-05"
     inkscape:export-filename="..\PNG\powerbi.png"
     inkscape:export-xdpi="96"
     inkscape:export-ydpi="96" />
</svg>
