<?xml version="1.0" encoding="UTF-8" standalone="no"?>
<!-- Uploaded to: SVG Repo, www.svgrepo.com, Generator: SVG Repo Mixer Tools -->

<svg
   aria-label="Python"
   role="img"
   viewBox="0 0 512 512"
   version="1.1"
   id="svg1"
   sodipodi:docname="python-svgrepo-com.svg"
   inkscape:export-filename="python.png"
   inkscape:export-xdpi="96"
   inkscape:export-ydpi="96"
   inkscape:version="1.3.2 (091e20e, 2023-11-25, custom)"
   width="512"
   height="512"
   xmlns:inkscape="http://www.inkscape.org/namespaces/inkscape"
   xmlns:sodipodi="http://sodipodi.sourceforge.net/DTD/sodipodi-0.dtd"
   xmlns:xlink="http://www.w3.org/1999/xlink"
   xmlns="http://www.w3.org/2000/svg"
   xmlns:svg="http://www.w3.org/2000/svg">
  <defs
     id="defs1" />
  <sodipodi:namedview
     id="namedview1"
     pagecolor="#ffffff"
     bordercolor="#000000"
     borderopacity="0.25"
     inkscape:showpageshadow="2"
     inkscape:pageopacity="0.0"
     inkscape:pagecheckerboard="0"
     inkscape:deskcolor="#d1d1d1"
     inkscape:zoom="1.5175781"
     inkscape:cx="224.04119"
     inkscape:cy="223.71172"
     inkscape:window-width="1920"
     inkscape:window-height="991"
     inkscape:window-x="-9"
     inkscape:window-y="1341"
     inkscape:window-maximized="1"
     inkscape:current-layer="svg1" />
  <rect
     width="512"
     height="512"
     rx="15.000001%"
     fill="#ffffff"
     id="rect1"
     style="fill:#ffffff;fill-opacity:0"
     x="0"
     y="0" />
  <g
     id="g2"
     transform="matrix(1.3403141,0,0,1.3403141,-87.12041,-85.780096)"
     inkscape:export-filename="..\PNG\python.png"
     inkscape:export-xdpi="96"
     inkscape:export-ydpi="96">
    <g
       fill="#5a9fd4"
       id="g1">
      <path
         id="p"
         d="m 254,64 c -16,0 -31,1 -44,4 -39,7 -46,21 -46,47 v 35 h 92 v 12 H 130 c -27,0 -50,16 -58,46 -8,35 -8,57 0,93 7,28 23,47 49,47 h 32 v -42 c 0,-30 26,-57 57,-57 h 91 c 26,0 46,-21 46,-46 V 115 C 347,91 326,72 301,68 286,65 269,64 254,64 Z m -50,28 c 10,0 17,8 17,18 0,9 -7,17 -17,17 -9,0 -17,-8 -17,-17 0,-10 8,-18 17,-18 z" />
    </g>
    <use
       xlink:href="#p"
       fill="#ffd43b"
       transform="rotate(180,256,255)"
       id="use1" />
  </g>
</svg>
