<?xml version="1.0" encoding="UTF-8" standalone="no"?>
<svg
   width="511.99997"
   height="511.99997"
   viewBox="0 0 511.99997 511.99997"
   fill="none"
   version="1.1"
   id="svg1"
   sodipodi:docname="Qt_logo_neon_2022.svg"
   inkscape:version="1.3.2 (091e20e, 2023-11-25, custom)"
   xmlns:inkscape="http://www.inkscape.org/namespaces/inkscape"
   xmlns:sodipodi="http://sodipodi.sourceforge.net/DTD/sodipodi-0.dtd"
   xmlns="http://www.w3.org/2000/svg"
   xmlns:svg="http://www.w3.org/2000/svg">
  <defs
     id="defs1" />
  <sodipodi:namedview
     id="namedview1"
     pagecolor="#ffffff"
     bordercolor="#000000"
     borderopacity="0.25"
     inkscape:showpageshadow="2"
     inkscape:pageopacity="0.0"
     inkscape:pagecheckerboard="0"
     inkscape:deskcolor="#d1d1d1"
     inkscape:zoom="0.80812204"
     inkscape:cx="284.61048"
     inkscape:cy="525.29195"
     inkscape:window-width="1920"
     inkscape:window-height="991"
     inkscape:window-x="-9"
     inkscape:window-y="1341"
     inkscape:window-maximized="1"
     inkscape:current-layer="svg1" />
  <path
     id="rect1"
     style="fill:#2cde85;fill-opacity:1;stroke-width:1"
     d="M 76.800781 0 C 34.253622 0 0 34.253622 0 76.800781 L 0 435.19922 C 0 477.74638 34.253622 512 76.800781 512 L 435.19922 512 C 477.74638 512 512 477.74638 512 435.19922 L 512 76.800781 C 512 34.253622 477.74638 0 435.19922 0 L 76.800781 0 z M 169.59961 176 L 368 176 L 368 310.40039 L 342.40039 336 L 144 336 L 144 201.59961 L 169.59961 176 z M 229.00781 200.56055 C 214.22383 200.56055 203.83984 204.78443 197.83984 213.23242 C 191.83985 221.69641 188.84766 234.62485 188.84766 252.04883 C 188.84766 269.47281 191.79132 282.22312 197.69531 290.28711 C 203.61531 298.35111 214.04745 302.38477 229.02344 302.38477 C 233.05543 302.38477 235.9846 302.09553 237.80859 301.51953 L 250.62305 322.54492 L 265.45508 315.63281 L 265.43945 315.63281 L 253.34375 296.19141 C 258.91174 292.44742 262.92896 287.02391 265.37695 279.91992 C 267.80895 272.81593 269.03906 263.50436 269.03906 251.98438 C 269.03906 234.51239 266.06332 221.56796 260.11133 213.16797 C 254.15933 204.76798 243.7918 200.56055 229.00781 200.56055 z M 286.11133 207.91992 L 286.11133 228.80078 L 276.89648 228.80078 L 276.89648 242.19141 L 286.11133 242.19141 L 286.11133 275.59961 C 286.11133 285.9676 287.61663 293.02358 290.64062 296.76758 C 293.66462 300.51157 299.26384 302.38477 307.42383 302.38477 C 310.78382 302.38477 315.67933 301.75973 322.11133 300.51172 L 321.39258 287.98438 L 309.58398 288.41602 C 306.03199 288.41602 303.82494 287.45515 302.96094 285.53516 C 302.09694 283.61517 301.66406 279.72709 301.66406 273.87109 L 301.66406 242.19141 L 321.53516 242.19141 L 321.53516 228.80078 L 301.66406 228.80078 L 301.66406 207.91992 L 286.11133 207.91992 z M 229.02344 214.54297 C 238.04743 214.54297 244.22316 217.52066 247.53516 223.47266 C 250.83115 229.42465 252.49609 238.97497 252.49609 252.12695 C 252.49609 265.27894 250.89568 274.60881 247.67969 280.12891 C 244.44769 285.6489 238.23943 288.40039 229.02344 288.40039 C 219.80745 288.40039 213.56868 285.60037 210.30469 279.98438 C 207.04069 274.36828 205.4082 265.04036 205.4082 251.98438 C 205.4082 238.92839 207.08727 229.42465 210.44727 223.47266 C 213.80726 217.52066 219.99945 214.54297 229.02344 214.54297 z "
     inkscape:export-filename="..\PNG\qt.png"
     inkscape:export-xdpi="96"
     inkscape:export-ydpi="96" />
</svg>
