<?xml version="1.0" encoding="UTF-8" standalone="no"?>
<!-- Generator: Adobe Illustrator 23.0.1, SVG Export Plug-In . SVG Version: 6.00 Build 0)  -->

<svg
   version="1.1"
   id="Livello_1"
   x="0px"
   y="0px"
   viewBox="0 0 512 511.99997"
   enable-background="new 0 0 1992.333 1946"
   xml:space="preserve"
   sodipodi:docname="Sharepoint.svg"
   width="512"
   height="511.99997"
   inkscape:version="1.3.2 (091e20e, 2023-11-25, custom)"
   xmlns:inkscape="http://www.inkscape.org/namespaces/inkscape"
   xmlns:sodipodi="http://sodipodi.sourceforge.net/DTD/sodipodi-0.dtd"
   xmlns="http://www.w3.org/2000/svg"
   xmlns:svg="http://www.w3.org/2000/svg"
   xmlns:ns0="&amp;#38;ns_sfw;"><defs
   id="defs9" /><sodipodi:namedview
   id="namedview9"
   pagecolor="#ffffff"
   bordercolor="#000000"
   borderopacity="0.25"
   inkscape:showpageshadow="2"
   inkscape:pageopacity="0.0"
   inkscape:pagecheckerboard="0"
   inkscape:deskcolor="#d1d1d1"
   inkscape:zoom="0.39928058"
   inkscape:cx="257.96396"
   inkscape:cy="810.2072"
   inkscape:window-width="1920"
   inkscape:window-height="991"
   inkscape:window-x="-9"
   inkscape:window-y="1341"
   inkscape:window-maximized="1"
   inkscape:current-layer="Livello_1" />
<metadata
   id="metadata1">
	<ns0:sfw>
		<ns0:slices />
		<ns0:sliceSourceBounds
   bottomLeftOrigin="true"
   height="1946"
   width="1992.333"
   x="-995.333"
   y="-949" />
	</ns0:sfw>
</metadata>







<linearGradient
   id="SVGID_1_"
   gradientUnits="userSpaceOnUse"
   x1="177.0788"
   y1="1551.0284"
   x2="842.25452"
   y2="398.97159"
   gradientTransform="matrix(1,0,0,-1,0,1948.0001)">
	<stop
   offset="0"
   style="stop-color:#058F92"
   id="stop6" />
	<stop
   offset="0.5"
   style="stop-color:#038489"
   id="stop7" />
	<stop
   offset="1"
   style="stop-color:#026D71"
   id="stop8" />
</linearGradient>

<rect
   width="511.99997"
   height="511.99997"
   rx="15.000002%"
   fill="#ffffff"
   id="rect1"
   style="fill:#ffffff;fill-opacity:0;stroke-width:1"
   x="1.9999999e-05"
   y="0" /><g
   id="g9"
   transform="matrix(0.25698501,0,0,0.25698501,0,5.95357)"
   inkscape:export-filename="..\PNG\sharepoint.png"
   inkscape:export-xdpi="96"
   inkscape:export-ydpi="96"><circle
     fill="#036c70"
     cx="1019.333"
     cy="556"
     r="556"
     id="circle1"
     style="stroke-width:1" /><circle
     fill="#1a9ba1"
     cx="1482.6671"
     cy="1065.6671"
     r="509.66702"
     id="circle2"
     style="stroke-width:1" /><circle
     fill="#37c6d0"
     cx="1088.833"
     cy="1552.167"
     r="393.83301"
     id="circle3"
     style="stroke-width:1" /><path
     opacity="0.1"
     enable-background="new    "
     d="M 1112,501.79003 V 1490.543 c -0.2299,34.357 -21.05,65.222 -52.82,78.303 -10.116,4.279 -20.987,6.484 -31.97,6.487 H 695.46303 C 695,1567.456 695,1560.043 695,1552.166 c -0.15409,-7.734 0.15488,-15.47 0.92702,-23.167 8.47999,-148.106 99.72099,-278.782 235.83702,-337.77 v -86.18 C 628.83202,1057.044 422.172,772.55402 470.17702,469.622 c 0.33309,-2.09798 0.677,-4.19499 1.03399,-6.289 2.30601,-15.62601 5.556,-31.09897 9.73002,-46.33297 H 1027.211 c 46.753,0.17783 84.611,38.03599 84.789,84.79 z"
     id="path3"
     style="stroke-width:1" /><path
     opacity="0.2"
     enable-background="new    "
     d="M 980.87702,463.333 H 471.20999 c -51.48599,302.38603 151.90804,589.256 454.29302,640.742 9.15602,1.559 18.35002,2.888 27.57301,3.986 -143.633,68.11 -248.3,261.552 -257.196,420.938 -0.77102,7.697 -1.081,15.433 -0.92702,23.167 0,7.877 0,15.29 0.46302,23.167 0.836,15.574 2.85001,31.063 6.023,46.333 h 279.39002 c 34.35696,-0.2299 65.22196,-21.05 78.30296,-52.82 4.279,-10.115 6.485,-20.987 6.487,-31.97 V 548.123 c -0.1758,-46.73599 -38.006,-84.58598 -84.74198,-84.79 z"
     id="path4"
     style="stroke-width:1" /><path
     opacity="0.2"
     enable-background="new    "
     d="M 980.87702,463.333 H 471.20999 c -51.47498,302.41401 151.95003,589.297 454.36404,640.773 6.186,1.053 12.38901,2.001 18.607,2.844 -139.00001,73.021 -239.54303,266 -248.25401,422.05 h 284.95 c 46.68098,-0.3529 84.43698,-38.109 84.78998,-84.79 V 548.123 c -0.1778,-46.75397 -38.036,-84.61198 -84.78998,-84.79 z"
     id="path5"
     style="stroke-width:1" /><path
     opacity="0.2"
     enable-background="new    "
     d="M 934.54303,463.333 H 471.20999 c -48.60598,285.48201 130.27904,560.404 410.97703,631.616 -106.286,121.435 -171.47602,273.352 -186.26,434.051 H 934.544 c 46.75401,-0.1778 84.612,-38.036 84.79,-84.79 V 548.123 c -0.027,-46.81697 -37.97299,-84.76401 -84.79097,-84.79 z"
     id="path6"
     style="stroke-width:1" /><path
     fill="url(#SVGID_1_)"
     d="M 84.929001,463.333 H 934.40403 c 46.905,0 84.92897,38.024 84.92897,84.929 v 849.475 c 0,46.905 -38.02397,84.929 -84.92897,84.929 H 84.929001 C 38.024001,1482.666 0,1444.642 0,1397.737 V 548.262 c 0,-46.905 38.024001,-84.929 84.929001,-84.929 z"
     id="path8"
     style="fill:url(#SVGID_1_);stroke-width:1" /><path
     fill="#ffffff"
     d="m 379.33101,962.62101 c -19.903,-13.20198 -36.528,-30.77701 -48.604,-51.38401 -11.701,-21.54199 -17.533,-45.78099 -16.912,-70.28798 -1.04201,-33.181 10.155,-65.58601 31.46,-91.045 22.388,-25.49001 51.32601,-44.36601 83.67801,-54.581 36.87098,-12.136 75.49,-18.116 114.30398,-17.69901 51.04301,-1.86501 102.01501,5.27202 150.58301,21.08201 v 106.56699 c -21.10298,-12.78398 -44.08801,-22.166 -68.11,-27.79999 -26.06498,-6.39201 -52.81,-9.59702 -79.64701,-9.54499 -28.29998,-1.03901 -56.41897,4.91297 -81.871,17.32898 -19.64998,8.47501 -32.39201,27.807 -32.43298,49.20602 -0.0802,12.98099 4.90698,25.48098 13.89999,34.84297 10.62198,11.03702 23.187,20.02101 37.06699,26.50302 15.44401,7.691 38.611,17.91599 69.5,30.673 3.40102,1.075 6.716,2.40699 9.91502,3.98502 30.40099,11.88096 59.729,26.34398 87.663,43.22897 21.154,13.04302 38.90799,30.92399 51.801,52.17099 13.21801,24.085 19.625,51.315 18.53299,78.767 1.50899,34.066 -8.91301,67.591 -29.46799,94.798 -20.488,25.012 -47.88002,43.446 -78.767,53.005 -36.329,11.387 -74.24503,16.892 -112.31199,16.309 -34.15402,0.1549 -68.25803,-2.635 -101.93303,-8.34 -28.43399,-4.653 -56.18199,-12.807 -82.61199,-24.279 v -112.358 c 25.264,18.043 53.489,31.529 83.40002,39.847 29.80998,9.289 60.79798,14.251 92.01797,14.734 28.89503,1.83 57.739,-4.291 83.39999,-17.699 17.97603,-10.144 28.909,-29.358 28.44902,-49.994 0.11985,-14.359 -5.56002,-28.158 -15.75298,-38.271 -12.67603,-12.444 -27.35203,-22.671 -43.41401,-30.256 -18.53303,-9.267 -45.824,-21.483 -81.871,-36.65 -28.677,-11.52899 -56.13401,-25.88598 -81.96401,-42.85899 z"
     id="path9"
     style="stroke-width:1" /></g>
</svg>
