<?xml version="1.0" encoding="UTF-8" standalone="no"?>
<!-- Created with Inkscape (http://www.inkscape.org/) -->

<svg
   width="210mm"
   height="297mm"
   viewBox="0 0 210 297"
   version="1.1"
   id="svg1"
   xml:space="preserve"
   inkscape:version="1.3.2 (091e20e, 2023-11-25, custom)"
   sodipodi:docname="Skill_sets.svg"
   xmlns:inkscape="http://www.inkscape.org/namespaces/inkscape"
   xmlns:sodipodi="http://sodipodi.sourceforge.net/DTD/sodipodi-0.dtd"
   xmlns="http://www.w3.org/2000/svg"
   xmlns:svg="http://www.w3.org/2000/svg"><sodipodi:namedview
     id="namedview1"
     pagecolor="#ffffff"
     bordercolor="#000000"
     borderopacity="0.25"
     inkscape:showpageshadow="2"
     inkscape:pageopacity="0.0"
     inkscape:pagecheckerboard="0"
     inkscape:deskcolor="#d1d1d1"
     inkscape:document-units="mm"
     inkscape:zoom="0.48945419"
     inkscape:cx="-247.21415"
     inkscape:cy="634.3801"
     inkscape:window-width="1920"
     inkscape:window-height="991"
     inkscape:window-x="-9"
     inkscape:window-y="1341"
     inkscape:window-maximized="1"
     inkscape:current-layer="layer1" /><defs
     id="defs1" /><g
     inkscape:label="Calque 1"
     inkscape:groupmode="layer"
     id="layer1"><g
       id="g1"
       transform="matrix(0.92281485,0,0,0.92281485,8.8738124,12.818441)"><path
         id="rect1"
         style="fill:#000000;fill-opacity:1;stroke:none;stroke-width:2.07751;stroke-linejoin:round;stroke-dasharray:none;stroke-dashoffset:692.411;stroke-opacity:1"
         d="m 90.623612,113.70834 c -1.16,0 -2.09374,0.93373 -2.09374,2.09374 v 6.95819 H 62.947097 c -1.160002,0 -2.09442,0.93374 -2.09442,2.09374 v 110.86365 c 0,1.16 0.934418,2.09442 2.09442,2.09442 h 76.347963 c 1.16001,0 2.09443,-0.93442 2.09443,-2.09442 V 124.85401 c 0,-1.16 -0.93442,-2.09374 -2.09443,-2.09374 h -25.58277 v -6.95819 c 0,-1.16001 -0.93374,-2.09374 -2.09373,-2.09374 z M 72.446045,132.45533 H 127.3284 c 1.15999,0 2.09373,0.93374 2.09373,2.09374 v 90.25353 c 0,1.16001 -0.93374,2.09374 -2.09373,2.09374 H 72.446045 c -1.160003,0 -2.093746,-0.93373 -2.093746,-2.09374 v -90.25353 c 0,-1.16 0.933743,-2.09374 2.093746,-2.09374 z"
         inkscape:label="Pile" /><path
         style="fill:#000000;fill-opacity:1;stroke:#000000;stroke-width:1.18823;stroke-linejoin:round;stroke-dashoffset:692.411;stroke-opacity:1"
         d="M 119.78967,140.29571 79.672932,183.70138 H 100.0111 l -17.862178,34.91138 38.444538,-45.53316 -18.10637,0.30353 z"
         id="path3"
         sodipodi:nodetypes="ccccccc"
         inkscape:label="Charge" /></g><circle
       style="fill:#000000;fill-opacity:0;stroke:none;stroke-width:1.5875;stroke-linejoin:round;stroke-dashoffset:692.411;stroke-opacity:1"
       id="path1"
       cx="102.18985"
       cy="175.01257"
       r="90.590736"
       inkscape:export-filename="..\lib\assets\skills_set.png"
       inkscape:export-xdpi="143.55551"
       inkscape:export-ydpi="143.55551" /></g></svg>
