<?xml version="1.0" encoding="UTF-8" standalone="no"?>
<!-- Created with Inkscape (http://www.inkscape.org/) -->

<svg
   width="210mm"
   height="297mm"
   viewBox="0 0 210 297"
   version="1.1"
   id="svg1"
   xml:space="preserve"
   inkscape:version="1.3.2 (091e20e, 2023-11-25, custom)"
   sodipodi:docname="Sombre.svg"
   inkscape:export-filename="..\lib\assets\sombre.png"
   inkscape:export-xdpi="231.36482"
   inkscape:export-ydpi="231.36482"
   xmlns:inkscape="http://www.inkscape.org/namespaces/inkscape"
   xmlns:sodipodi="http://sodipodi.sourceforge.net/DTD/sodipodi-0.dtd"
   xmlns:xlink="http://www.w3.org/1999/xlink"
   xmlns="http://www.w3.org/2000/svg"
   xmlns:svg="http://www.w3.org/2000/svg"><sodipodi:namedview
     id="namedview1"
     pagecolor="#505050"
     bordercolor="#ffffff"
     borderopacity="1"
     inkscape:showpageshadow="0"
     inkscape:pageopacity="0"
     inkscape:pagecheckerboard="1"
     inkscape:deskcolor="#505050"
     inkscape:document-units="mm"
     inkscape:zoom="0.081575699"
     inkscape:cx="-478.08355"
     inkscape:cy="3450.7826"
     inkscape:window-width="1644"
     inkscape:window-height="1251"
     inkscape:window-x="0"
     inkscape:window-y="0"
     inkscape:window-maximized="0"
     inkscape:current-layer="layer1" /><defs
     id="defs1"><inkscape:path-effect
       effect="fillet_chamfer"
       id="path-effect3"
       is_visible="true"
       lpeversion="1"
       nodesatellites_param="F,0,0,1,0,0,0,1 @ F,0,0,1,0,16.55628,0,1"
       radius="0"
       unit="px"
       method="auto"
       mode="F"
       chamfer_steps="1"
       flexible="false"
       use_knot_distance="true"
       apply_no_radius="true"
       apply_with_radius="true"
       only_selected="false"
       hide_knots="false" /><linearGradient
       id="linearGradient1"
       inkscape:collect="always"><stop
         style="stop-color:#000000;stop-opacity:1;"
         offset="0"
         id="stop1" /><stop
         style="stop-color:#ffffff;stop-opacity:1;"
         offset="1"
         id="stop2" /></linearGradient><radialGradient
       inkscape:collect="always"
       xlink:href="#linearGradient1"
       id="radialGradient2"
       cx="105"
       cy="148.5"
       fx="105"
       fy="148.5"
       r="120.38541"
       gradientUnits="userSpaceOnUse"
       gradientTransform="matrix(3.9161448,4.4360195,-3.8050356,3.3591099,258.85258,-816.10985)" /></defs><g
     inkscape:label="Calque 1"
     inkscape:groupmode="layer"
     id="layer1"><circle
       style="fill:#808080;fill-opacity:0.5;stroke:#5b5b5b;stroke-width:1;stroke-linecap:round;stroke-linejoin:round;stroke-opacity:0.431193;paint-order:markers fill stroke"
       id="path1"
       cx="105"
       cy="148.5"
       r="135.46666"
       inkscape:label="Extérieur" /><circle
       style="fill:#898989;fill-opacity:0.5;stroke:#a4a4a4;stroke-width:1.32292;stroke-linecap:round;stroke-linejoin:round;stroke-dasharray:none;stroke-dashoffset:0;stroke-opacity:0.431193;paint-order:markers fill stroke"
       id="path1-3"
       cx="105"
       cy="148.5"
       inkscape:label="Milieu"
       r="127" /><circle
       style="fill:url(#radialGradient2);stroke:#ffffff;stroke-width:2.64583;stroke-linecap:round;stroke-linejoin:round;stroke-dasharray:none;stroke-opacity:0.431193;paint-order:markers fill stroke"
       id="path1-1"
       cx="105"
       cy="148.5"
       inkscape:label="Intérieur"
       r="119.0625" /><path
       id="path4"
       style="fill:#ffffff;fill-opacity:1;stroke:#a4a4a4;stroke-width:11.9955;stroke-linecap:round;stroke-linejoin:round;stroke-dasharray:none;stroke-dashoffset:0;stroke-opacity:0.262658;paint-order:markers fill stroke"
       d="M 99.352986,70.862091 A 77.699173,77.699173 0 0 0 33.912025,106.31403 l -0.183812,0.28532 A 77.699173,77.699173 0 0 0 57.089405,213.90931 77.699173,77.699173 0 0 0 145.16453,210.90419 77.699173,77.699173 0 0 1 111.99566,199.18985 77.699173,77.699173 0 0 1 88.634076,91.879867 l 0.1838,-0.285306 A 77.699173,77.699173 0 0 1 107.97767,71.504043 77.699173,77.699173 0 0 0 99.352986,70.862091 Z" /><path
       sodipodi:type="star"
       style="fill:#ffffff;fill-opacity:1;stroke:#a4a4a4;stroke-width:11.2977;stroke-linecap:round;stroke-linejoin:round;stroke-dasharray:none;stroke-dashoffset:0;stroke-opacity:0.262658;paint-order:markers fill stroke"
       id="path5"
       inkscape:flatsided="false"
       sodipodi:sides="5"
       sodipodi:cx="142.67996"
       sodipodi:cy="66.601028"
       sodipodi:r1="8.3206224"
       sodipodi:r2="18.490273"
       sodipodi:arg1="1.0471976"
       sodipodi:arg2="1.6755161"
       inkscape:rounded="0.161"
       inkscape:randomized="0"
       d="m 146.84027,73.806899 c -1.77568,1.02519 -4.05392,11.397434 -6.09307,11.18311 -2.03915,-0.214323 -2.11109,-10.833581 -3.63482,-12.205553 -1.52373,-1.371973 -12.09234,-0.333509 -12.51863,-2.339084 -0.4263,-2.005575 9.65098,-5.35553 10.48495,-7.228646 0.83396,-1.873116 -3.41956,-11.603553 -1.64387,-12.628743 1.77568,-1.025191 8.07573,7.523681 10.11487,7.738004 2.03915,0.214323 9.97894,-6.837881 11.50267,-5.465909 1.52373,1.371973 -4.65991,10.005421 -4.23361,12.010996 0.4263,2.005575 9.58687,7.37751 8.75291,9.250626 -0.83397,1.873116 -10.95572,-1.339991 -12.7314,-0.314801 z"
       transform="translate(5.428484,24.257159)" /><path
       sodipodi:type="star"
       style="fill:#ffffff;fill-opacity:1;stroke:#a4a4a4;stroke-width:11.2977;stroke-linecap:round;stroke-linejoin:round;stroke-dasharray:none;stroke-dashoffset:0;stroke-opacity:0.262658;paint-order:markers fill stroke"
       id="path5-4"
       inkscape:flatsided="false"
       sodipodi:sides="5"
       sodipodi:cx="-38.950924"
       sodipodi:cy="29.707256"
       sodipodi:r1="8.3206224"
       sodipodi:r2="18.490273"
       sodipodi:arg1="1.0471976"
       sodipodi:arg2="1.6755161"
       inkscape:rounded="0.161"
       inkscape:randomized="0"
       d="m -34.790613,36.913127 c -1.775682,1.02519 -4.053922,11.397433 -6.093071,11.18311 -2.039149,-0.214323 -2.111093,-10.833581 -3.634823,-12.205553 -1.52373,-1.371973 -12.092335,-0.333509 -12.518633,-2.339084 -0.426298,-2.005575 9.650984,-5.35553 10.484949,-7.228646 0.833965,-1.873116 -3.419551,-11.603553 -1.643869,-12.628744 1.775682,-1.02519 8.07573,7.523682 10.114878,7.738005 2.039149,0.214323 9.978936,-6.837881 11.502666,-5.465909 1.523729,1.371973 -4.659909,10.005421 -4.233611,12.010996 0.426298,2.005575 9.586873,7.37751 8.752907,9.250626 -0.833965,1.873116 -10.955711,-1.339991 -12.731393,-0.314801 z"
       transform="translate(166.50288,109.48619)" /></g></svg>
