<?xml version="1.0" encoding="UTF-8" standalone="no"?>
<svg
   width="512"
   height="511.99997"
   viewBox="0 0 512 511.99997"
   fill="none"
   version="1.1"
   id="svg14"
   sodipodi:docname="thingsboard.svg"
   inkscape:version="1.3.2 (091e20e, 2023-11-25, custom)"
   xmlns:inkscape="http://www.inkscape.org/namespaces/inkscape"
   xmlns:sodipodi="http://sodipodi.sourceforge.net/DTD/sodipodi-0.dtd"
   xmlns="http://www.w3.org/2000/svg"
   xmlns:svg="http://www.w3.org/2000/svg">
  <defs
     id="defs14" />
  <sodipodi:namedview
     id="namedview14"
     pagecolor="#ffffff"
     bordercolor="#000000"
     borderopacity="0.25"
     inkscape:showpageshadow="2"
     inkscape:pageopacity="0.0"
     inkscape:pagecheckerboard="0"
     inkscape:deskcolor="#d1d1d1"
     inkscape:zoom="0.76190476"
     inkscape:cx="-141.75"
     inkscape:cy="402.28125"
     inkscape:window-width="1920"
     inkscape:window-height="991"
     inkscape:window-x="-9"
     inkscape:window-y="1341"
     inkscape:window-maximized="1"
     inkscape:current-layer="svg14" />
  <g
     id="g14"
     transform="matrix(15.830239,0,0,15.830239,-94.981426,-92.299792)">
    <path
       d="m 21.2752,6.00049 c -2.8668,0 -5.5505,0.79152 -7.8447,2.15366 -0.6542,-0.52622 -1.4762,-0.81913 -2.3314,-0.81935 10e-5,0 -2e-4,0 0,0 -2.03709,7e-5 -3.70769,1.65277 -3.70759,3.6681 0,4e-4 0,7e-4 0,0.0011 10e-4,0.8414 0.29582,1.6483 0.81904,2.2927 -1.39786,2.2829 -2.21049,4.9579 -2.21049,7.8168 -0.00137,0.116 0.02053,0.2311 0.06444,0.3386 0.04391,0.1075 0.10895,0.2054 0.19136,0.2879 0.0824,0.0825 0.18053,0.148 0.2887,0.1927 0.10818,0.0447 0.22424,0.0677 0.34146,0.0677 0.11723,0 0.23329,-0.023 0.34146,-0.0677 0.10817,-0.0447 0.20631,-0.1102 0.28871,-0.1927 0.08241,-0.0825 0.14745,-0.1804 0.19136,-0.2879 0.0439,-0.1075 0.06581,-0.2226 0.06444,-0.3386 0,-2.4701 0.67914,-4.7747 1.85753,-6.7573 0.46158,0.1985 0.95748,0.315 1.46748,0.3158 4e-4,0 8e-4,0 0.0013,0 2.0371,0 3.7077,-1.6527 3.7076,-3.6682 0,2e-4 0,-10e-5 0,0 -2e-4,-0.4999 -0.1151,-0.9866 -0.3116,-1.44005 1.9928,-1.14838 4.3042,-1.80947 6.7805,-1.80947 0.1172,0.00136 0.2335,-0.02031 0.3422,-0.06375 0.1087,-0.04345 0.2076,-0.10779 0.291,-0.18932 0.0834,-0.08153 0.1496,-0.17862 0.1948,-0.28564 0.0451,-0.10702 0.0684,-0.22184 0.0684,-0.33782 0,-0.11598 -0.0233,-0.23081 -0.0684,-0.33783 C 22.0576,6.4329 21.9914,6.33581 21.908,6.25428 21.8246,6.17276 21.7257,6.10841 21.617,6.06497 21.5083,6.02153 21.392,5.99986 21.2748,6.00121 Z M 11.098,9.08844 c 0.5977,2e-4 1.1312,0.2512 1.4996,0.70768 0.006,0.00724 0.0122,0.0144 0.0184,0.02145 0.27,0.33793 0.4177,0.75533 0.4179,1.18623 -2e-4,1.0677 -0.8559,1.9144 -1.935,1.9148 -0.4417,-8e-4 -0.8693,-0.1509 -1.21286,-0.4254 -4.2e-4,-3e-4 -8.4e-4,-6e-4 -0.00126,-9e-4 C 9.42853,12.129 9.16354,11.5825 9.16269,11.003 9.16294,9.9353 10.0188,9.08864 11.098,9.08844 Z"
       fill="#212529"
       id="path1" />
    <path
       fill-rule="evenodd"
       clip-rule="evenodd"
       d="m 12.7709,16.2832 c -0.1508,0.1558 -0.2391,0.371 -0.2282,0.6071 0.0098,0.2045 0.0923,0.402 0.2363,0.5518 0.6878,0.6856 2.044,2.0222 2.044,2.0222 l 1.1971,-1.1829 c 0,0 -1.3112,-1.2961 -2.0393,-2.0171 -0.1621,-0.1633 -0.379,-0.2314 -0.6076,-0.2324 -0.2384,-0.0012 -0.4515,0.0955 -0.6023,0.2513 z m 3.2492,1.9982 -3.7032,3.6639 c -0.4018,0.3976 -0.4018,1.0421 0,1.4397 l 5.0445,4.9908 3.0805,3.0477 c 0.4019,0.3976 1.0534,0.3977 1.4553,0 l 2.5057,-2.479 3.8321,-3.7914 3.7033,-3.6638 c 0.4018,-0.3976 0.4017,-1.0422 -1e-4,-1.4398 l -1.883,-1.8629 -6.2423,-6.1759 c -0.4019,-0.3975 -1.0533,-0.3975 -1.4552,0 l -6.3373,6.2699 z m 3.8319,-3.7909 c 0,0 -1.3113,-1.2961 -2.0393,-2.017 -0.1621,-0.1633 -0.379,-0.2314 -0.6077,-0.2325 -0.4767,-0.0022 -0.8524,0.3862 -0.8305,0.8584 0.0097,0.2044 0.0923,0.402 0.2363,0.5517 0.6878,0.6856 2.044,2.0223 2.044,2.0223 z m 6.9936,0.5213 c 0,0 1.31,-1.2972 2.0387,-2.0175 0.165,-0.1604 0.2339,-0.375 0.235,-0.6012 0.0022,-0.4717 -0.3904,-0.8434 -0.8676,-0.8217 -0.2067,0.0096 -0.4064,0.0913 -0.5577,0.2337 -0.693,0.6805 -2.044,2.0223 -2.044,2.0223 z m 3.2096,3.1748 c 0,0 1.3098,-1.2968 2.0385,-2.0171 0.165,-0.1604 0.2339,-0.375 0.235,-0.6012 0.0022,-0.4716 -0.3904,-0.8434 -0.8676,-0.8217 -0.2067,0.0097 -0.4064,0.0914 -0.5577,0.2338 -0.693,0.6805 -2.044,2.0222 -2.044,2.0222 z m -1.8202,6.9665 c 0,0 1.311,1.2966 2.0392,2.0174 0.1621,0.1633 0.379,0.2314 0.6076,0.2325 0.4768,0.0022 0.8525,-0.3862 0.8306,-0.8584 -0.0098,-0.2044 -0.0926,-0.4019 -0.2366,-0.5516 -0.6878,-0.6856 -2.0439,-2.0222 -2.0439,-2.0222 z m -3.8321,3.7914 c 0,0 1.3109,1.2966 2.0392,2.0174 0.1621,0.1632 0.379,0.2314 0.6076,0.2324 0.4768,0.0023 0.8525,-0.3862 0.8305,-0.8584 -0.0097,-0.2044 -0.0925,-0.402 -0.2364,-0.5517 -0.6878,-0.6856 -2.044,-2.0223 -2.044,-2.0223 z m -7.0415,-0.5687 c 0,0 -1.3103,1.2978 -2.0389,2.0183 -0.165,0.1604 -0.2338,0.3749 -0.2349,0.6012 -0.0023,0.4716 0.3903,0.8434 0.8676,0.8216 0.2066,-0.0096 0.4061,-0.0913 0.5575,-0.2337 0.6929,-0.6805 2.044,-2.0223 2.044,-2.0223 L 17.362,28.377 Z m -3.2087,-3.1734 c 0,0 -1.31,1.2972 -2.0385,2.0177 -0.165,0.1604 -0.2339,0.375 -0.235,0.6012 -0.0023,0.4717 0.3903,0.8434 0.8676,0.8217 0.2066,-0.0096 0.4061,-0.0913 0.5575,-0.2337 0.693,-0.6805 2.044,-2.0223 2.044,-2.0223 z m 8.8174,-9.0553 c 0.1697,-0.1706 0.4009,-0.266 0.6365,-0.2626 0.168,0.0024 0.3288,0.055 0.4611,0.151 l 1.6676,1.21 c 0.3236,0.2297 0.4189,0.6658 0.2255,1.0311 -0.1934,0.3653 -0.6189,0.5525 -1.0057,0.4423 l 0.6189,2.3948 c 0.1125,0.4351 -0.158,0.8967 -0.6047,1.0316 l -4.5122,1.3631 0.8335,3.1883 c 0.1185,0.4369 -0.1518,0.9044 -0.6019,1.0406 -0.4501,0.1363 -0.9072,-0.111 -1.0176,-0.5504 l -1.0393,-3.9768 c -0.1138,-0.4356 0.1566,-0.8985 0.6041,-1.0338 l 4.514,-1.3637 -0.4166,-1.6118 c -0.2793,0.3064 -0.7311,0.3809 -1.07,0.1762 -0.3389,-0.2047 -0.4664,-0.629 -0.3018,-1.0047 l 0.8204,-1.9454 c 0.0438,-0.1037 0.1078,-0.1989 0.1882,-0.2798 z"
       fill="#212529"
       id="path2" />
    <path
       d="m 23.0681,38.0038 c 2.8668,0 5.5505,-0.7915 7.8448,-2.1538 0.6541,0.5263 1.4761,0.8192 2.3314,0.8194 -1e-4,0 2e-4,0 0,0 2.0372,-1e-4 3.7078,-1.6528 3.7077,-3.6681 0,-4e-4 0,-8e-4 0,-0.0011 -10e-4,-0.8415 -0.2958,-1.6484 -0.819,-2.2927 1.3973,-2.2819 2.2101,-4.9571 2.2101,-7.816 0.0014,-0.1161 -0.0204,-0.2313 -0.0642,-0.3389 C 38.235,22.445 38.17,22.347 38.0876,22.2645 38.0051,22.1819 37.907,22.1163 37.7987,22.0716 c -0.1082,-0.0448 -0.2243,-0.0678 -0.3416,-0.0678 -0.1173,0 -0.2334,0.023 -0.3417,0.0678 -0.1082,0.0447 -0.2064,0.1103 -0.2888,0.1929 -0.0824,0.0825 -0.1474,0.1805 -0.1913,0.2881 -0.0438,0.1076 -0.0656,0.2228 -0.0642,0.3389 0,2.4702 -0.6791,4.7748 -1.8575,6.7573 -0.4615,-0.1984 -0.9575,-0.3149 -1.4675,-0.3157 -4e-4,0 -8e-4,0 -0.0012,0 -2.0372,-1e-4 -3.7077,1.6527 -3.7076,3.6681 2e-4,0.5 0.1151,0.9863 0.3116,1.4397 -1.9929,1.1484 -4.3044,1.8095 -6.7807,1.8095 -0.1173,-0.0015 -0.2337,0.0201 -0.3425,0.0635 -0.1088,0.0434 -0.2077,0.1077 -0.2912,0.1893 -0.0835,0.0815 -0.1497,0.1786 -0.195,0.2857 -0.0452,0.1071 -0.0685,0.222 -0.0685,0.338 0,0.1161 0.0233,0.231 0.0685,0.338 0.0453,0.1071 0.1115,0.2042 0.195,0.2858 0.0835,0.0815 0.1824,0.1458 0.2912,0.1892 0.1088,0.0434 0.2251,0.0654 0.3424,0.0639 z m 10.1771,-3.0875 c -0.5976,0 -1.1311,-0.2512 -1.4995,-0.7076 -0.006,-0.0073 -0.0122,-0.0144 -0.0184,-0.0215 -0.2701,-0.338 -0.4178,-0.7553 -0.4179,-1.1863 2e-4,-1.0677 0.8559,-1.9143 1.935,-1.9147 0.4417,8e-4 0.8693,0.1508 1.2128,0.4254 5e-4,3e-4 9e-4,6e-4 0.0013,9e-4 0.4563,0.3633 0.7212,0.9098 0.7221,1.4893 -3e-4,1.0677 -0.8561,1.9144 -1.9354,1.9145 z"
       fill="#212529"
       id="path3" />
  </g>
  <rect
     width="511.99997"
     height="511.99997"
     rx="15.000002%"
     fill="#ffffff"
     id="rect1"
     style="fill:#ffffff;fill-opacity:0;stroke-width:1"
     x="2.1315675e-05"
     y="0"
     inkscape:export-filename="..\lib\assets\bubble_content\skill_badge\thingsboard.png"
     inkscape:export-xdpi="96"
     inkscape:export-ydpi="96" />
</svg>
