<?xml version="1.0" encoding="UTF-8" standalone="no"?>
<svg
   width="512"
   height="511.99997"
   viewBox="0 209.445 512.00001 511.99997"
   version="1.1"
   id="svg6"
   sodipodi:docname="Tomcat.svg"
   inkscape:version="1.3.2 (091e20e, 2023-11-25, custom)"
   xmlns:inkscape="http://www.inkscape.org/namespaces/inkscape"
   xmlns:sodipodi="http://sodipodi.sourceforge.net/DTD/sodipodi-0.dtd"
   xmlns="http://www.w3.org/2000/svg"
   xmlns:svg="http://www.w3.org/2000/svg">
  <defs
     id="defs6" />
  <sodipodi:namedview
     id="namedview6"
     pagecolor="#ffffff"
     bordercolor="#000000"
     borderopacity="0.25"
     inkscape:showpageshadow="2"
     inkscape:pageopacity="0.0"
     inkscape:pagecheckerboard="0"
     inkscape:deskcolor="#d1d1d1"
     inkscape:zoom="0.86010091"
     inkscape:cx="160.44629"
     inkscape:cy="250.552"
     inkscape:window-width="1920"
     inkscape:window-height="991"
     inkscape:window-x="-9"
     inkscape:window-y="1341"
     inkscape:window-maximized="1"
     inkscape:current-layer="svg6" />
  <rect
     width="511.99997"
     height="511.99997"
     rx="15.000002%"
     fill="#ffffff"
     id="rect1"
     style="fill:#ffffff;fill-opacity:0;stroke-width:1"
     x="1.6563023e-05"
     y="209.44501" />
  <g
     id="g6"
     transform="matrix(0.8699745,0,0,0.8699745,-2.8752657,98.459292)"
     inkscape:export-filename="..\..\..\..\Downloads\PNG\tomcat.png"
     inkscape:export-xdpi="96"
     inkscape:export-ydpi="96">
    <path
       fill="#d1a41a"
       d="M 531.64,594.445 437.037,493.74 426.141,500.945 C 373.71,470.037 334.48,425.455 314.355,358.6 c -71.662,17.629 -155.214,62.845 -209.047,124.013 0.01,0.012 0.021,0.023 0.03,0.037 -53.459,57.869 -87.91,112.324 -97.033,132.129 l 52.169,0.334 c -2.015,-23.424 4.09,-42.951 20,-64.668 72.167,-98.5 343.167,15 450.167,76.5 l 57,-0.5 c -10e-4,0 -8.501,-37.5 -56.001,-32 z"
       id="path1" />
    <path
       fill="#ffdc76"
       d="m 428.14,500.945 c -110.127,-54.949 -140,-189 -113,-281 0,0 20.5,9.5 40,55.5 44.646,-12.799 96.667,-14.001 142,-1.5 0,0 5.5,-36 38.5,-53 4.992,21.339 38,191 -107.5,280 z"
       id="path2" />
    <path
       d="M 229.617,394.569 261.671,379 l 18.317,49.455 z m -35.945,18.088 19.919,-11.906 18.316,32.284 z m -38.693,24.956 17.399,-11.447 8.7,29.764 z m 308.172,82.424 -11.448,-11.447 -16.026,25.184 z m 22.896,27.474 -9.158,-9.158 -27.476,18.316 z M 315.64,346.862 l -1.311,-18.231 32.055,16.256 z m 10.139,26.644 -6.389,-13.561 22.415,9.211 z m 210.638,-19.233 4.578,-13.736 -25.185,10.531 z m -9.158,27.933 2.289,-11.219 -18.316,5.495 z m -222.086,35.488 h 59.985 v 7.419 h -59.985 z m 0,-17.859 h 59.985 v 7.418 h -59.985 z m 183.163,17.859 h 59.985 v 7.419 h -59.985 z m 0,-17.859 h 59.985 v 7.418 h -59.985 z"
       id="path3" />
    <path
       d="m 547.277,286.323 -0.1,-0.151 c -0.042,-11.562 -3.627,-60.43 -10.2,-73.884 -17.838,6.819 -50.32,28.961 -57.572,51.537 -35.134,-5.291 -74.799,-4.652 -109.706,1.388 -5.802,-24.4 -34.905,-42.871 -56.892,-53.361 -9.271,15.758 -13.396,52.22 -12.331,78.217 -0.039,0.027 -0.083,0.053 -0.122,0.083 4.08,108.774 57.119,176.502 126.478,217.549 71.4,-41.047 122.399,-121.09 120.358,-221.427 0.029,0.017 0.061,0.031 0.087,0.049 z M 427.816,493.599 C 318.789,438.872 298.164,300.452 316.752,226.796 c 5.168,28.505 14.552,46.291 34.905,54.957 18.88,-5.445 40.823,-8.739 63.263,-9.765 l 16.179,37.412 11.968,-37.497 c 20.707,0.828 40.93,3.638 58.645,8.554 18.698,-13.683 26.066,-34.662 29.919,-52.906 4.94,21.254 4.375,67.272 4.397,67.272 l 0.138,-0.755 C 538,384.597 492.189,456.66 427.817,493.601 Z"
       id="path4" />
    <path
       d="M 583.444,607.021 C 572.247,594.41 550.35,588.458 531.991,588.892 518.98,573.316 443.593,493.343 443.593,493.343 l -5.235,6.613 91.12,98.51 3.943,-0.34 c 24.707,-2.129 38.759,11.357 42.613,15.553 2.721,3.08 4.374,5.883 5.282,8.074 H 531.223 C 416.53,561.552 315.663,519.136 209.358,509.787 c 0.235,-14.98 2.878,-31.924 7.978,-50.852 l -9.838,-2.691 c -5.234,19.43 -7.978,36.943 -8.296,52.678 a 506.01,506.01 0 0 0 -33.772,-1.129 c -9.61,0 -18.361,0.898 -26.294,2.463 -10.403,-10.467 -19.266,-20.434 -26.746,-29.873 49.64,-51.994 131.692,-99.197 202.865,-116.527 l -2.313,-10.034 C 236.33,372.407 152.463,422.917 105.771,471.946 84.102,442.528 75.398,418.356 72.905,400.113 c -3.218,-23.032 2.26,-44.239 15.866,-61.343 21.307,-26.68 51.453,-28.505 82.731,-23.26 -0.607,4.948 0.039,9.669 2.006,12.587 8.229,12.223 52.359,16.534 78.881,4.675 -19.493,-27.364 -58.934,-40.818 -69.813,-35.574 -3.627,1.779 -6.347,5.04 -8.229,8.87 -10.767,-1.936 -21.442,-3.375 -29.24,-3.329 -27.427,0.202 -48.507,9.851 -64.146,29.417 -15.413,19.269 -21.646,43.099 -18.02,69.096 3.444,24.627 15.549,50.852 35.812,77.989 l -9.768,10.764 C 39.572,545.646 3.305,605.622 3.305,615.425 v 5.131 h 65.279 l -1.144,-6.088 c -3.695,-19.611 3.672,-44.24 18.767,-62.482 9.475,-11.492 25.16,-24.629 49.866,-30.785 21.896,21.504 49.866,44.24 80.92,66.359 h 48.506 v -5.131 c 0,-5.793 -2.855,-10.855 -8.023,-14.275 -7.662,-5.039 -19.493,-5.746 -30.373,-2.012 -10.358,-11.605 -16.185,-27.137 -17.431,-46.291 105.398,9.395 206.038,52.221 319.597,111.967 h 62.559 l -0.002,-4.063 c -0.997,-12 -8.38,-20.736 -8.38,-20.736 z M 77.981,545.906 C 62.523,564.674 54.408,589.463 56.221,610.67 H 14.968 c 8.273,-17.992 41.254,-70.008 89.759,-122.686 6.71,8.348 14.167,16.762 22.372,25.313 -23.801,7.229 -39.666,20.66 -49.413,32.609 z m 288.822,-221.515 -0.003,-0.001 -0.002,0.005 z"
       id="path5" />
    <path
       d="m 507.276,325.238 v -6.687 c -24.772,0 -39.609,9.799 -46.707,30.68 h -53.575 c 3.746,-16.713 4.388,-33.106 -1.131,-42.585 -3.113,-5.334 -8.014,-8.173 -14.172,-8.173 -22.071,0 -30.781,22.621 -31.138,23.582 l 6.247,2.334 c 0.249,-0.827 7.556,-19.204 24.954,-19.204 3.801,0 6.471,1.534 8.402,4.854 4.52,7.784 3.786,23.078 0.031,39.151 h -30.451 v 6.686 l 28.959,0.027 c -3.091,10.967 -7.418,21.796 -12.294,30.451 l -1.578,2.771 38.235,24.04 -21.477,14.15 3.687,5.586 24.041,-15.821 25.871,16.895 3.549,-5.652 -24.04,-14.86 37.777,-24.499 c -0.013,-0.015 -0.02,-0.029 -0.029,-0.042 l -0.13,-0.076 0.043,-0.007 c -7.92,-11.674 -10.417,-21.655 -7.123,-32.962 l 31.219,0.041 0.067,-6.64 h -29.077 c 5.496,-12.661 13.052,-24.04 39.84,-24.04 z m -78.24,83.779 -28.16,-17.744 55.178,0.014 z m 29.395,-53.114 c -2.381,7.555 -1.419,18.935 4.419,28.619 h -67.999 c 4.144,-8.288 7.968,-18.385 10.761,-28.619 z"
       id="path6" />
  </g>
</svg>
