<?xml version="1.0" encoding="UTF-8" standalone="no"?>
<svg
   viewBox="0 0 511.99997 512"
   version="1.1"
   id="svg4"
   sodipodi:docname="Unified Modelling Language (UML).svg"
   width="511.99997"
   height="512"
   inkscape:version="1.3.2 (091e20e, 2023-11-25, custom)"
   xmlns:inkscape="http://www.inkscape.org/namespaces/inkscape"
   xmlns:sodipodi="http://sodipodi.sourceforge.net/DTD/sodipodi-0.dtd"
   xmlns="http://www.w3.org/2000/svg"
   xmlns:svg="http://www.w3.org/2000/svg">
  <defs
     id="defs4" />
  <sodipodi:namedview
     id="namedview4"
     pagecolor="#ffffff"
     bordercolor="#000000"
     borderopacity="0.25"
     inkscape:showpageshadow="2"
     inkscape:pageopacity="0.0"
     inkscape:pagecheckerboard="0"
     inkscape:deskcolor="#d1d1d1"
     inkscape:zoom="0.53654489"
     inkscape:cx="13.046439"
     inkscape:cy="539.56343"
     inkscape:window-width="1920"
     inkscape:window-height="991"
     inkscape:window-x="-9"
     inkscape:window-y="1341"
     inkscape:window-maximized="1"
     inkscape:current-layer="svg4" />
  <g
     id="g4"
     transform="matrix(4.1078635,0,0,4.1078635,-8.5710737,-6.1946582)"
     inkscape:export-filename="..\source\repos\dossier_de_competences_web\lib\assets\bubble_content\skill_badge\uml.png"
     inkscape:export-xdpi="96"
     inkscape:export-ydpi="96">
    <path
       fill="#fbbd16"
       d="m 26.242,107.832 v -36.5 l 7.004,39.418 11.402,5.676 7.329,-32.766 v 35.852 l 12.859,6.324 V 65.328 L 45.296,56.082 39.109,84.957 32.863,50.133 13.433,40.836 v 60.562 z m 0,0"
       id="path1" />
    <path
       fill="#452e7f"
       d="M 66.633,65.313 87.039,54.719 V 98.62 l 28.23,-14.598 0.11,16.547 -48.695,25.578 z m 0,0"
       id="path2" />
    <path
       fill="#962444"
       d="m 58.398,1.508 -14.43,12.754 c 0,0 28.16,14.465 31.583,16.175 3.418,1.711 8.285,4.997 3.023,9.864 -5.261,4.863 -11.05,4.207 -15,2.238 C 59.625,40.562 30.414,25.836 30.414,25.836 L 15.543,38.46 c 0,0 28.687,14.595 33.426,17.095 4.738,2.5 22.367,8.68 39.082,-4.34 16.71,-13.02 14.344,-17.754 14.344,-18.676 0,-0.918 -0.395,-5.781 -3.293,-8.809 C 96.211,20.707 87.789,16.367 84.234,14.523 80.68,12.683 58.398,1.508 58.398,1.508 Z m 0,0"
       id="path3" />
  </g>
  <rect
     width="511.99997"
     height="511.99997"
     rx="15.000002%"
     fill="#ffffff"
     id="rect1"
     style="fill:#ffffff;fill-opacity:0;stroke-width:1"
     x="0"
     y="1.4903523e-05"
     inkscape:export-filename="..\PNG\googleplay.png"
     inkscape:export-xdpi="96"
     inkscape:export-ydpi="96" />
</svg>
