<?xml version="1.0" encoding="UTF-8" standalone="no"?>
<!-- Uploaded to: SVG Repo, www.svgrepo.com, Generator: SVG Repo Mixer Tools -->

<svg
   aria-label="Wikipedia"
   role="img"
   viewBox="0 0 512 512"
   version="1.1"
   id="svg1"
   sodipodi:docname="wikipedia-svgrepo-com.svg"
   inkscape:version="1.3.2 (091e20e, 2023-11-25, custom)"
   xmlns:inkscape="http://www.inkscape.org/namespaces/inkscape"
   xmlns:sodipodi="http://sodipodi.sourceforge.net/DTD/sodipodi-0.dtd"
   xmlns="http://www.w3.org/2000/svg"
   xmlns:svg="http://www.w3.org/2000/svg">
  <defs
     id="defs1" />
  <sodipodi:namedview
     id="namedview1"
     pagecolor="#ffffff"
     bordercolor="#000000"
     borderopacity="0.25"
     inkscape:showpageshadow="2"
     inkscape:pageopacity="0.0"
     inkscape:pagecheckerboard="0"
     inkscape:deskcolor="#d1d1d1"
     inkscape:zoom="1.5175781"
     inkscape:cx="255.67053"
     inkscape:cy="256"
     inkscape:window-width="1920"
     inkscape:window-height="991"
     inkscape:window-x="-9"
     inkscape:window-y="1341"
     inkscape:window-maximized="1"
     inkscape:current-layer="svg1" />
  <rect
     width="512"
     height="512"
     rx="15%"
     fill="#ffffff"
     id="rect1"
     inkscape:export-filename="rect1.png"
     inkscape:export-xdpi="96"
     inkscape:export-ydpi="96" />
  <rect
     width="512"
     height="512"
     rx="15.000001%"
     fill="#ffffff"
     id="rect1-4"
     inkscape:export-filename="rect1.png"
     inkscape:export-xdpi="96"
     inkscape:export-ydpi="96"
     x="0"
     y="0" />
  <path
     d="m65 152v8c0 2 1 3 4 3 20 1 20 5 28 23l90 196c7 14 16 16 25-1l45-88 42 88c8 15 16 16 24 0l86-194c8-17 19-24 36-24 2 0 2-1 2-3v-8h-80l-1 1v7c0 2 2 3 4 3 10 0 29 2 21 19l-70 166-3-1-43-88 37-72c8-15 10-24 25-24 2 0 4-1 4-3v-7l-1-1h-64l-1 1v7c0 3 4 3 7 3 18 1 16 8 10 19l-27 56-25-52c-9-16-11-21 2-22 3-1 8-1 8-4v-7l-1-1h-69l-1 1v8c0 2 2 2 5 2 12 2 12 3 23 26l40 84-37 75-3-1-76-167c-8-17 2-16 18-17 3 0 3-1 3-3v-7l-1-1z"
     id="path1"
     inkscape:export-filename="wikipedia.png"
     inkscape:export-xdpi="96"
     inkscape:export-ydpi="96" />
</svg>
