<?xml version="1.0" encoding="UTF-8" standalone="no"?>
<!-- Uploaded to: SVG Repo, www.svgrepo.com, Generator: SVG Repo Mixer Tools -->

<svg
   aria-label="WordPress"
   role="img"
   viewBox="0 0 512 512"
   version="1.1"
   id="svg1"
   sodipodi:docname="wordpress-svgrepo-com.svg"
   inkscape:export-filename="wordpress.png"
   inkscape:export-xdpi="96"
   inkscape:export-ydpi="96"
   inkscape:version="1.3.2 (091e20e, 2023-11-25, custom)"
   xmlns:inkscape="http://www.inkscape.org/namespaces/inkscape"
   xmlns:sodipodi="http://sodipodi.sourceforge.net/DTD/sodipodi-0.dtd"
   xmlns="http://www.w3.org/2000/svg"
   xmlns:svg="http://www.w3.org/2000/svg">
  <defs
     id="defs1" />
  <sodipodi:namedview
     id="namedview1"
     pagecolor="#ffffff"
     bordercolor="#000000"
     borderopacity="0.25"
     inkscape:showpageshadow="2"
     inkscape:pageopacity="0.0"
     inkscape:pagecheckerboard="0"
     inkscape:deskcolor="#d1d1d1"
     inkscape:zoom="1.5175781"
     inkscape:cx="255.67053"
     inkscape:cy="256"
     inkscape:window-width="1920"
     inkscape:window-height="991"
     inkscape:window-x="-9"
     inkscape:window-y="1341"
     inkscape:window-maximized="1"
     inkscape:current-layer="svg1" />
  <rect
     width="512"
     height="512"
     rx="15%"
     fill="#05a8da"
     id="rect1" />
  <circle
     cx="256"
     cy="256"
     fill="none"
     r="182"
     stroke="#ffffff"
     stroke-width="20"
     id="circle1" />
  <path
     d="m315 424 28-15 54-156c10-25 13-45 13-62 0-32-13-60-36-63-21-2-33 19-32 31 2 29 31 45 31 85 0 28-18 73-31 117l-62-187 20-1c10 0 9-15-1-14-31 3-60 2-92 0-10-1-10 14-1 14l18 1 27 74-38 114-63-188 20-1c9 0 8-15-1-14-29 2-57 4-64-1l-8 24 84 233 25 14 54-158"
     fill="#ffffff"
     id="path1" />
</svg>
