<?xml version="1.0" encoding="UTF-8" standalone="no"?>
<!-- Created with Inkscape (http://www.inkscape.org/) -->

<svg
   width="135.46667mm"
   height="135.46666mm"
   viewBox="0 0 135.46667 135.46666"
   version="1.1"
   id="svg1"
   inkscape:version="1.3.2 (091e20e, 2023-11-25, custom)"
   sodipodi:docname="Xamarin.svg"
   xmlns:inkscape="http://www.inkscape.org/namespaces/inkscape"
   xmlns:sodipodi="http://sodipodi.sourceforge.net/DTD/sodipodi-0.dtd"
   xmlns="http://www.w3.org/2000/svg"
   xmlns:svg="http://www.w3.org/2000/svg">
  <sodipodi:namedview
     id="namedview1"
     pagecolor="#ffffff"
     bordercolor="#000000"
     borderopacity="0.25"
     inkscape:showpageshadow="2"
     inkscape:pageopacity="0.0"
     inkscape:pagecheckerboard="0"
     inkscape:deskcolor="#d1d1d1"
     inkscape:document-units="mm"
     inkscape:zoom="0.69219276"
     inkscape:cx="-18.780896"
     inkscape:cy="139.41203"
     inkscape:window-width="1920"
     inkscape:window-height="991"
     inkscape:window-x="-9"
     inkscape:window-y="1341"
     inkscape:window-maximized="1"
     inkscape:current-layer="layer1" />
  <defs
     id="defs1" />
  <g
     inkscape:label="Calque 1"
     inkscape:groupmode="layer"
     id="layer1"
     transform="translate(-109.93437,-111.62563)">
    <path
       d="m 149.02197,118.93021 c -3.65867,0.01 -7.24009,2.09016 -9.08188,5.26687 l -28.64588,49.89496 c -1.81312,3.18524 -1.81312,7.3486 0,10.53384 l 28.64588,49.89491 c 1.84198,3.17681 5.42321,5.25974 9.08188,5.26692 h 57.29157 c 3.65864,-0.01 7.23988,-2.09011 9.08188,-5.26692 l 28.64585,-49.89491 c 1.81313,-3.18524 1.81293,-7.3486 0,-10.53384 l -28.64585,-49.89496 c -1.842,-3.17671 -5.42324,-5.25969 -9.08188,-5.26687 z m 0.51992,29.18912 c 0.0787,-0.01 0.16123,-0.01 0.24019,0 h 9.88194 c 0.4372,0.01 0.86171,0.26253 1.08017,0.64326 l 16.76353,29.95306 c 0.0843,0.14808 0.13854,0.31322 0.15962,0.48238 0.0201,-0.16916 0.0748,-0.3343 0.15912,-0.48238 l 16.72338,-29.95306 c 0.22538,-0.39203 0.66956,-0.64712 1.12012,-0.64326 h 9.88196 c 0.87506,0.01 1.53032,1.1129 1.12027,1.88968 l -16.36317,29.34995 16.36317,29.30974 c 0.44875,0.78125 -0.22237,1.93762 -1.12027,1.92989 h -9.88196 c -0.45829,-0.004 -0.90523,-0.27658 -1.12012,-0.68352 l -16.72338,-29.95305 c -0.0843,-0.14808 -0.13854,-0.31323 -0.15912,-0.48239 -0.0201,0.16916 -0.0748,0.33431 -0.15962,0.48239 l -16.76353,29.95305 c -0.20832,0.39555 -0.63504,0.6655 -1.08017,0.68352 h -9.88194 c -0.89775,0.01 -1.569,-1.14864 -1.12013,-1.92989 l 16.36321,-29.30974 -16.36321,-29.34995 c -0.39223,-0.70872 0.0863,-1.73839 0.87993,-1.88968 z"
       id="path1"
       style="fill:#3498db;fill-opacity:1;stroke-width:1.3281" />
    <rect
       width="135.46666"
       height="135.46666"
       rx="3.9687507%"
       fill="#ffffff"
       id="rect1"
       style="fill:#ffffff;fill-opacity:0;stroke-width:0.264583"
       x="109.93438"
       y="111.62563"
       inkscape:export-filename="..\PNG\xamarin.png"
       inkscape:export-xdpi="96"
       inkscape:export-ydpi="96" />
  </g>
</svg>
